<svg width="300" height="200" viewBox="0 0 300 200" fill="none" xmlns="http://www.w3.org/2000/svg">
<g clip-path="url(#clip0_7002_39366)">
<path d="M264.399 97.9047C264.391 98.0212 264.384 98.1377 264.36 98.2464C264.345 98.3396 264.314 98.4328 264.291 98.526C264.26 98.6347 264.237 98.7434 264.198 98.8522C264.167 98.9376 264.129 99.0308 264.09 99.1162C264.044 99.2327 263.99 99.3414 263.935 99.4579C263.889 99.5356 263.843 99.621 263.789 99.6987C263.711 99.8229 263.626 99.955 263.534 100.079C263.479 100.149 263.418 100.227 263.356 100.297C263.217 100.468 263.062 100.631 262.9 100.794C262.838 100.856 262.784 100.91 262.722 100.972C262.622 101.066 262.506 101.159 262.39 101.244C262.289 101.322 262.197 101.407 262.088 101.485C261.965 101.57 261.833 101.656 261.702 101.741C261.563 101.827 261.439 101.92 261.292 102.005L177.688 150.832C177.217 151.104 176.707 151.337 176.181 151.554C176.042 151.608 175.903 151.663 175.764 151.717C175.439 151.834 175.091 151.935 174.744 152.028C174.388 152.129 174.033 152.222 173.662 152.3C173.229 152.393 172.788 152.47 172.348 152.525C172.24 152.54 172.139 152.556 172.031 152.571C171.428 152.634 170.818 152.665 170.207 152.672C170.115 152.672 170.014 152.672 169.921 152.672C169.318 152.672 168.716 152.634 168.121 152.571C168.028 152.564 167.943 152.548 167.85 152.54C167.263 152.47 166.675 152.37 166.111 152.237C166.011 152.214 165.903 152.183 165.802 152.16C165.284 152.036 164.782 151.88 164.295 151.702C164.21 151.671 164.117 151.647 164.032 151.608C163.453 151.383 162.896 151.127 162.379 150.824L37.7065 78.5123C35.5735 77.2697 34.4992 75.6465 34.507 74.0156L34.4297 102.254C34.4297 103.877 35.4962 105.508 37.6292 106.75L162.294 179.078C162.78 179.365 163.306 179.614 163.855 179.831C163.886 179.839 163.916 179.847 163.94 179.862C164.025 179.893 164.117 179.924 164.21 179.955C164.527 180.072 164.844 180.188 165.168 180.281C165.346 180.336 165.532 180.367 165.709 180.414C165.81 180.437 165.918 180.468 166.019 180.491C166.111 180.514 166.204 180.538 166.297 180.561C166.652 180.631 167.008 180.701 167.371 180.747C167.502 180.763 167.634 180.779 167.757 180.794C167.85 180.802 167.935 180.817 168.02 180.825C168.152 180.841 168.283 180.856 168.414 180.872C168.77 180.903 169.125 180.918 169.481 180.926C169.589 180.926 169.705 180.926 169.813 180.926C169.914 180.926 170.006 180.926 170.099 180.926C170.261 180.926 170.424 180.926 170.586 180.926C170.988 180.911 171.39 180.887 171.784 180.848C171.83 180.848 171.877 180.833 171.923 180.833C172.031 180.825 172.132 180.802 172.24 180.786C172.549 180.747 172.858 180.709 173.167 180.654C173.299 180.631 173.422 180.584 173.561 180.553C173.932 180.476 174.288 180.382 174.643 180.281C174.829 180.227 175.037 180.196 175.215 180.134C175.37 180.087 175.509 180.017 175.656 179.963C175.795 179.909 175.934 179.862 176.073 179.8C176.599 179.59 177.116 179.357 177.58 179.078L261.184 130.251C261.231 130.228 261.269 130.197 261.316 130.174C261.416 130.111 261.501 130.049 261.594 129.987C261.725 129.902 261.864 129.816 261.98 129.723C262.088 129.645 262.181 129.56 262.282 129.482C262.398 129.389 262.506 129.304 262.614 129.211C262.637 129.195 262.66 129.172 262.683 129.156C262.722 129.117 262.753 129.071 262.799 129.032C262.962 128.869 263.116 128.706 263.255 128.535C263.286 128.496 263.325 128.465 263.356 128.426C263.387 128.387 263.402 128.348 263.433 128.317C263.526 128.193 263.611 128.069 263.688 127.937C263.719 127.882 263.765 127.828 263.796 127.782C263.812 127.758 263.82 127.727 263.835 127.696C263.897 127.587 263.943 127.471 263.99 127.354C264.02 127.292 264.059 127.222 264.082 127.16C264.09 127.137 264.09 127.114 264.098 127.09C264.136 126.982 264.16 126.873 264.19 126.764C264.214 126.694 264.237 126.617 264.252 126.547C264.252 126.523 264.252 126.508 264.252 126.485C264.275 126.368 264.283 126.259 264.291 126.143C264.291 126.065 264.314 125.995 264.314 125.918C264.314 125.887 264.314 125.855 264.314 125.824L264.391 97.5863C264.391 97.695 264.376 97.7959 264.368 97.9047H264.399Z" fill="#C6C6BE" stroke="#4F4F4F" stroke-width="1.09" stroke-miterlimit="10"/>
<path d="M261.233 93.1043C265.476 95.5663 265.499 99.5504 261.28 102.012L177.676 150.839C173.464 153.301 166.609 153.301 162.366 150.839L37.7093 78.5115C33.4665 76.0496 33.4356 72.0578 37.6475 69.5958L121.259 20.7693C125.471 18.3074 132.334 18.3152 136.577 20.7693L261.241 93.0966L261.233 93.1043Z" fill="white" stroke="#515151" stroke-width="1.09" stroke-miterlimit="10"/>
<path d="M235.031 102.587C239.938 99.7209 239.93 92.5993 235.015 89.7491L133.257 30.7099L133.118 30.7875L131.851 30.0497C129.563 28.7217 126.735 28.7217 124.447 30.0575L57.1032 69.3937C54.0737 71.1644 54.0737 75.5679 57.1109 77.3308L163.081 138.816L163.22 138.739L164.487 139.476C166.775 140.805 169.603 140.805 171.891 139.469L235.031 102.594V102.587Z" fill="#F2F3EE" stroke="#231F20" stroke-width="1.09" stroke-miterlimit="10"/>
<path d="M139.825 77.4452L139.809 82.7496C139.809 81.9108 139.601 81.173 139.376 80.7692C139.237 80.5129 139.152 80.0547 139.152 79.4567L139.168 74.1523C139.168 74.7581 139.253 75.2163 139.392 75.4648C139.616 75.8687 139.832 76.6065 139.825 77.4452Z" fill="#BD9AE3"/>
<mask id="mask0_7002_39366" style="mask-type:luminance" maskUnits="userSpaceOnUse" x="139" y="74" width="1" height="9">
<path d="M139.821 77.4452L139.805 82.7496C139.805 81.9108 139.597 81.173 139.373 80.7692C139.233 80.5129 139.148 80.0547 139.148 79.4567L139.164 74.1523C139.164 74.7581 139.249 75.2163 139.388 75.4648C139.612 75.8687 139.829 76.6065 139.821 77.4452Z" fill="white"/>
</mask>
<g mask="url(#mask0_7002_39366)">
<path d="M139.821 77.4452L139.805 82.7496C139.805 81.9108 139.597 81.173 139.373 80.7692C139.233 80.5129 139.148 80.0547 139.148 79.4567L139.164 74.1523C139.164 74.7581 139.249 75.2163 139.388 75.4648C139.612 75.8687 139.829 76.6065 139.821 77.4452Z" fill="#BD9AE3"/>
</g>
<path d="M137.909 119.207L137.893 124.511L79.0117 90.3473L79.0272 85.043L137.909 119.207Z" fill="#BD9AE3"/>
<path d="M165.457 135.19L165.442 140.494L137.891 124.511L137.906 119.207L165.457 135.19Z" fill="#775151"/>
<path d="M235.108 92.8476L236.352 96.7385C236.7 97.8258 236.244 99.014 235.262 99.5887L165.445 140.486L165.461 135.182L235.108 92.8398V92.8476Z" fill="#AB7575"/>
<path d="M234.033 95.139L165.452 135.19L137.901 119.207L79.0195 85.0429C79.8387 84.3284 95.4266 70.7995 118.364 78.9852C141.309 87.1708 140.482 77.4475 139.385 75.4671C138.295 73.4789 140.235 58.6376 166.009 61.0839C166.65 61.1461 178.884 62.311 189.139 67.7008C199.402 73.0828 210.918 72.7334 211.52 72.7101L234.01 85.7574C237.603 87.8387 237.611 93.0499 234.025 95.1468L234.033 95.139Z" fill="#E5D4FF"/>
<path d="M235.851 103.69L175.702 138.817C168.468 142.91 165.81 141.869 160.655 138.84L138.908 126.22C129.765 120.916 133.637 106.789 144.186 107.038C144.372 107.038 144.565 107.045 144.758 107.053C164.04 107.713 163.654 89.8663 160.771 87.7695C158.082 85.8046 139.65 64.7658 164.303 52.5572C167.417 51.0117 171.104 51.1204 174.11 52.8678L236.817 89.245C239.205 90.6197 242.536 94.93 239.313 100.39C238.494 101.78 237.242 102.867 235.851 103.683V103.69Z" fill="#90C4FE"/>
<path d="M235.847 102.628L175.698 137.755C168.464 141.847 165.806 140.807 160.651 137.778L138.904 125.158C129.761 119.853 133.633 105.727 144.182 105.975C144.368 105.975 144.561 105.983 144.754 105.991C164.036 106.651 163.65 88.8038 160.767 86.7069C158.078 84.7421 139.646 63.7033 164.299 51.4947C167.413 49.9492 171.1 50.0579 174.106 51.8053L236.813 88.1825C239.201 89.5572 242.532 93.8675 239.309 99.3271C238.49 100.717 237.238 101.805 235.847 102.62V102.628Z" fill="#90C4FE"/>
<path d="M235.847 101.565L175.698 136.692C168.464 140.785 165.806 139.744 160.651 136.715L138.904 124.095C129.761 118.791 133.633 104.664 144.182 104.913C144.368 104.913 144.561 104.92 144.754 104.928C164.036 105.588 163.65 87.7413 160.767 85.6444C158.078 83.6796 139.646 62.6408 164.299 50.4322C167.413 48.8867 171.1 48.9954 174.106 50.7428L236.813 87.12C239.201 88.4947 242.532 92.8049 239.309 98.2646C238.49 99.6548 237.238 100.742 235.847 101.558V101.565Z" fill="#90C4FE"/>
<path d="M235.847 100.499L175.698 135.626C168.464 139.719 165.806 138.678 160.651 135.649L138.904 123.029C129.761 117.724 133.633 103.598 144.182 103.846C144.368 103.846 144.561 103.854 144.754 103.862C164.036 104.522 163.65 86.6749 160.767 84.578C158.078 82.6132 139.646 61.5743 164.299 49.3658C167.413 47.8203 171.1 47.929 174.106 49.6764L236.813 86.0536C239.201 87.4283 242.532 91.7385 239.309 97.1982C238.49 98.5884 237.238 99.6757 235.847 100.491V100.499Z" fill="#90C4FE"/>
<path d="M235.847 99.4364L175.698 134.563C168.464 138.656 165.806 137.615 160.651 134.587L138.904 121.966C129.761 116.662 133.633 102.535 144.182 102.784C144.368 102.784 144.561 102.791 144.754 102.799C164.036 103.459 163.65 85.6124 160.767 83.5155C158.078 81.5507 139.646 60.5118 164.299 48.3033C167.413 46.7578 171.1 46.8665 174.106 48.6139L236.813 84.9911C239.201 86.3658 242.532 90.676 239.309 96.1357C238.49 97.5259 237.238 98.6132 235.847 99.4286V99.4364Z" fill="#90C4FE"/>
<path d="M235.847 98.3622L175.698 133.489C168.464 137.582 165.806 136.541 160.651 133.512L138.904 120.892C129.761 115.588 133.633 101.461 144.182 101.709C144.368 101.709 144.561 101.717 144.754 101.725C164.036 102.385 163.65 84.5382 160.767 82.4413C158.078 80.4765 139.646 59.4376 164.299 47.2291C167.413 45.6836 171.1 45.7923 174.106 47.5397L236.813 83.9169C239.201 85.2915 242.532 89.6018 239.309 95.0615C238.49 96.4517 237.238 97.539 235.847 98.3544V98.3622Z" fill="#90C4FE"/>
<path d="M235.847 97.2997L175.698 132.427C168.464 136.519 165.806 135.479 160.651 132.45L138.904 119.83C129.761 114.525 133.633 100.398 144.182 100.647C144.368 100.647 144.561 100.655 144.754 100.662C164.036 101.323 163.65 83.4757 160.767 81.3788C158.078 79.414 139.646 58.3751 164.299 46.1665C167.413 44.6211 171.1 44.7298 174.106 46.4772L236.813 82.8544C239.201 84.229 242.532 88.5393 239.309 93.999C238.49 95.3892 237.238 96.4764 235.847 97.2919V97.2997Z" fill="#90C4FE"/>
<path d="M235.851 96.3973L175.702 131.524C168.468 135.617 165.81 134.576 160.655 131.547L138.908 118.927C129.765 113.623 133.637 99.4961 144.186 99.7446C144.372 99.7446 144.565 99.7524 144.758 99.7601C164.04 100.42 163.654 82.5734 160.771 80.4765C158.082 78.5116 139.65 57.4728 164.303 45.2642C167.417 43.7187 171.104 43.8274 174.11 45.5749L236.817 81.9521C239.205 83.3267 242.536 87.637 239.313 93.0967C238.494 94.4868 237.242 95.5741 235.851 96.3896V96.3973Z" fill="#C3E2FC"/>
</g>
<defs>
<clipPath id="clip0_7002_39366">
<rect width="232" height="163" fill="white" transform="translate(34 18.5)"/>
</clipPath>
</defs>
</svg>
