<svg width="301" height="200" viewBox="0 0 301 200" fill="none" xmlns="http://www.w3.org/2000/svg">
<path d="M193.728 149.636L143.576 178.536L118.404 164.086L168.556 135.207L193.728 149.636Z" fill="#D0D1C7"/>
<path d="M193.728 149.637V154.267L143.576 183.075V178.537L193.728 149.637Z" fill="#AFAFAA"/>
<path d="M143.576 183.074L118.404 169.07V164.086L143.576 178.536V183.074Z" fill="#D0D1C7"/>
<path d="M173.058 136.935L141.846 154.923L136.432 151.818L167.637 133.844L173.058 136.935Z" fill="#D6D6D6"/>
<path d="M173.058 136.938V149.076L141.846 167V154.926L173.058 136.938Z" fill="#AFAFAA"/>
<path d="M141.846 167.001L136.432 163.895V151.82L141.846 154.926V167.001Z" fill="#D0D1C7"/>
<path d="M226.335 10.4297V107.127L79.0449 191.998V94.953L226.335 10.4297Z" fill="#AFAFAA"/>
<path d="M223.312 17.4922V103.696L82.0762 184.936V98.4278L223.312 17.4922Z" fill="white"/>
<path d="M79.044 192L74.334 189.568V92.5234L79.044 94.9554V192Z" fill="#D0D1C7"/>
<path d="M226.334 10.432L221.624 8L74.334 92.5233L79.044 94.9553L226.334 10.432Z" fill="#D0D1C7"/>
<path d="M160.361 149.791C160.204 148.444 159.201 147.862 157.949 148.387C157.821 148.436 157.693 148.5 157.565 148.578C157.437 148.656 157.309 148.741 157.181 148.833C156.604 149.259 156.085 149.854 155.672 150.521C155.196 151.301 154.861 152.173 154.769 153.003C154.754 153.159 154.74 153.307 154.74 153.456C154.74 153.598 154.747 153.726 154.762 153.853C154.925 155.208 155.921 155.782 157.173 155.25C157.302 155.193 157.43 155.137 157.558 155.059C157.686 154.981 157.814 154.896 157.942 154.803C158.326 154.52 158.682 154.165 158.995 153.761C159.713 152.854 160.226 151.705 160.347 150.656C160.368 150.5 160.375 150.344 160.375 150.188C160.375 150.053 160.368 149.918 160.354 149.798L160.361 149.791Z" fill="#EDEDED"/>
<path d="M222.906 106.555C222.834 105.938 222.379 105.676 221.803 105.917C221.746 105.938 221.689 105.966 221.625 106.002C221.568 106.037 221.504 106.073 221.447 106.115C221.184 106.307 220.949 106.583 220.757 106.888C220.536 107.243 220.387 107.647 220.344 108.023C220.337 108.094 220.33 108.164 220.33 108.228C220.33 108.292 220.33 108.356 220.344 108.413C220.415 109.029 220.871 109.292 221.447 109.051C221.504 109.03 221.561 108.994 221.625 108.966C221.682 108.93 221.746 108.895 221.803 108.852C221.974 108.725 222.137 108.562 222.287 108.377C222.614 107.959 222.849 107.441 222.906 106.959C222.913 106.888 222.92 106.817 222.92 106.746C222.92 106.683 222.92 106.626 222.913 106.569L222.906 106.555Z" fill="#F2F3EE"/>
<path d="M219.652 108.571C219.581 107.954 219.125 107.691 218.549 107.932C218.492 107.954 218.435 107.982 218.371 108.018C218.314 108.053 218.25 108.088 218.193 108.131C217.93 108.322 217.695 108.599 217.503 108.904C217.282 109.258 217.133 109.663 217.09 110.038C217.083 110.109 217.076 110.18 217.076 110.244C217.076 110.308 217.076 110.372 217.09 110.428C217.162 111.045 217.617 111.307 218.193 111.066C218.25 111.045 218.307 111.01 218.371 110.981C218.428 110.946 218.492 110.91 218.549 110.868C218.72 110.74 218.883 110.577 219.033 110.393C219.36 109.974 219.595 109.457 219.652 108.975C219.659 108.904 219.666 108.833 219.666 108.762C219.666 108.698 219.666 108.642 219.659 108.585L219.652 108.571Z" fill="#FFA4B3"/>
<path d="M216.253 110.414C216.182 109.798 215.727 109.535 215.15 109.776C215.094 109.798 215.037 109.826 214.973 109.861C214.916 109.897 214.852 109.932 214.795 109.975C214.532 110.166 214.297 110.443 214.105 110.748C213.884 111.102 213.735 111.506 213.692 111.882C213.685 111.953 213.678 112.024 213.678 112.088C213.678 112.151 213.678 112.215 213.692 112.272C213.763 112.889 214.218 113.151 214.795 112.91C214.852 112.889 214.909 112.853 214.973 112.825C215.03 112.79 215.094 112.754 215.15 112.712C215.321 112.584 215.485 112.421 215.634 112.237C215.962 111.818 216.196 111.301 216.253 110.819C216.26 110.748 216.268 110.677 216.268 110.606C216.268 110.542 216.268 110.485 216.26 110.429L216.253 110.414Z" fill="#8AD5CE"/>
<path d="M166.83 76.3894C167.129 76.2192 167.399 75.9214 167.62 75.574L168.481 75.8789V82.0191L164.205 87.9962L159.978 86.9823V80.4166C160.455 79.8849 160.79 79.0766 160.79 78.3534C160.79 77.4033 160.206 76.9779 159.488 77.3962C158.769 77.8145 158.186 78.9206 158.186 79.8707C158.186 80.5868 158.52 81.0122 158.997 80.991V88.2798L163.728 89.4142L164.681 88.8612L168.964 82.8699L173.041 83.9618V83.9831L174.023 83.4087V82.6855L169.462 81.4589V74.6381L168.118 74.163C168.125 74.0779 168.132 73.9999 168.132 73.9149C168.132 72.9648 167.549 72.5393 166.83 72.9577C166.111 73.376 165.528 74.4821 165.528 75.4322C165.528 76.3823 166.111 76.8077 166.83 76.3894ZM159.488 79.9487C159.132 80.1543 158.847 79.9487 158.847 79.4807C158.847 79.0128 159.132 78.4739 159.488 78.2683C159.843 78.0627 160.128 78.2683 160.128 78.7362C160.128 79.2042 159.843 79.7431 159.488 79.9487ZM166.83 73.8298C167.186 73.6242 167.47 73.8298 167.47 74.2977C167.47 74.7657 167.186 75.3046 166.83 75.5102C166.474 75.7158 166.19 75.5102 166.19 75.0422C166.19 74.5742 166.474 74.0354 166.83 73.8298Z" fill="#1A323C"/>
<path d="M164.232 107.37C163.513 107.789 162.93 108.895 162.93 109.845C162.93 110.554 163.25 110.972 163.713 110.965V117.02L159.465 122.948L155.31 122.161L155.331 107.441L154.3 108.044L154.278 122.799L150.166 128.365L145.933 127.422V121.466C146.395 120.934 146.715 120.14 146.715 119.431C146.715 118.481 146.132 118.055 145.413 118.474C144.695 118.892 144.111 119.998 144.111 120.948C144.111 121.678 144.46 122.104 144.944 122.061V128.719L150.152 129.875L154.812 123.557L159.472 124.437L164.694 117.155V110.405C165.185 109.873 165.527 109.044 165.527 108.313C165.527 107.363 164.943 106.938 164.225 107.356L164.232 107.37ZM145.413 121.033C145.058 121.239 144.773 121.033 144.773 120.565C144.773 120.097 145.058 119.558 145.413 119.353C145.769 119.147 146.054 119.353 146.054 119.821C146.054 120.289 145.769 120.828 145.413 121.033ZM164.232 109.93C163.876 110.135 163.592 109.93 163.592 109.462C163.592 108.994 163.876 108.455 164.232 108.249C164.588 108.044 164.872 108.249 164.872 108.717C164.872 109.185 164.588 109.724 164.232 109.93Z" fill="#1A323C"/>
<path d="M173.04 97.1087V97.3498L168.971 103.079L164.716 102.079V101.973L163.734 102.547V102.653L158.989 109.304V116.628C158.512 117.16 158.178 117.968 158.178 118.692C158.178 119.642 158.761 120.067 159.48 119.649C160.198 119.23 160.782 118.124 160.782 117.174C160.782 116.458 160.447 116.033 159.971 116.054V109.446L164.225 103.483L168.48 104.483V110.821L168.025 111.686C167.847 111.672 167.655 111.722 167.441 111.842C166.723 112.261 166.139 113.367 166.139 114.317C166.139 115.267 166.723 115.692 167.441 115.274C168.16 114.856 168.743 113.75 168.743 112.8C168.743 112.601 168.715 112.431 168.672 112.282L169.462 110.779V103.901L174.022 97.4845V96.5273L173.04 97.1017V97.1087ZM160.127 117.55C160.127 118.018 159.843 118.557 159.487 118.762C159.131 118.968 158.847 118.762 158.847 118.295C158.847 117.827 159.131 117.288 159.487 117.082C159.843 116.876 160.127 117.082 160.127 117.55ZM167.441 114.409C167.085 114.615 166.801 114.409 166.801 113.941C166.801 113.473 167.085 112.934 167.441 112.729C167.797 112.523 168.082 112.729 168.082 113.197C168.082 113.665 167.797 114.203 167.441 114.409Z" fill="#1A323C"/>
<path d="M145.41 95.0663C146.129 94.648 146.712 93.5419 146.712 92.5918C146.712 91.8828 146.392 91.4645 145.93 91.4716V85.4165L150.177 79.489L154.332 80.276L154.311 94.8891L155.342 94.2864L155.364 79.6308L159.476 74.0649L163.709 75.0079V80.9638C163.247 81.4955 162.927 82.2896 162.927 82.9987C162.927 83.9488 163.51 84.3742 164.229 83.9559C164.947 83.5375 165.531 82.4315 165.531 81.4814C165.531 80.7511 165.182 80.3256 164.698 80.3682V73.7104L159.49 72.5547L154.83 78.8721L150.17 77.9929L144.948 85.2747V92.0246C144.457 92.5564 144.115 93.3859 144.115 94.1162C144.115 95.0663 144.699 95.4918 145.417 95.0734L145.41 95.0663ZM164.229 81.4034C164.584 81.1977 164.869 81.4034 164.869 81.8713C164.869 82.3393 164.584 82.8781 164.229 83.0838C163.873 83.2894 163.588 83.0838 163.588 82.6158C163.588 82.1478 163.873 81.609 164.229 81.4034ZM145.41 92.5068C145.766 92.3011 146.05 92.5067 146.05 92.9747C146.05 93.4427 145.766 93.9815 145.41 94.1871C145.054 94.3928 144.77 94.1871 144.77 93.7192C144.77 93.2512 145.054 92.7124 145.41 92.5068Z" fill="#1A323C"/>
<path d="M142.816 126.045C142.517 126.216 142.247 126.513 142.026 126.861L141.165 126.556V120.416L145.441 114.439L149.668 115.453V122.018C149.191 122.55 148.857 123.358 148.857 124.081C148.857 125.031 149.44 125.457 150.159 125.039C150.877 124.62 151.461 123.514 151.461 122.564C151.461 121.848 151.126 121.423 150.649 121.444V114.155L145.79 112.992L145.086 113.403L140.682 119.565L136.605 118.473V118.352L135.623 118.927V119.756L140.184 120.983V127.804L141.528 128.279C141.521 128.364 141.514 128.442 141.514 128.527C141.514 129.477 142.097 129.903 142.816 129.484C143.535 129.066 144.118 127.96 144.118 127.01C144.118 126.06 143.535 125.634 142.816 126.052V126.045ZM150.159 122.486C150.514 122.28 150.799 122.486 150.799 122.954C150.799 123.422 150.514 123.961 150.159 124.166C149.803 124.372 149.518 124.166 149.518 123.699C149.518 123.231 149.803 122.692 150.159 122.486ZM142.816 128.605C142.46 128.811 142.176 128.605 142.176 128.137C142.176 127.669 142.46 127.13 142.816 126.925C143.172 126.719 143.456 126.925 143.456 127.393C143.456 127.861 143.172 128.399 142.816 128.605Z" fill="#1A323C"/>
<path d="M136.605 105.22V105.085L140.675 99.3565L144.929 100.356L145.911 99.7961L150.657 93.1383V85.8141C151.133 85.2823 151.468 84.474 151.468 83.7508C151.468 82.8007 150.884 82.3753 150.166 82.7936C149.447 83.2119 148.864 84.318 148.864 85.2681C148.864 85.9842 149.198 86.4097 149.675 86.3884V92.9965L145.42 98.9595L141.165 97.9597V91.621L141.621 90.756C141.799 90.7702 141.991 90.7205 142.204 90.6C142.923 90.1817 143.506 89.0756 143.506 88.1255C143.506 87.1754 142.923 86.75 142.204 87.1683C141.486 87.5866 140.902 88.6927 140.902 89.6428C140.902 89.8414 140.931 90.0115 140.973 90.1604L140.184 91.6636V98.5411L135.623 104.958V105.816L136.605 105.241V105.22ZM149.518 84.8852C149.518 84.4173 149.803 83.8784 150.159 83.6728C150.514 83.4672 150.799 83.6728 150.799 84.1408C150.799 84.6087 150.514 85.1476 150.159 85.3532C149.803 85.5588 149.518 85.3532 149.518 84.8852ZM142.204 88.0262C142.56 87.8206 142.845 88.0262 142.845 88.4942C142.845 88.9622 142.56 89.501 142.204 89.7066C141.848 89.9123 141.564 89.7066 141.564 89.2387C141.564 88.7707 141.848 88.2319 142.204 88.0262Z" fill="#1A323C"/>
<path d="M161.624 98.9666C161.702 99.0942 161.702 99.2998 161.624 99.5125L160.741 102.058C160.67 102.271 160.528 102.455 160.386 102.54L159.866 102.838L158.358 103.724L156.095 105.043C155.96 105.121 155.854 105.043 155.854 104.866V100.342C155.854 100.257 155.882 100.165 155.925 100.08C155.967 99.9947 156.031 99.9238 156.095 99.8883L159.895 97.6762C159.987 97.6053 160.023 97.5344 160.08 97.3784C160.471 96.2368 160.549 96.1163 160.464 95.9603C160.03 95.23 160.023 95.152 159.852 95.2513C159.767 95.3009 159.624 95.3789 156.095 97.4351C155.96 97.5131 155.854 97.4351 155.854 97.2578V96.5488C155.854 96.4637 155.882 96.3715 155.925 96.2794C155.967 96.1943 156.031 96.1234 156.095 96.0879L160.464 93.5425C160.684 93.4787 160.613 93.4787 161.616 95.1662C161.695 95.2938 161.695 95.4994 161.616 95.7121L160.905 97.7754C161.054 98.0236 161.268 98.4065 161.616 98.9808L161.624 98.9666ZM160.087 101.186C160.478 100.044 160.556 99.9238 160.471 99.7678C160.037 99.0375 160.03 98.9595 159.859 99.0588C159.781 99.1013 159.653 99.1722 156.906 100.768V103.235L159.333 101.817C159.937 101.469 159.973 101.505 160.08 101.186H160.087Z" fill="#1A323C"/>
<path d="M123.936 114.829L126.533 113.311C126.668 113.233 126.775 113.311 126.775 113.489V115.736C126.775 115.914 126.668 116.119 126.533 116.197L125.971 116.523C125.836 116.601 125.729 116.523 125.729 116.346V115.127L123.936 116.176C122.755 116.864 121.802 118.679 121.802 120.239V120.884C121.802 121.628 122.029 122.217 122.428 122.508C122.826 122.798 123.374 122.784 123.936 122.451L125.238 121.692C125.302 121.657 125.366 121.65 125.409 121.692C125.452 121.735 125.48 121.791 125.48 121.877V122.586C125.48 122.671 125.452 122.763 125.409 122.848C125.366 122.933 125.302 123.004 125.238 123.039L123.936 123.798C122.179 124.819 120.756 123.777 120.756 121.458V120.877C120.756 118.558 122.179 115.85 123.936 114.822V114.829Z" fill="#1A323C"/>
<path d="M130.076 112.603V111.256L130.318 111.114C130.453 111.036 135.106 108.32 135.106 108.32V109.667L134.864 109.809C134.729 109.887 130.076 112.603 130.076 112.603ZM135.113 116.261V116.97C135.113 117.148 135.007 117.353 134.872 117.431L130.325 120.083C130.19 120.161 130.083 120.083 130.083 119.906V118.878V115.382C130.083 115.205 130.19 114.999 130.325 114.921L134.366 112.567C134.43 112.532 134.494 112.525 134.537 112.567C134.58 112.61 134.608 112.667 134.608 112.752V113.468C134.608 113.553 134.58 113.645 134.537 113.73C134.494 113.815 134.43 113.886 134.366 113.922L131.129 115.808V118.275L134.864 116.098C135 116.02 135.106 116.098 135.106 116.276L135.113 116.261Z" fill="#1A323C"/>
<path d="M147.529 102.427V101.08L147.771 100.938C147.906 100.86 152.559 98.1445 152.559 98.1445V99.4917L152.318 99.6335C152.182 99.7115 147.529 102.427 147.529 102.427ZM152.559 106.086V106.795C152.559 106.972 152.453 107.178 152.318 107.256L147.771 109.907C147.636 109.985 147.529 109.907 147.529 109.73V108.702V105.206C147.529 105.029 147.636 104.824 147.771 104.746L151.812 102.392C151.876 102.356 151.94 102.349 151.983 102.392C152.026 102.434 152.054 102.491 152.054 102.576V103.292C152.054 103.377 152.026 103.469 151.983 103.554C151.94 103.64 151.876 103.71 151.812 103.746L148.575 105.632V108.099L152.31 105.923C152.446 105.845 152.552 105.923 152.552 106.1L152.559 106.086Z" fill="#1A323C"/>
<path d="M170.76 96.0034C170.809 96.0673 170.817 96.1949 170.774 96.3225C170.731 96.4501 170.653 96.5636 170.56 96.6203C169.842 97.0386 169.764 97.1308 169.664 97.0103L167.707 94.4719L166.028 95.4504V98.9459C166.028 99.1232 165.922 99.3288 165.786 99.4068L165.224 99.7329C165.089 99.8109 164.982 99.7329 164.982 99.5557V95.0321C164.982 94.8548 165.089 94.6492 165.224 94.5712L168.462 92.6852C169.066 92.3378 169.102 92.3732 169.209 92.0542C169.6 90.9126 169.678 90.7921 169.593 90.6361C169.159 89.9058 169.152 89.8278 168.981 89.9271C168.896 89.9767 168.753 90.0547 165.224 92.1109C165.089 92.1889 164.982 92.1109 164.982 91.9336V91.2246C164.982 91.0473 165.089 90.8417 165.224 90.7637L169.593 88.2183C169.813 88.1545 169.742 88.1545 170.745 89.842C170.824 89.9696 170.824 90.1752 170.745 90.3879L169.863 92.9333C169.792 93.1461 169.65 93.3304 169.507 93.4155L168.988 93.7133L170.753 96.0034H170.76Z" fill="#1A323C"/>
<path d="M144.185 111.496C144.235 111.559 144.242 111.687 144.2 111.815C144.157 111.942 144.079 112.056 143.986 112.112C143.268 112.531 143.189 112.623 143.09 112.502L141.133 109.964L139.454 110.943V114.438C139.454 114.615 139.347 114.821 139.212 114.899L138.65 115.225C138.515 115.303 138.408 115.225 138.408 115.048V110.524C138.408 110.347 138.515 110.141 138.65 110.063L141.887 108.177C142.492 107.83 142.528 107.865 142.634 107.546C143.026 106.405 143.104 106.284 143.019 106.128C142.585 105.398 142.577 105.32 142.407 105.419C142.321 105.469 142.179 105.547 138.65 107.603C138.515 107.681 138.408 107.603 138.408 107.426V106.717C138.408 106.54 138.515 106.334 138.65 106.256L143.019 103.71C143.239 103.647 143.168 103.647 144.171 105.334C144.249 105.462 144.249 105.667 144.171 105.88L143.289 108.426C143.218 108.638 143.075 108.823 142.933 108.908L142.414 109.205L144.178 111.496H144.185Z" fill="#1A323C"/>
<path d="M188.722 83.453C188.722 84.8782 187.847 86.5444 186.766 87.1754L186.04 87.6009C185.905 87.6789 185.798 87.6009 185.798 87.4236V86.7146C185.798 86.6295 185.827 86.5373 185.869 86.4451C185.912 86.3601 185.976 86.2892 186.04 86.2537L186.737 85.8425C187.257 85.5447 187.669 84.7435 187.669 84.0628C187.669 83.3821 187.25 83.0773 186.737 83.3751L185.186 84.2826C183.863 85.0555 183.123 84.2117 183.123 82.9071C183.123 81.482 183.998 79.8157 185.08 79.1847L187.933 77.5185C188.068 77.4405 188.175 77.5185 188.175 77.6957V78.4048C188.175 78.582 188.068 78.7876 187.933 78.8656L185.101 80.5177C184.582 80.8155 184.169 81.6167 184.169 82.2973C184.169 82.978 184.589 83.2829 185.101 82.9851L186.652 82.0775C187.975 81.3047 188.722 82.1484 188.715 83.453H188.722Z" fill="#1A323C"/>
<path d="M176.433 92.1125V92.8499C176.433 92.9421 176.398 93.0555 176.348 93.1477C176.291 93.2399 176.22 93.3108 176.149 93.3321C174.953 93.7007 174.1 92.8145 174.1 91.205V85.9936C174.1 85.8164 174.206 85.6107 174.342 85.5327L174.904 85.2066C175.039 85.1286 175.145 85.2066 175.145 85.3838V90.6307C175.145 91.5311 175.601 92.0629 176.263 91.914C176.369 91.8927 176.44 91.9778 176.44 92.1196L176.433 92.1125ZM179.82 82.5974V87.8584C179.82 89.4678 178.966 91.3539 177.771 92.3749C177.7 92.4387 177.629 92.4529 177.572 92.4245C177.515 92.3961 177.486 92.3252 177.486 92.2331V91.4957C177.486 91.3539 177.557 91.1837 177.664 91.0844C178.326 90.4605 178.781 89.3969 178.781 88.4965V83.2C178.781 83.0228 178.888 82.8172 179.023 82.7392L179.585 82.413C179.72 82.335 179.827 82.413 179.827 82.5903L179.82 82.5974Z" fill="#1A323C"/>
</svg>
