<svg width="24" height="24" viewBox="0 0 24 24" fill="none" xmlns="http://www.w3.org/2000/svg">
<g clip-path="url(#clip0_4233_8751)">
<circle cx="12" cy="12" r="12" fill="#1A323C"/>
<path d="M13.9554 8.54353L7.52264 8.5784C7.26008 8.57983 7.04439 8.49085 6.87558 8.31148C6.70676 8.1321 6.62329 7.91092 6.62515 7.64791C6.63746 7.39623 6.72877 7.17957 6.89911 6.99792C7.06944 6.81627 7.28611 6.72495 7.5491 6.72396L16.2137 6.67699C16.345 6.67627 16.4625 6.70014 16.5664 6.74859C16.6703 6.79704 16.7653 6.86522 16.8515 6.95315C16.9377 7.04108 17.0054 7.13654 17.0547 7.23955C17.1041 7.34255 17.1282 7.45991 17.127 7.59163L17.08 16.2562C17.0787 16.4969 16.9872 16.7081 16.8055 16.8898C16.6238 17.0715 16.4073 17.1683 16.1561 17.1802C15.8935 17.1816 15.6724 17.0924 15.4926 16.9127C15.3129 16.7329 15.2239 16.512 15.2258 16.2499L15.2611 9.84922L8.26487 16.8455C8.07788 17.0325 7.85835 17.1267 7.60629 17.128C7.35423 17.1294 7.13615 17.0376 6.95205 16.8526C6.76796 16.6676 6.67615 16.4491 6.67664 16.1971C6.67713 15.945 6.77131 15.7259 6.95917 15.5398L13.9554 8.54353Z" fill="#E9EAE5"/>
<path d="M-3.11393 26.5239L-9.51808 26.5239C-9.77947 26.5239 -9.99468 26.4341 -10.1637 26.2546C-10.3328 26.0751 -10.4171 25.8545 -10.4166 25.5926C-10.4057 25.3421 -10.316 25.1269 -10.1474 24.947C-9.97878 24.7671 -9.76357 24.6773 -9.50174 24.6778L-0.875742 24.6778C-0.745045 24.6778 -0.627854 24.7022 -0.524167 24.751C-0.420481 24.7997 -0.325508 24.8681 -0.239248 24.9561C-0.152988 25.0441 -0.0850253 25.1396 -0.0353607 25.2424C0.0143042 25.3452 0.0389186 25.4622 0.0384827 25.5933L0.0384831 34.2193C0.0384833 34.4589 -0.0514803 34.6687 -0.231407 34.8486C-0.411332 35.0285 -0.626329 35.1237 -0.876396 35.1342C-1.13779 35.1342 -1.35845 35.0442 -1.53838 34.8643C-1.7183 34.6844 -1.80805 34.4639 -1.80761 34.203L-1.80696 27.8308L-8.73451 34.7584C-8.91966 34.9435 -9.13771 35.0361 -9.38865 35.0361C-9.63958 35.0361 -9.85719 34.9435 -10.0415 34.7584C-10.2258 34.5732 -10.3183 34.3552 -10.3192 34.1042C-10.3201 33.8533 -10.2275 33.6357 -10.0415 33.4514L-3.11393 26.5239Z" fill="#E9EAE5"/>
</g>
<defs>
<clipPath id="clip0_4233_8751">
<rect width="24" height="24" rx="12" fill="white"/>
</clipPath>
</defs>
</svg>
