<svg width="369" height="257" viewBox="0 0 369 257" fill="none" xmlns="http://www.w3.org/2000/svg">
<g clip-path="url(#clip0_7514_18047)">
<circle cx="340.198" cy="228.202" r="21.6" fill="#1A323C"/>
<path d="M343.717 221.985L332.138 222.047C331.666 222.05 331.278 221.89 330.974 221.567C330.67 221.244 330.52 220.846 330.523 220.372C330.545 219.919 330.709 219.529 331.016 219.203C331.323 218.876 331.713 218.711 332.186 218.709L347.782 218.625C348.019 218.624 348.23 218.667 348.417 218.754C348.604 218.841 348.775 218.964 348.93 219.122C349.085 219.28 349.207 219.452 349.296 219.637C349.385 219.823 349.428 220.034 349.426 220.271L349.342 235.867C349.339 236.301 349.175 236.681 348.848 237.008C348.52 237.335 348.131 237.509 347.679 237.531C347.206 237.533 346.808 237.373 346.484 237.049C346.161 236.726 346.001 236.328 346.004 235.856L346.068 224.335L333.474 236.928C333.138 237.265 332.743 237.434 332.289 237.437C331.835 237.439 331.443 237.274 331.111 236.941C330.78 236.608 330.615 236.215 330.616 235.761C330.616 235.307 330.786 234.913 331.124 234.578L343.717 221.985Z" fill="#E9EAE5"/>
<path d="M312.993 254.341L301.466 254.341C300.995 254.341 300.608 254.18 300.304 253.857C299.999 253.534 299.848 253.136 299.849 252.665C299.868 252.214 300.03 251.827 300.333 251.503C300.637 251.179 301.024 251.018 301.495 251.018L317.022 251.018C317.257 251.018 317.468 251.062 317.655 251.15C317.842 251.238 318.013 251.361 318.168 251.519C318.323 251.678 318.445 251.85 318.535 252.035C318.624 252.22 318.668 252.43 318.668 252.666L318.668 268.193C318.668 268.624 318.506 269.002 318.182 269.326C317.858 269.65 317.471 269.821 317.021 269.84C316.55 269.84 316.153 269.678 315.829 269.354C315.505 269.03 315.344 268.633 315.345 268.164L315.346 256.694L302.876 269.164C302.543 269.497 302.151 269.663 301.699 269.663C301.247 269.663 300.855 269.497 300.524 269.164C300.192 268.83 300.025 268.438 300.024 267.986C300.022 267.534 300.189 267.143 300.524 266.811L312.993 254.341Z" fill="#E9EAE5"/>
</g>
<path d="M368.199 174.585C368.199 185.137 354.751 192.211 344.199 192.211C322.108 192.211 304.199 210.12 304.199 232.211C304.199 242.763 297.126 256.211 286.573 256.211H12.9992C5.92997 256.211 0.199219 250.48 0.199219 243.411V13.0109C0.199219 5.9417 5.92998 0.210938 12.9992 0.210938H355.399C362.468 0.210938 368.199 5.94169 368.199 13.0109V174.585Z" fill="white"/>
<path d="M171.415 31.2621C170.885 31.2621 170.376 31.1926 169.89 31.0537C169.404 30.9085 169.012 30.7222 168.716 30.4948L169.237 29.3392C169.521 29.5413 169.855 29.7086 170.241 29.8413C170.632 29.9676 171.027 30.0307 171.425 30.0307C171.728 30.0307 171.971 30.0023 172.154 29.9455C172.344 29.8823 172.482 29.7971 172.571 29.6897C172.659 29.5824 172.703 29.4592 172.703 29.3203C172.703 29.1435 172.634 29.0045 172.495 28.9035C172.356 28.7961 172.173 28.7109 171.946 28.6478C171.718 28.5783 171.466 28.5151 171.188 28.4583C170.916 28.3952 170.642 28.3194 170.364 28.231C170.092 28.1426 169.843 28.0289 169.616 27.89C169.388 27.751 169.202 27.5679 169.057 27.3406C168.918 27.1132 168.848 26.8228 168.848 26.4691C168.848 26.0902 168.949 25.7461 169.151 25.4366C169.36 25.1209 169.669 24.8715 170.08 24.6883C170.496 24.4989 171.017 24.4042 171.643 24.4042C172.059 24.4042 172.47 24.4547 172.874 24.5557C173.278 24.6504 173.635 24.7957 173.944 24.9914L173.471 26.1565C173.161 25.9797 172.852 25.8503 172.542 25.7682C172.233 25.6798 171.93 25.6356 171.633 25.6356C171.336 25.6356 171.093 25.6703 170.904 25.7398C170.714 25.8092 170.579 25.9008 170.496 26.0145C170.414 26.1218 170.373 26.2481 170.373 26.3933C170.373 26.5638 170.443 26.7028 170.582 26.8101C170.721 26.9112 170.904 26.9933 171.131 27.0564C171.358 27.1196 171.608 27.1827 171.879 27.2459C172.157 27.309 172.432 27.3816 172.703 27.4637C172.981 27.5458 173.234 27.6563 173.461 27.7952C173.689 27.9342 173.872 28.1173 174.011 28.3446C174.156 28.572 174.229 28.8593 174.229 29.2066C174.229 29.5792 174.124 29.9202 173.916 30.2296C173.708 30.5391 173.395 30.7885 172.978 30.9779C172.568 31.1674 172.047 31.2621 171.415 31.2621ZM176.395 30.1065L176.433 28.3067L178.81 26.0523H180.572L178.289 28.3731L177.522 28.9982L176.395 30.1065ZM175.173 31.1484V24.12H176.651V31.1484H175.173ZM178.971 31.1484L177.247 29.0077L178.176 27.8615L180.762 31.1484H178.971ZM181.426 31.1484V26.0523H182.904V31.1484H181.426ZM182.165 25.3419C181.893 25.3419 181.672 25.263 181.502 25.1051C181.331 24.9472 181.246 24.7515 181.246 24.5178C181.246 24.2842 181.331 24.0884 181.502 23.9305C181.672 23.7727 181.893 23.6937 182.165 23.6937C182.436 23.6937 182.657 23.7695 182.828 23.9211C182.998 24.0663 183.084 24.2558 183.084 24.4894C183.084 24.7357 182.998 24.9409 182.828 25.1051C182.664 25.263 182.443 25.3419 182.165 25.3419ZM184.275 31.1484V24.12H185.753V31.1484H184.275ZM187.124 31.1484V24.12H188.602V31.1484H187.124ZM191.889 31.1484L194.844 24.5178H196.36L199.324 31.1484H197.714L195.289 25.2946H195.895L193.461 31.1484H191.889ZM193.366 29.7276L193.774 28.5625H197.184L197.6 29.7276H193.366Z" fill="#1A323C"/>
<path d="M171.128 230.645C170.598 230.645 170.09 230.575 169.603 230.437C169.117 230.291 168.726 230.105 168.429 229.878L168.95 228.722C169.234 228.924 169.569 229.091 169.954 229.224C170.345 229.35 170.74 229.414 171.138 229.414C171.441 229.414 171.684 229.385 171.867 229.328C172.057 229.265 172.196 229.18 172.284 229.073C172.373 228.965 172.417 228.842 172.417 228.703C172.417 228.526 172.347 228.387 172.208 228.286C172.069 228.179 171.886 228.094 171.659 228.031C171.432 227.961 171.179 227.898 170.901 227.841C170.63 227.778 170.355 227.702 170.077 227.614C169.806 227.525 169.556 227.412 169.329 227.273C169.101 227.134 168.915 226.951 168.77 226.723C168.631 226.496 168.561 226.206 168.561 225.852C168.561 225.473 168.663 225.129 168.865 224.819C169.073 224.504 169.382 224.254 169.793 224.071C170.21 223.882 170.731 223.787 171.356 223.787C171.773 223.787 172.183 223.837 172.587 223.939C172.991 224.033 173.348 224.178 173.658 224.374L173.184 225.539C172.875 225.363 172.565 225.233 172.256 225.151C171.946 225.063 171.643 225.018 171.346 225.018C171.05 225.018 170.806 225.053 170.617 225.123C170.428 225.192 170.292 225.284 170.21 225.397C170.128 225.505 170.087 225.631 170.087 225.776C170.087 225.947 170.156 226.086 170.295 226.193C170.434 226.294 170.617 226.376 170.844 226.439C171.072 226.502 171.321 226.566 171.593 226.629C171.87 226.692 172.145 226.764 172.417 226.847C172.695 226.929 172.947 227.039 173.174 227.178C173.402 227.317 173.585 227.5 173.724 227.727C173.869 227.955 173.942 228.242 173.942 228.589C173.942 228.962 173.838 229.303 173.629 229.612C173.421 229.922 173.108 230.171 172.691 230.361C172.281 230.55 171.76 230.645 171.128 230.645ZM176.108 229.489L176.146 227.69L178.523 225.435H180.285L178.002 227.756L177.235 228.381L176.108 229.489ZM174.886 230.531V223.503H176.364V230.531H174.886ZM178.684 230.531L176.961 228.391L177.889 227.244L180.475 230.531H178.684ZM181.139 230.531V225.435H182.617V230.531H181.139ZM181.878 224.725C181.607 224.725 181.386 224.646 181.215 224.488C181.045 224.33 180.959 224.134 180.959 223.901C180.959 223.667 181.045 223.471 181.215 223.313C181.386 223.155 181.607 223.077 181.878 223.077C182.15 223.077 182.371 223.152 182.541 223.304C182.712 223.449 182.797 223.639 182.797 223.872C182.797 224.119 182.712 224.324 182.541 224.488C182.377 224.646 182.156 224.725 181.878 224.725ZM183.988 230.531V223.503H185.466V230.531H183.988ZM186.837 230.531V223.503H188.315V230.531H186.837ZM192.473 230.531V223.901H195.486C196.205 223.901 196.84 224.04 197.389 224.317C197.939 224.589 198.368 224.971 198.678 225.464C198.987 225.956 199.142 226.54 199.142 227.216C199.142 227.885 198.987 228.469 198.678 228.968C198.368 229.461 197.939 229.846 197.389 230.124C196.84 230.395 196.205 230.531 195.486 230.531H192.473ZM194.008 229.271H195.41C195.852 229.271 196.234 229.189 196.556 229.025C196.884 228.855 197.137 228.615 197.314 228.305C197.497 227.996 197.588 227.633 197.588 227.216C197.588 226.793 197.497 226.43 197.314 226.127C197.137 225.817 196.884 225.58 196.556 225.416C196.234 225.246 195.852 225.16 195.41 225.16H194.008V229.271Z" fill="#1A323C"/>
<path d="M271.98 84.3715C271.45 84.3715 270.942 84.302 270.455 84.1631C269.969 84.0178 269.578 83.8316 269.281 83.6042L269.802 82.4486C270.086 82.6507 270.421 82.818 270.806 82.9506C271.197 83.0769 271.592 83.1401 271.99 83.1401C272.293 83.1401 272.536 83.1117 272.719 83.0548C272.909 82.9917 273.048 82.9064 273.136 82.7991C273.224 82.6917 273.269 82.5686 273.269 82.4297C273.269 82.2528 273.199 82.1139 273.06 82.0129C272.921 81.9055 272.738 81.8203 272.511 81.7571C272.284 81.6877 272.031 81.6245 271.753 81.5677C271.482 81.5045 271.207 81.4288 270.929 81.3403C270.657 81.2519 270.408 81.1383 270.181 80.9993C269.953 80.8604 269.767 80.6773 269.622 80.4499C269.483 80.2226 269.413 79.9321 269.413 79.5785C269.413 79.1996 269.514 78.8554 269.717 78.546C269.925 78.2303 270.234 77.9808 270.645 77.7977C271.062 77.6083 271.583 77.5135 272.208 77.5135C272.625 77.5135 273.035 77.5641 273.439 77.6651C273.843 77.7598 274.2 77.9051 274.51 78.1008L274.036 79.2659C273.727 79.0891 273.417 78.9596 273.108 78.8775C272.798 78.7891 272.495 78.7449 272.198 78.7449C271.902 78.7449 271.658 78.7797 271.469 78.8491C271.28 78.9186 271.144 79.0102 271.062 79.1238C270.98 79.2312 270.939 79.3575 270.939 79.5027C270.939 79.6732 271.008 79.8121 271.147 79.9195C271.286 80.0205 271.469 80.1026 271.696 80.1658C271.924 80.2289 272.173 80.2921 272.445 80.3552C272.722 80.4184 272.997 80.491 273.269 80.5731C273.547 80.6552 273.799 80.7657 274.026 80.9046C274.254 81.0435 274.437 81.2267 274.576 81.454C274.721 81.6813 274.794 81.9687 274.794 82.316C274.794 82.6886 274.69 83.0296 274.481 83.339C274.273 83.6484 273.96 83.8979 273.543 84.0873C273.133 84.2768 272.612 84.3715 271.98 84.3715ZM276.96 83.2159L276.998 81.4161L279.375 79.1617H281.137L278.854 81.4824L278.087 82.1076L276.96 83.2159ZM275.738 84.2578V77.2294H277.216V84.2578H275.738ZM279.536 84.2578L277.813 82.1171L278.741 80.9709L281.327 84.2578H279.536ZM281.991 84.2578V79.1617H283.469V84.2578H281.991ZM282.73 78.4513C282.459 78.4513 282.238 78.3724 282.067 78.2145C281.897 78.0566 281.811 77.8609 281.811 77.6272C281.811 77.3936 281.897 77.1978 282.067 77.0399C282.238 76.882 282.459 76.8031 282.73 76.8031C283.002 76.8031 283.223 76.8789 283.393 77.0304C283.564 77.1757 283.649 77.3651 283.649 77.5988C283.649 77.8451 283.564 78.0503 283.393 78.2145C283.229 78.3724 283.008 78.4513 282.73 78.4513ZM284.84 84.2578V77.2294H286.318V84.2578H284.84ZM287.689 84.2578V77.2294H289.167V84.2578H287.689ZM293.325 84.2578V77.6272H296.565C297.398 77.6272 298.024 77.7851 298.44 78.1008C298.863 78.4166 299.075 78.8333 299.075 79.3512C299.075 79.6985 298.99 80.0016 298.819 80.2605C298.649 80.5131 298.415 80.7089 298.118 80.8478C297.822 80.9867 297.48 81.0562 297.095 81.0562L297.275 80.6678C297.692 80.6678 298.061 80.7373 298.384 80.8762C298.706 81.0088 298.955 81.2077 299.132 81.473C299.315 81.7382 299.407 82.0634 299.407 82.4486C299.407 83.0169 299.182 83.4621 298.734 83.7842C298.286 84.0999 297.626 84.2578 296.754 84.2578H293.325ZM294.85 83.1022H296.641C297.038 83.1022 297.338 83.039 297.54 82.9127C297.749 82.7801 297.853 82.5717 297.853 82.2876C297.853 82.0097 297.749 81.8045 297.54 81.6719C297.338 81.5329 297.038 81.4635 296.641 81.4635H294.737V80.3458H296.375C296.748 80.3458 297.032 80.2826 297.228 80.1563C297.43 80.0237 297.531 79.8248 297.531 79.5596C297.531 79.3006 297.43 79.108 297.228 78.9817C297.032 78.8491 296.748 78.7828 296.375 78.7828H294.85V83.1022Z" fill="#1A323C"/>
<path d="M271.98 178.051C271.45 178.051 270.942 177.982 270.455 177.843C269.969 177.698 269.578 177.511 269.281 177.284L269.802 176.128C270.086 176.33 270.421 176.498 270.806 176.63C271.197 176.757 271.592 176.82 271.99 176.82C272.293 176.82 272.536 176.791 272.719 176.735C272.909 176.671 273.048 176.586 273.136 176.479C273.224 176.371 273.269 176.248 273.269 176.109C273.269 175.933 273.199 175.794 273.06 175.693C272.921 175.585 272.738 175.5 272.511 175.437C272.284 175.367 272.031 175.304 271.753 175.247C271.482 175.184 271.207 175.108 270.929 175.02C270.657 174.932 270.408 174.818 270.181 174.679C269.953 174.54 269.767 174.357 269.622 174.13C269.483 173.902 269.413 173.612 269.413 173.258C269.413 172.879 269.514 172.535 269.717 172.226C269.925 171.91 270.234 171.661 270.645 171.477C271.062 171.288 271.583 171.193 272.208 171.193C272.625 171.193 273.035 171.244 273.439 171.345C273.843 171.44 274.2 171.585 274.51 171.781L274.036 172.946C273.727 172.769 273.417 172.639 273.108 172.557C272.798 172.469 272.495 172.425 272.198 172.425C271.902 172.425 271.658 172.459 271.469 172.529C271.28 172.598 271.144 172.69 271.062 172.804C270.98 172.911 270.939 173.037 270.939 173.182C270.939 173.353 271.008 173.492 271.147 173.599C271.286 173.7 271.469 173.782 271.696 173.845C271.924 173.909 272.173 173.972 272.445 174.035C272.722 174.098 272.997 174.171 273.269 174.253C273.547 174.335 273.799 174.445 274.026 174.584C274.254 174.723 274.437 174.906 274.576 175.134C274.721 175.361 274.794 175.648 274.794 175.996C274.794 176.368 274.69 176.709 274.481 177.019C274.273 177.328 273.96 177.578 273.543 177.767C273.133 177.956 272.612 178.051 271.98 178.051ZM276.96 176.896L276.998 175.096L279.375 172.841H281.137L278.854 175.162L278.087 175.787L276.96 176.896ZM275.738 177.938V170.909H277.216V177.938H275.738ZM279.536 177.938L277.813 175.797L278.741 174.651L281.327 177.938H279.536ZM281.991 177.938V172.841H283.469V177.938H281.991ZM282.73 172.131C282.459 172.131 282.238 172.052 282.067 171.894C281.897 171.736 281.811 171.541 281.811 171.307C281.811 171.073 281.897 170.877 282.067 170.72C282.238 170.562 282.459 170.483 282.73 170.483C283.002 170.483 283.223 170.559 283.393 170.71C283.564 170.855 283.649 171.045 283.649 171.278C283.649 171.525 283.564 171.73 283.393 171.894C283.229 172.052 283.008 172.131 282.73 172.131ZM284.84 177.938V170.909H286.318V177.938H284.84ZM287.689 177.938V170.909H289.167V177.938H287.689ZM296.499 178.051C295.987 178.051 295.51 177.969 295.068 177.805C294.632 177.634 294.254 177.394 293.932 177.085C293.609 176.776 293.357 176.412 293.174 175.996C292.997 175.579 292.909 175.121 292.909 174.622C292.909 174.123 292.997 173.665 293.174 173.249C293.357 172.832 293.609 172.469 293.932 172.159C294.26 171.85 294.642 171.613 295.078 171.449C295.513 171.278 295.99 171.193 296.508 171.193C297.083 171.193 297.6 171.294 298.061 171.496C298.529 171.692 298.92 171.983 299.236 172.368L298.251 173.277C298.024 173.018 297.771 172.826 297.493 172.699C297.215 172.567 296.912 172.5 296.584 172.5C296.274 172.5 295.99 172.551 295.731 172.652C295.472 172.753 295.248 172.898 295.059 173.088C294.869 173.277 294.721 173.501 294.614 173.76C294.513 174.019 294.462 174.306 294.462 174.622C294.462 174.938 294.513 175.225 294.614 175.484C294.721 175.743 294.869 175.967 295.059 176.157C295.248 176.346 295.472 176.491 295.731 176.592C295.99 176.693 296.274 176.744 296.584 176.744C296.912 176.744 297.215 176.681 297.493 176.555C297.771 176.422 298.024 176.223 298.251 175.958L299.236 176.867C298.92 177.252 298.529 177.546 298.061 177.748C297.6 177.95 297.08 178.051 296.499 178.051Z" fill="#1A323C"/>
<path d="M72.0529 84.3715C71.5224 84.3715 71.0141 84.302 70.5278 84.1631C70.0416 84.0178 69.65 83.8316 69.3533 83.6042L69.8742 82.4486C70.1584 82.6507 70.4931 82.818 70.8783 82.9506C71.2698 83.0769 71.6645 83.1401 72.0623 83.1401C72.3654 83.1401 72.6086 83.1117 72.7917 83.0548C72.9811 82.9917 73.1201 82.9064 73.2085 82.7991C73.2969 82.6917 73.3411 82.5686 73.3411 82.4297C73.3411 82.2528 73.2716 82.1139 73.1327 82.0129C72.9938 81.9055 72.8106 81.8203 72.5833 81.7571C72.356 81.6877 72.1034 81.6245 71.8255 81.5677C71.554 81.5045 71.2793 81.4288 71.0014 81.3403C70.7299 81.2519 70.4805 81.1383 70.2531 80.9993C70.0258 80.8604 69.8395 80.6773 69.6943 80.4499C69.5553 80.2226 69.4859 79.9321 69.4859 79.5785C69.4859 79.1996 69.5869 78.8554 69.789 78.546C69.9974 78.2303 70.3068 77.9808 70.7173 77.7977C71.134 77.6083 71.655 77.5135 72.2802 77.5135C72.697 77.5135 73.1074 77.5641 73.5116 77.6651C73.9157 77.7598 74.2725 77.9051 74.582 78.1008L74.1083 79.2659C73.7989 79.0891 73.4895 78.9596 73.1801 78.8775C72.8706 78.7891 72.5675 78.7449 72.2707 78.7449C71.9739 78.7449 71.7308 78.7797 71.5414 78.8491C71.3519 78.9186 71.2161 79.0102 71.134 79.1238C71.0519 79.2312 71.0109 79.3575 71.0109 79.5027C71.0109 79.6732 71.0804 79.8121 71.2193 79.9195C71.3582 80.0205 71.5414 80.1026 71.7687 80.1658C71.996 80.2289 72.2455 80.2921 72.517 80.3552C72.7949 80.4184 73.0695 80.491 73.3411 80.5731C73.6189 80.6552 73.8715 80.7657 74.0989 80.9046C74.3262 81.0435 74.5093 81.2267 74.6483 81.454C74.7935 81.6813 74.8661 81.9687 74.8661 82.316C74.8661 82.6886 74.7619 83.0296 74.5535 83.339C74.3452 83.6484 74.0326 83.8979 73.6158 84.0873C73.2053 84.2768 72.6843 84.3715 72.0529 84.3715ZM77.0324 83.2159L77.0703 81.4161L79.4478 79.1617H81.2097L78.9269 81.4824L78.1596 82.1076L77.0324 83.2159ZM75.8105 84.2578V77.2294H77.2882V84.2578H75.8105ZM79.6089 84.2578L77.8849 82.1171L78.8132 80.9709L81.3991 84.2578H79.6089ZM82.0637 84.2578V79.1617H83.5413V84.2578H82.0637ZM82.8025 78.4513C82.531 78.4513 82.3099 78.3724 82.1394 78.2145C81.9689 78.0566 81.8837 77.8609 81.8837 77.6272C81.8837 77.3936 81.9689 77.1978 82.1394 77.0399C82.3099 76.882 82.531 76.8031 82.8025 76.8031C83.074 76.8031 83.2951 76.8789 83.4656 77.0304C83.6361 77.1757 83.7213 77.3651 83.7213 77.5988C83.7213 77.8451 83.6361 78.0503 83.4656 78.2145C83.3014 78.3724 83.0804 78.4513 82.8025 78.4513ZM84.9128 84.2578V77.2294H86.3904V84.2578H84.9128ZM87.7618 84.2578V77.2294H89.2395V84.2578H87.7618ZM94.8186 80.611H98.0013V81.8424H94.8186V80.611ZM94.9322 84.2578H93.3977V77.6272H98.4086V78.8586H94.9322V84.2578Z" fill="#1A323C"/>
<path d="M71.7476 178.051C71.2171 178.051 70.7088 177.982 70.2226 177.843C69.7363 177.698 69.3448 177.511 69.048 177.284L69.569 176.128C69.8531 176.33 70.1878 176.498 70.573 176.63C70.9646 176.757 71.3592 176.82 71.7571 176.82C72.0602 176.82 72.3033 176.791 72.4864 176.735C72.6759 176.671 72.8148 176.586 72.9032 176.479C72.9916 176.371 73.0358 176.248 73.0358 176.109C73.0358 175.933 72.9664 175.794 72.8274 175.693C72.6885 175.585 72.5054 175.5 72.278 175.437C72.0507 175.367 71.7981 175.304 71.5203 175.247C71.2487 175.184 70.974 175.108 70.6962 175.02C70.4246 174.932 70.1752 174.818 69.9479 174.679C69.7205 174.54 69.5342 174.357 69.389 174.13C69.2501 173.902 69.1806 173.612 69.1806 173.258C69.1806 172.879 69.2816 172.535 69.4837 172.226C69.6921 171.91 70.0015 171.661 70.412 171.477C70.8288 171.288 71.3498 171.193 71.9749 171.193C72.3917 171.193 72.8022 171.244 73.2063 171.345C73.6105 171.44 73.9673 171.585 74.2767 171.781L73.8031 172.946C73.4937 172.769 73.1842 172.639 72.8748 172.557C72.5654 172.469 72.2623 172.425 71.9655 172.425C71.6687 172.425 71.4255 172.459 71.2361 172.529C71.0466 172.598 70.9109 172.69 70.8288 172.804C70.7467 172.911 70.7056 173.037 70.7056 173.182C70.7056 173.353 70.7751 173.492 70.914 173.599C71.053 173.7 71.2361 173.782 71.4634 173.845C71.6908 173.909 71.9402 173.972 72.2117 174.035C72.4896 174.098 72.7643 174.171 73.0358 174.253C73.3137 174.335 73.5663 174.445 73.7936 174.584C74.0209 174.723 74.2041 174.906 74.343 175.134C74.4882 175.361 74.5609 175.648 74.5609 175.996C74.5609 176.368 74.4567 176.709 74.2483 177.019C74.0399 177.328 73.7273 177.578 73.3105 177.767C72.9001 177.956 72.3791 178.051 71.7476 178.051ZM76.7271 176.896L76.765 175.096L79.1426 172.841H80.9044L78.6216 175.162L77.8543 175.787L76.7271 176.896ZM75.5052 177.938V170.909H76.9829V177.938H75.5052ZM79.3036 177.938L77.5796 175.797L78.5079 174.651L81.0939 177.938H79.3036ZM81.7584 177.938V172.841H83.2361V177.938H81.7584ZM82.4972 172.131C82.2257 172.131 82.0047 172.052 81.8342 171.894C81.6637 171.736 81.5784 171.541 81.5784 171.307C81.5784 171.073 81.6637 170.877 81.8342 170.72C82.0047 170.562 82.2257 170.483 82.4972 170.483C82.7688 170.483 82.9898 170.559 83.1603 170.71C83.3308 170.855 83.4161 171.045 83.4161 171.278C83.4161 171.525 83.3308 171.73 83.1603 171.894C82.9961 172.052 82.7751 172.131 82.4972 172.131ZM84.6075 177.938V170.909H86.0852V177.938H84.6075ZM87.4566 177.938V170.909H88.9343V177.938H87.4566ZM94.5038 173.978H97.696V175.172H94.5038V173.978ZM94.6175 176.706H98.2264V177.938H93.0925V171.307H98.1033V172.538H94.6175V176.706Z" fill="#1A323C"/>
<g clip-path="url(#clip1_7514_18047)">
<path d="M112.734 168.824V86.7173L183.84 45.6641L254.948 86.7173V168.824L183.84 209.877L112.734 168.824Z" stroke="#7C7C7C" stroke-width="0.18658" stroke-miterlimit="10"/>
<path d="M183.84 52.7969L118.91 90.2845V165.26L183.84 202.748L248.772 165.26V90.2845L183.84 52.7969Z" stroke="#7C7C7C" stroke-width="0.18658" stroke-miterlimit="10"/>
<path d="M183.842 61.6172L126.551 94.6941V160.848L183.842 193.925L241.133 160.848V94.6941L183.842 61.6172Z" stroke="#7C7C7C" stroke-width="0.18658" stroke-miterlimit="10"/>
<path d="M183.838 70.4375L134.188 99.1037V156.436L183.838 185.104L233.491 156.436V99.1037L183.838 70.4375Z" stroke="#7C7C7C" stroke-width="0.18658" stroke-miterlimit="10"/>
<path d="M183.84 79.2578L141.828 103.515V152.028L183.84 176.283L225.854 152.028V103.515L183.84 79.2578Z" stroke="#7C7C7C" stroke-width="0.18658" stroke-miterlimit="10"/>
<path d="M183.838 88.0781L149.465 107.925V147.616L183.838 167.46L218.212 147.616V107.925L183.838 88.0781Z" stroke="#7C7C7C" stroke-width="0.18658" stroke-miterlimit="10"/>
<path d="M183.836 214.817V40.7266" stroke="#7C7C7C" stroke-width="0.587727" stroke-linecap="round" stroke-linejoin="round"/>
<path d="M186.222 38.0545C186.222 39.3699 185.155 40.4371 183.84 40.4371C182.524 40.4371 181.457 39.3699 181.457 38.0545C181.457 36.7391 182.524 35.6719 183.84 35.6719C185.155 35.6719 186.222 36.7391 186.222 38.0545Z" fill="#7C7C7C"/>
<path d="M186.222 217.492C186.222 218.807 185.155 219.875 183.84 219.875C182.524 219.875 181.457 218.807 181.457 217.492C181.457 216.177 182.524 215.109 183.84 215.109C185.155 215.109 186.222 216.177 186.222 217.492Z" fill="#7C7C7C"/>
<path d="M259.223 171.295L108.457 84.25" stroke="#7C7C7C" stroke-width="0.587727" stroke-linecap="round" stroke-linejoin="round"/>
<path d="M107.333 80.8501C108.473 81.5088 108.862 82.966 108.206 84.106C107.547 85.246 106.09 85.6359 104.95 84.9792C103.81 84.3205 103.42 82.8633 104.077 81.7233C104.735 80.5833 106.193 80.1934 107.333 80.8501Z" fill="#7C7C7C"/>
<path d="M262.731 170.561C263.871 171.22 264.261 172.677 263.604 173.817C262.946 174.957 261.488 175.347 260.348 174.69C259.208 174.031 258.818 172.574 259.475 171.434C260.134 170.294 261.591 169.904 262.731 170.561Z" fill="#7C7C7C"/>
<path d="M259.223 84.25L108.457 171.295" stroke="#7C7C7C" stroke-width="0.587727" stroke-linecap="round" stroke-linejoin="round"/>
<path d="M104.951 170.562C106.091 169.903 107.548 170.295 108.207 171.435C108.865 172.575 108.473 174.032 107.333 174.691C106.193 175.35 104.736 174.958 104.078 173.818C103.419 172.678 103.811 171.221 104.951 170.562Z" fill="#7C7C7C"/>
<path d="M260.345 80.851C261.485 80.1923 262.942 80.5842 263.601 81.7242C264.26 82.8642 263.868 84.3214 262.728 84.98C261.588 85.6386 260.131 85.2468 259.472 84.1068C258.813 82.9668 259.205 81.5096 260.345 80.851Z" fill="#7C7C7C"/>
<path opacity="0.5" d="M149.465 107.929L184.103 75.2734L241.13 94.6964L248.77 165.261L183.838 193.927L149.465 147.62V107.929Z" fill="url(#paint0_linear_7514_18047)"/>
<path d="M149.465 107.929L184.103 75.2734L241.13 94.6964L248.77 165.261L183.838 193.927L149.465 147.62V107.929Z" stroke="url(#paint1_linear_7514_18047)" stroke-width="0.37316" stroke-miterlimit="10"/>
<path opacity="0.5" d="M118.91 90.2834L183.84 61.6172L222.076 106.283L225.854 152.028L183.84 185.105L123.295 162.77L118.91 90.2834Z" fill="url(#paint2_linear_7514_18047)"/>
<path opacity="0.5" d="M118.91 90.2834L183.84 61.6172L222.076 106.283L225.854 152.028L183.84 185.105L123.295 162.77L118.91 90.2834Z" stroke="url(#paint3_linear_7514_18047)" stroke-width="0.37316" stroke-miterlimit="10"/>
<path opacity="0.35" d="M149.467 107.12L183.84 69.6328L225.854 103.518L218.214 146.812L183.84 201.942L141.828 151.222L149.467 107.12Z" fill="url(#paint4_linear_7514_18047)"/>
<path opacity="0.35" d="M149.467 107.12L183.84 69.6328L225.854 103.518L218.214 146.812L183.84 201.942L141.828 151.222L149.467 107.12Z" stroke="url(#paint5_linear_7514_18047)" stroke-width="0.18658" stroke-miterlimit="10"/>
</g>
<defs>
<linearGradient id="paint0_linear_7514_18047" x1="193.981" y1="128.249" x2="230.314" y2="159.79" gradientUnits="userSpaceOnUse">
<stop stop-color="#9AD6D0" stop-opacity="0"/>
<stop offset="0.47" stop-color="#9AD6D0"/>
<stop offset="1" stop-color="#8BD0CA"/>
</linearGradient>
<linearGradient id="paint1_linear_7514_18047" x1="149.278" y1="134.61" x2="248.97" y2="134.61" gradientUnits="userSpaceOnUse">
<stop stop-color="#9AD6D0" stop-opacity="0"/>
<stop offset="0.47" stop-color="#9AD6D0"/>
<stop offset="1" stop-color="#8BD0CA"/>
</linearGradient>
<linearGradient id="paint2_linear_7514_18047" x1="247.412" y1="75.7226" x2="129.198" y2="152.004" gradientUnits="userSpaceOnUse">
<stop stop-color="#CBE1F4" stop-opacity="0"/>
<stop offset="0.53" stop-color="#CBE1F4"/>
<stop offset="1" stop-color="#96BFE5"/>
</linearGradient>
<linearGradient id="paint3_linear_7514_18047" x1="118.716" y1="123.353" x2="226.048" y2="123.353" gradientUnits="userSpaceOnUse">
<stop stop-color="#CBE1F4" stop-opacity="0"/>
<stop offset="0.53" stop-color="#CBE1F4"/>
<stop offset="1" stop-color="#96BFE5"/>
</linearGradient>
<linearGradient id="paint4_linear_7514_18047" x1="183.84" y1="211.501" x2="183.84" y2="70.2168" gradientUnits="userSpaceOnUse">
<stop stop-color="#F9D3D5" stop-opacity="0"/>
<stop offset="0.19" stop-color="#F6B5B7" stop-opacity="0.42"/>
<stop offset="0.34" stop-color="#F59FA2" stop-opacity="0.73"/>
<stop offset="0.45" stop-color="#F49295" stop-opacity="0.93"/>
<stop offset="0.5" stop-color="#F48D90"/>
<stop offset="1" stop-color="#F48D90"/>
</linearGradient>
<linearGradient id="paint5_linear_7514_18047" x1="141.729" y1="135.803" x2="225.955" y2="135.803" gradientUnits="userSpaceOnUse">
<stop stop-color="#F9D3D5" stop-opacity="0"/>
<stop offset="0.19" stop-color="#F6B5B7" stop-opacity="0.42"/>
<stop offset="0.34" stop-color="#F59FA2" stop-opacity="0.73"/>
<stop offset="0.45" stop-color="#F49295" stop-opacity="0.93"/>
<stop offset="0.5" stop-color="#F48D90"/>
<stop offset="1" stop-color="#F48D90"/>
</linearGradient>
<clipPath id="clip0_7514_18047">
<rect x="318.598" y="206.602" width="43.2" height="43.2" rx="19.2" fill="white"/>
</clipPath>
<clipPath id="clip1_7514_18047">
<rect width="160.162" height="184.199" fill="white" transform="translate(103.758 35.6719)"/>
</clipPath>
</defs>
</svg>
