<svg width="436" height="400" viewBox="0 0 436 400" fill="none" xmlns="http://www.w3.org/2000/svg">
<path d="M72.25 239.832L110.873 217.506V134.586L72.25 156.912V239.832Z" fill="#CACCC3"/>
<path d="M72.2465 156.912L17.0618 125.008L17.0508 207.938L72.2465 239.831V156.912Z" fill="#E1E3D9"/>
<path d="M17.0625 125.006L72.2472 156.91L110.87 134.584L55.6852 102.68L17.0625 125.006Z" fill="#E1E3D9"/>
<path d="M66.7286 160.094L22.5743 134.586L21.5625 135.169V165.884L65.7168 191.403L66.7286 190.809V160.094Z" fill="#E6E6E6"/>
<path d="M48.4075 155.886L40.8963 151.548C39.9175 150.987 39.1367 151.24 39.1367 152.121C39.1367 153.002 39.9285 154.168 40.8963 154.741L48.4075 159.079C49.3862 159.64 50.1671 159.387 50.1671 158.506C50.1671 157.625 49.3752 156.458 48.3965 155.886H48.4075Z" fill="#E6E6E6"/>
<path d="M67.7364 198.964L23.5931 173.445V204.16L22.5703 204.755L66.7247 230.263L67.7364 229.679V198.964Z" fill="#CACCC3"/>
<path d="M66.7247 199.55L22.5703 174.031V204.757L66.7247 230.265V199.55Z" fill="#E1E3D9"/>
<path d="M49.4192 194.749L41.908 190.412C40.9293 189.85 40.1484 190.103 40.1484 190.984C40.1484 191.865 40.9402 193.032 41.908 193.604L49.4192 197.942C50.398 198.503 51.1788 198.25 51.1788 197.369C51.1788 196.489 50.387 195.322 49.4082 194.749H49.4192Z" fill="#F2F3EE"/>
<path d="M66.7247 160.093L22.5703 134.574V165.3L66.7247 190.808V160.093Z" fill="#CACCC3"/>
<path d="M0.5 149.756L24.6612 135.797L24.6722 162.857L0.5 176.816V149.756Z" fill="#E6E6E6"/>
<path d="M50.1617 195.177V156.91L40.693 151.417L39.1314 153.718L11.5391 137.766V172.851L50.1617 195.177Z" fill="#E1E3D9"/>
<path d="M50.1643 195.175L47.4149 161.686L8.78125 139.359L11.5416 172.849L50.1643 195.175Z" fill="#F2F3EE"/>
<path d="M44.6523 175.274L65.7123 163.098V190.158L44.6523 202.334V175.274Z" fill="#E1E3D9"/>
<path d="M44.6544 172.855L0.5 147.336V178.051L44.6544 203.57V172.855Z" fill="#E1E3D9"/>
<path d="M27.345 168.05L19.8338 163.712C18.855 163.151 18.0742 163.404 18.0742 164.285C18.0742 165.166 18.866 166.333 19.8338 166.905L27.345 171.243C28.3237 171.804 29.1046 171.551 29.1046 170.67C29.1046 169.789 28.3127 168.622 27.334 168.05H27.345Z" fill="#CACCC3"/>
<path d="M44.6562 172.852L46.1189 172.004V202.719L44.6562 203.567V172.852Z" fill="#CACCC3"/>
<path d="M46.117 172.003L1.97364 146.484L0.5 147.332L44.6543 172.851L46.117 172.003Z" fill="#F0F0F0"/>
<path d="M435.5 171.508V362.833L239.891 249.771V75.8398L385.353 159.904L390.367 145.417L435.5 171.508Z" fill="#1B323B"/>
<path d="M435.503 362.833L425.473 188.891L229.863 75.8398L239.893 249.771L435.503 362.833Z" fill="#E1E3D9"/>
<path d="M435.498 362.832L420.454 191.797L224.844 78.7344L239.888 249.77L435.498 362.832Z" fill="#2A5058"/>
<path d="M383.242 208.676V400.001L187.621 286.95V113.008L333.083 197.083L338.098 182.585L383.242 208.676Z" fill="#8DD4CE"/>
<path d="M312.196 333.164C313.318 332.515 314.22 330.874 314.22 329.498V90.8237C314.22 89.4476 313.252 87.7632 312.064 87.0807L162.346 0.539131C161.148 -0.154434 159.278 -0.187461 158.156 0.462069C157.035 1.1116 156.133 2.75194 156.133 4.12806V242.803C156.133 244.179 157.101 245.863 158.288 246.546L308.017 333.087C309.216 333.781 311.085 333.814 312.207 333.164H312.196Z" fill="#CACCC3"/>
<path d="M310.175 95.359L249.359 55.5285L253.417 53.1836L312.066 87.0802C313.265 87.7738 314.222 89.4471 314.222 90.8233V93.014L310.175 95.359Z" fill="#CACCC3"/>
<path d="M289.906 102.383L313.595 88.6875C313.99 89.3701 314.232 90.1297 314.232 90.8232V329.498C314.232 330.874 313.32 332.525 312.209 333.164C311.087 333.813 309.218 333.78 308.019 333.087L289.906 322.617V102.383Z" fill="#CACCC3"/>
<path d="M308.017 333.087L158.288 246.545C157.09 245.851 156.133 244.178 156.133 242.802V4.12746C156.133 2.75133 157.101 2.18988 158.299 2.88344L308.028 89.425C309.227 90.1185 310.184 91.7919 310.184 93.168V331.843C310.184 333.219 309.216 333.78 308.017 333.087Z" fill="#2A5058"/>
<path d="M297.749 148.291L261.799 127.517C259.412 126.141 257.477 127.121 257.477 129.708C257.477 132.295 259.412 135.51 261.799 136.897L297.749 157.671C300.135 159.047 302.071 158.067 302.071 155.48C302.071 152.893 300.135 149.679 297.749 148.291Z" fill="#F5F5F5"/>
<path d="M300.339 186.284L295.688 183.598C294.731 183.048 293.961 183.499 293.961 184.6V189.972C293.961 191.073 294.731 192.416 295.688 192.967L300.339 195.653C301.296 196.203 302.066 195.763 302.066 194.651V189.279C302.066 188.178 301.296 186.835 300.339 186.284Z" fill="#FAFAFA"/>
<path d="M287.749 181.352L259.64 165.103C258.441 164.41 257.484 164.905 257.484 166.193C257.484 167.481 258.452 169.099 259.64 169.782L287.749 186.031C288.948 186.725 289.905 186.229 289.905 184.941C289.905 183.642 288.937 182.035 287.749 181.352Z" fill="#F5F5F5"/>
<path d="M300.339 205.03L295.688 202.344C294.731 201.794 293.961 202.245 293.961 203.346V208.718C293.961 209.819 294.731 211.162 295.688 211.713L300.339 214.399C301.296 214.949 302.066 214.498 302.066 213.397V208.025C302.066 206.924 301.296 205.581 300.339 205.03Z" fill="#FAFAFA"/>
<path d="M287.749 200.087L259.64 183.838C258.441 183.144 257.484 183.639 257.484 184.927C257.484 186.215 258.452 187.834 259.64 188.516L287.749 204.766C288.948 205.459 289.905 204.964 289.905 203.676C289.905 202.377 288.937 200.769 287.749 200.087Z" fill="#F5F5F5"/>
<path d="M300.339 223.769L295.688 221.082C294.731 220.532 293.961 220.983 293.961 222.084V227.457C293.961 228.557 294.731 229.901 295.688 230.451L300.339 233.137C301.296 233.688 302.066 233.236 302.066 232.135V226.763C302.066 225.662 301.296 224.319 300.339 223.769Z" fill="#FAFAFA"/>
<path d="M287.749 218.837L259.64 202.588C258.441 201.894 257.484 202.389 257.484 203.677C257.484 204.965 258.452 206.584 259.64 207.266L287.749 223.516C288.948 224.209 289.905 223.714 289.905 222.426C289.905 221.127 288.937 219.519 287.749 218.837Z" fill="#F5F5F5"/>
<path d="M300.339 242.562L295.688 239.875C294.731 239.325 293.961 239.776 293.961 240.877V246.25C293.961 247.35 294.731 248.694 295.688 249.244L300.339 251.93C301.296 252.481 302.066 252.029 302.066 250.928V245.556C302.066 244.455 301.296 243.112 300.339 242.562Z" fill="#FAFAFA"/>
<path d="M287.749 237.63L259.64 221.38C258.441 220.687 257.484 221.182 257.484 222.47C257.484 223.758 258.452 225.377 259.64 226.059L287.749 242.309C288.948 243.002 289.905 242.507 289.905 241.219C289.905 239.92 288.937 238.312 287.749 237.63Z" fill="#F5F5F5"/>
<path d="M299.902 281.756L279.898 270.197C278.699 269.503 277.742 269.999 277.742 271.287C277.742 272.575 278.71 274.193 279.898 274.876L299.902 286.435C301.101 287.129 302.057 286.633 302.057 285.345C302.057 284.057 301.09 282.439 299.902 281.756Z" fill="#F5F5F5"/>
<path d="M299.904 291.122L259.632 267.849C258.433 267.156 257.477 267.651 257.477 268.939C257.477 270.238 258.444 271.845 259.632 272.528L299.904 295.801C301.103 296.495 302.06 295.999 302.06 294.711C302.06 293.412 301.092 291.805 299.904 291.122Z" fill="#F0F0F0"/>
<path d="M299.901 291.122L271.792 274.873C270.593 274.179 269.637 274.675 269.637 275.963C269.637 277.262 270.604 278.869 271.803 279.551L299.912 295.801C301.111 296.494 302.068 295.999 302.068 294.711C302.068 293.412 301.1 291.804 299.912 291.122H299.901Z" fill="#FAFAFA"/>
<path d="M299.902 300.491L279.898 288.931C278.699 288.238 277.742 288.733 277.742 290.021C277.742 291.309 278.71 292.928 279.898 293.61L299.902 305.169C301.101 305.863 302.057 305.368 302.057 304.08C302.057 302.792 301.09 301.173 299.902 300.491Z" fill="#F5F5F5"/>
<path d="M299.902 263.014L279.898 251.455C278.699 250.761 277.742 251.257 277.742 252.545C277.742 253.833 278.71 255.451 279.898 256.134L299.902 267.693C301.101 268.386 302.057 267.891 302.057 266.603C302.057 265.315 301.09 263.697 299.902 263.014Z" fill="#F5F5F5"/>
<path d="M299.904 272.396L259.632 249.123C258.433 248.429 257.477 248.925 257.477 250.213C257.477 251.512 258.444 253.119 259.632 253.801L299.904 277.074C301.103 277.768 302.06 277.273 302.06 275.985C302.06 274.685 301.092 273.078 299.904 272.396Z" fill="#F0F0F0"/>
<path d="M299.903 272.395L285.628 264.138C284.429 263.445 283.473 263.94 283.473 265.228C283.473 266.527 284.44 268.135 285.639 268.817L299.914 277.074C301.112 277.767 302.069 277.272 302.069 275.984C302.069 274.685 301.101 273.078 299.914 272.395H299.903Z" fill="#FAFAFA"/>
<path d="M299.904 309.86L259.632 286.588C258.433 285.894 257.477 286.389 257.477 287.677C257.477 288.976 258.444 290.584 259.632 291.266L299.904 314.539C301.103 315.233 302.06 314.737 302.06 313.449C302.06 312.15 301.092 310.543 299.904 309.86Z" fill="#F0F0F0"/>
<path d="M299.905 309.859L263.691 288.931C262.492 288.238 261.535 288.733 261.535 290.021C261.535 291.32 262.503 292.928 263.702 293.61L299.916 314.538C301.115 315.232 302.071 314.736 302.071 313.448C302.071 312.149 301.104 310.542 299.916 309.859H299.905Z" fill="#FAFAFA"/>
<path d="M158.288 2.88344L249.368 55.5284V299.201L158.288 246.556C157.09 245.862 156.133 244.189 156.133 242.813V4.12746C156.133 2.75133 157.101 2.18988 158.299 2.88344H158.288Z" fill="#E1E3D9"/>
<path d="M249.373 64.8976V83.6349L257.478 93.0145H249.373V111.752L164.242 62.5527V15.6875L249.373 64.8976Z" fill="#F2F3EE"/>
<path d="M238.242 65.5483L203.755 45.611C202.083 44.6422 200.73 45.4239 200.73 47.3615V47.3945C200.73 49.3211 202.083 51.677 203.755 52.6348L238.242 72.572C239.914 73.5408 241.267 72.7592 241.267 70.8216V70.7886C241.267 68.862 239.914 66.5061 238.242 65.5483Z" fill="#CACCC3"/>
<path d="M240.175 80.6745L173.422 42.088C172.828 41.7468 172.344 41.989 172.344 42.6385C172.344 43.288 172.828 44.0917 173.422 44.4329L240.175 83.0194C240.769 83.3607 241.253 83.1185 241.253 82.469C241.253 81.8194 240.769 81.0158 240.175 80.6745Z" fill="#CACCC3"/>
<path d="M240.175 87.6979L173.422 49.1115C172.828 48.7702 172.344 49.0124 172.344 49.6619C172.344 50.3114 172.828 51.1151 173.422 51.4564L240.175 90.0428C240.769 90.3841 241.253 90.1419 241.253 89.4924C241.253 88.8429 240.769 88.0392 240.175 87.6979Z" fill="#CACCC3"/>
<path d="M240.175 94.7331L173.422 56.1466C172.828 55.8053 172.344 56.0475 172.344 56.6971C172.344 57.3466 172.828 58.1503 173.422 58.4915L240.175 97.078C240.769 97.4193 241.253 97.1771 241.253 96.5275C241.253 95.878 240.769 95.0744 240.175 94.7331Z" fill="#CACCC3"/>
<path d="M237.675 114.386L233.023 111.7C232.067 111.149 231.297 111.6 231.297 112.701V118.074C231.297 119.175 232.067 120.518 233.023 121.068L237.675 123.754C238.632 124.305 239.402 123.853 239.402 122.753V117.38C239.402 116.279 238.632 114.936 237.675 114.386Z" fill="white"/>
<path d="M225.069 109.454L196.96 93.2047C195.761 92.5111 194.805 93.0065 194.805 94.2946C194.805 95.5826 195.772 97.2009 196.96 97.8835L225.069 114.133C226.268 114.826 227.225 114.331 227.225 113.043C227.225 111.755 226.257 110.136 225.069 109.454Z" fill="#E0E0E0"/>
<path d="M238.319 131.172L167.507 90.2404C166.914 89.8991 166.43 90.1413 166.43 90.7908C166.43 91.4404 166.914 92.244 167.507 92.5853L238.319 133.517C238.913 133.858 239.397 133.616 239.397 132.966C239.397 132.317 238.913 131.513 238.319 131.172Z" fill="#E0E0E0"/>
<path d="M238.319 138.195L167.507 97.2638C166.914 96.9225 166.43 97.1647 166.43 97.8143C166.43 98.4638 166.914 99.2675 167.507 99.6087L238.319 140.54C238.913 140.881 239.397 140.639 239.397 139.99C239.397 139.34 238.913 138.536 238.319 138.195Z" fill="#E0E0E0"/>
<path d="M238.319 145.23L167.507 104.299C166.914 103.958 166.43 104.2 166.43 104.849C166.43 105.499 166.914 106.303 167.507 106.644L238.319 147.575C238.913 147.917 239.397 147.674 239.397 147.025C239.397 146.375 238.913 145.572 238.319 145.23Z" fill="#E0E0E0"/>
<path d="M238.319 152.273L167.507 111.342C166.914 111.001 166.43 111.243 166.43 111.892C166.43 112.542 166.914 113.346 167.507 113.687L238.319 154.618C238.913 154.959 239.397 154.717 239.397 154.068C239.397 153.418 238.913 152.615 238.319 152.273Z" fill="#E0E0E0"/>
<path d="M237.675 165.931L233.023 163.245C232.067 162.694 231.297 163.134 231.297 164.246V169.619C231.297 170.72 232.067 172.063 233.023 172.613L237.675 175.299C238.632 175.85 239.402 175.398 239.402 174.298V168.925C239.402 167.824 238.632 166.481 237.675 165.931Z" fill="white"/>
<path d="M225.069 161.001L196.96 144.752C195.761 144.058 194.805 144.553 194.805 145.841C194.805 147.13 195.772 148.748 196.96 149.43L225.069 165.68C226.268 166.373 227.225 165.878 227.225 164.59C227.225 163.302 226.257 161.683 225.069 161.001Z" fill="#E0E0E0"/>
<path d="M238.319 182.719L167.507 141.787C166.914 141.446 166.43 141.688 166.43 142.338C166.43 142.987 166.914 143.791 167.507 144.132L238.319 185.064C238.913 185.405 239.397 185.163 239.397 184.513C239.397 183.864 238.913 183.06 238.319 182.719Z" fill="#E0E0E0"/>
<path d="M238.319 189.754L167.507 148.822C166.914 148.481 166.43 148.723 166.43 149.373C166.43 150.022 166.914 150.826 167.507 151.167L238.319 192.099C238.913 192.44 239.397 192.198 239.397 191.548C239.397 190.899 238.913 190.095 238.319 189.754Z" fill="#E0E0E0"/>
<path d="M238.319 196.777L167.507 155.846C166.914 155.505 166.43 155.747 166.43 156.396C166.43 157.046 166.914 157.849 167.507 158.191L238.319 199.122C238.913 199.463 239.397 199.221 239.397 198.572C239.397 197.922 238.913 197.118 238.319 196.777Z" fill="#E0E0E0"/>
<path d="M238.319 203.82L167.507 162.889C166.914 162.548 166.43 162.79 166.43 163.439C166.43 164.089 166.914 164.892 167.507 165.234L238.319 206.165C238.913 206.506 239.397 206.264 239.397 205.615C239.397 204.965 238.913 204.161 238.319 203.82Z" fill="#E0E0E0"/>
<path d="M231.054 214.103L226.402 211.416C225.446 210.866 224.676 211.306 224.676 212.418V217.791C224.676 218.891 225.446 220.235 226.402 220.785L231.054 223.471C232.011 224.022 232.781 223.57 232.781 222.469V217.097C232.781 215.996 232.011 214.653 231.054 214.103Z" fill="white"/>
<path d="M238.323 232.365L219.132 221.279C218.539 220.938 218.055 221.18 218.055 221.83C218.055 222.479 218.539 223.283 219.132 223.624L238.323 234.71C238.917 235.052 239.401 234.809 239.401 234.16C239.401 233.51 238.917 232.707 238.323 232.365Z" fill="#E0E0E0"/>
<path d="M205.242 199.179L200.59 196.493C199.633 195.942 198.863 196.393 198.863 197.494V202.867C198.863 203.968 199.633 205.311 200.59 205.861L205.242 208.547C206.199 209.098 206.968 208.657 206.968 207.546V202.173C206.968 201.072 206.199 199.729 205.242 199.179Z" fill="white"/>
<path d="M212.51 217.444L193.32 206.358C192.726 206.016 192.242 206.258 192.242 206.908C192.242 207.558 192.726 208.361 193.32 208.702L212.51 219.789C213.104 220.13 213.588 219.888 213.588 219.238C213.588 218.589 213.104 217.785 212.51 217.444Z" fill="#E0E0E0"/>
<path d="M179.429 184.249L174.777 181.563C173.821 181.012 173.051 181.464 173.051 182.565V187.937C173.051 189.038 173.821 190.381 174.777 190.931L179.429 193.618C180.386 194.168 181.156 193.717 181.156 192.616V187.243C181.156 186.143 180.386 184.799 179.429 184.249Z" fill="white"/>
<path d="M186.698 202.502L167.507 191.416C166.914 191.075 166.43 191.317 166.43 191.967C166.43 192.616 166.914 193.42 167.507 193.761L186.698 204.847C187.292 205.188 187.776 204.946 187.776 204.297C187.776 203.647 187.292 202.843 186.698 202.502Z" fill="#E0E0E0"/>
<path d="M238.323 236.936L219.132 225.85C218.539 225.508 218.055 225.751 218.055 226.4C218.055 227.05 218.539 227.853 219.132 228.195L238.323 239.281C238.917 239.622 239.401 239.38 239.401 238.73C239.401 238.081 238.917 237.277 238.323 236.936Z" fill="#E0E0E0"/>
<path d="M212.51 222.01L193.32 210.924C192.726 210.583 192.242 210.825 192.242 211.474C192.242 212.124 192.726 212.928 193.32 213.269L212.51 224.355C213.104 224.696 213.588 224.454 213.588 223.804C213.588 223.155 213.104 222.351 212.51 222.01Z" fill="#E0E0E0"/>
<path d="M186.698 207.084L167.507 195.998C166.914 195.657 166.43 195.899 166.43 196.549C166.43 197.198 166.914 198.002 167.507 198.343L186.698 209.429C187.292 209.77 187.776 209.528 187.776 208.879C187.776 208.229 187.292 207.426 186.698 207.084Z" fill="#E0E0E0"/>
<path d="M238.323 241.518L219.132 230.432C218.539 230.091 218.055 230.333 218.055 230.982C218.055 231.632 218.539 232.435 219.132 232.777L238.323 243.863C238.917 244.204 239.401 243.962 239.401 243.312C239.401 242.663 238.917 241.859 238.323 241.518Z" fill="#E0E0E0"/>
<path d="M212.51 226.592L193.32 215.506C192.726 215.165 192.242 215.407 192.242 216.056C192.242 216.706 192.726 217.51 193.32 217.851L212.51 228.937C213.104 229.278 213.588 229.036 213.588 228.386C213.588 227.737 213.104 226.933 212.51 226.592Z" fill="#E0E0E0"/>
<path d="M186.698 211.662L167.507 200.576C166.914 200.235 166.43 200.477 166.43 201.127C166.43 201.776 166.914 202.58 167.507 202.921L186.698 214.007C187.292 214.349 187.776 214.106 187.776 213.457C187.776 212.807 187.292 212.004 186.698 211.662Z" fill="#E0E0E0"/>
<path d="M231.054 252.581L226.402 249.895C225.446 249.344 224.676 249.796 224.676 250.897V256.269C224.676 257.37 225.446 258.713 226.402 259.264L231.054 261.95C232.011 262.5 232.781 262.049 232.781 260.948V255.576C232.781 254.475 232.011 253.132 231.054 252.581Z" fill="white"/>
<path d="M238.323 270.842L219.132 259.756C218.539 259.415 218.055 259.657 218.055 260.306C218.055 260.956 218.539 261.76 219.132 262.101L238.323 273.187C238.917 273.528 239.401 273.286 239.401 272.636C239.401 271.987 238.917 271.183 238.323 270.842Z" fill="#E0E0E0"/>
<path d="M205.242 237.655L200.59 234.969C199.633 234.419 198.863 234.87 198.863 235.971V241.343C198.863 242.444 199.633 243.787 200.59 244.338L205.242 247.024C206.199 247.574 206.968 247.123 206.968 246.022V240.65C206.968 239.549 206.199 238.206 205.242 237.655Z" fill="white"/>
<path d="M212.51 255.92L193.32 244.834C192.726 244.493 192.242 244.735 192.242 245.385C192.242 246.034 192.726 246.838 193.32 247.179L212.51 258.265C213.104 258.606 213.588 258.364 213.588 257.715C213.588 257.065 213.104 256.261 212.51 255.92Z" fill="#E0E0E0"/>
<path d="M179.429 222.726L174.777 220.039C173.821 219.489 173.051 219.94 173.051 221.041V226.414C173.051 227.515 173.821 228.858 174.777 229.408L179.429 232.094C180.386 232.645 181.156 232.193 181.156 231.092V225.72C181.156 224.619 180.386 223.276 179.429 222.726Z" fill="white"/>
<path d="M186.698 240.99L167.507 229.904C166.914 229.563 166.43 229.805 166.43 230.455C166.43 231.104 166.914 231.908 167.507 232.249L186.698 243.335C187.292 243.677 187.776 243.434 187.776 242.785C187.776 242.135 187.292 241.332 186.698 240.99Z" fill="#E0E0E0"/>
<path d="M238.323 275.428L219.132 264.342C218.539 264.001 218.055 264.243 218.055 264.892C218.055 265.542 218.539 266.346 219.132 266.687L238.323 277.773C238.917 278.114 239.401 277.872 239.401 277.222C239.401 276.573 238.917 275.769 238.323 275.428Z" fill="#E0E0E0"/>
<path d="M212.51 260.498L193.32 249.412C192.726 249.071 192.242 249.313 192.242 249.963C192.242 250.612 192.726 251.416 193.32 251.757L212.51 262.843C213.104 263.184 213.588 262.942 213.588 262.293C213.588 261.643 213.104 260.84 212.51 260.498Z" fill="#E0E0E0"/>
<path d="M186.698 245.569L167.507 234.483C166.914 234.141 166.43 234.383 166.43 235.033C166.43 235.683 166.914 236.486 167.507 236.827L186.698 247.914C187.292 248.255 187.776 248.013 187.776 247.363C187.776 246.714 187.292 245.91 186.698 245.569Z" fill="#E0E0E0"/>
<path d="M238.323 279.994L219.132 268.908C218.539 268.567 218.055 268.809 218.055 269.459C218.055 270.108 218.539 270.912 219.132 271.253L238.323 282.339C238.917 282.681 239.401 282.438 239.401 281.789C239.401 281.139 238.917 280.336 238.323 279.994Z" fill="#E0E0E0"/>
<path d="M212.51 265.069L193.32 253.983C192.726 253.641 192.242 253.883 192.242 254.533C192.242 255.183 192.726 255.986 193.32 256.327L212.51 267.414C213.104 267.755 213.588 267.513 213.588 266.863C213.588 266.214 213.104 265.41 212.51 265.069Z" fill="#E0E0E0"/>
<path d="M186.698 250.139L167.507 239.053C166.914 238.712 166.43 238.954 166.43 239.603C166.43 240.253 166.914 241.057 167.507 241.398L186.698 252.484C187.292 252.825 187.776 252.583 187.776 251.933C187.776 251.284 187.292 250.48 186.698 250.139Z" fill="#E0E0E0"/>
<path d="M281.8 83.7001C270.583 77.2158 261.488 82.4671 261.488 95.4466C261.488 108.426 270.583 124.191 281.8 130.675C293.018 137.16 302.112 131.908 302.112 118.929C302.112 105.949 293.018 90.1844 281.8 83.7001Z" fill="#FAFAFA"/>
<path d="M281.798 93.9081C278.158 91.8054 275.211 93.5118 275.211 97.7172C275.211 101.923 278.158 107.042 281.798 109.145C285.438 111.247 288.386 109.541 288.386 105.335C288.386 101.13 285.438 96.0108 281.798 93.9081Z" fill="#E0E0E0"/>
<path d="M268.957 116.341C268.957 109.428 273.807 106.62 279.789 110.077L283.528 112.235C289.511 115.692 294.361 124.103 294.361 131.016V132.877C290.908 134.022 286.553 133.405 281.813 130.664C276.941 127.846 272.465 123.277 268.968 117.938V116.33L268.957 116.341Z" fill="#E0E0E0"/>
<path d="M293.835 164.079L265.726 147.83C264.527 147.136 263.57 147.632 263.57 148.92C263.57 150.208 264.538 151.826 265.726 152.509L293.835 168.758C295.034 169.451 295.99 168.956 295.99 167.668C295.99 166.369 295.023 164.761 293.835 164.079Z" fill="#F5F5F5"/>
<path d="M383.242 400.001L347.5 245.093L151.891 132.031L187.621 286.95L383.242 400.001Z" fill="#D4F9F6"/>
<path opacity="0.1" d="M284.954 343.206V208.94L152.414 132.703L187.617 286.95L284.954 343.206Z" fill="black"/>
<path d="M251.25 362.692L284.956 343.206L222.184 307.195L251.25 362.692Z" fill="#E0E0E0"/>
<path d="M251.25 362.692C252.372 362.042 253.274 360.402 253.274 359.026V120.34C253.274 118.964 252.306 117.28 251.118 116.597L101.389 30.0665C100.191 29.3729 98.321 29.3399 97.1993 29.9894C96.0776 30.6389 95.1758 32.2793 95.1758 33.6554V272.33C95.1758 273.706 96.1436 275.39 97.3313 276.073L247.06 362.615C248.259 363.308 250.128 363.341 251.25 362.692Z" fill="#EBEBEB"/>
<path d="M249.229 124.875L188.414 85.0441L192.472 82.6992L251.121 116.596C252.32 117.289 253.276 118.963 253.276 120.339V122.53L249.229 124.875Z" fill="#455A64"/>
<path d="M228.961 131.91L252.649 118.215C253.045 118.897 253.287 119.657 253.287 120.351V359.025C253.287 360.401 252.374 362.053 251.264 362.691C250.153 363.33 248.272 363.308 247.074 362.614L228.961 352.145V131.91Z" fill="#0F2126"/>
<path d="M247.06 362.614L97.3313 276.072C96.1326 275.379 95.1758 273.705 95.1758 272.329V33.6548C95.1758 32.2787 96.1435 31.7172 97.3423 32.4108L247.071 118.952C248.27 119.646 249.227 121.319 249.227 122.695V361.37C249.227 362.746 248.259 363.307 247.06 362.614Z" fill="#1B323B"/>
<path d="M236.8 177.819L200.849 157.045C198.463 155.669 196.527 156.648 196.527 159.236C196.527 161.823 198.463 165.037 200.849 166.424L236.8 187.198C239.186 188.575 241.122 187.595 241.122 185.008C241.122 182.421 239.186 179.206 236.8 177.819Z" fill="#E0E0E0"/>
<path d="M239.382 215.796L234.73 213.11C233.774 212.559 233.004 213.011 233.004 214.112V219.484C233.004 220.585 233.774 221.928 234.73 222.478L239.382 225.165C240.339 225.715 241.109 225.264 241.109 224.163V218.79C241.109 217.689 240.339 216.346 239.382 215.796Z" fill="#8DD4CE"/>
<path d="M226.792 210.868L198.683 194.619C197.484 193.925 196.527 194.421 196.527 195.709C196.527 196.997 197.495 198.615 198.683 199.298L226.792 215.547C227.991 216.24 228.948 215.745 228.948 214.457C228.948 213.158 227.98 211.551 226.792 210.868Z" fill="#E0E0E0"/>
<path d="M239.382 234.546L234.73 231.86C233.774 231.309 233.004 231.761 233.004 232.862V238.234C233.004 239.335 233.774 240.678 234.73 241.228L239.382 243.915C240.339 244.465 241.109 244.025 241.109 242.913V237.54C241.109 236.439 240.339 235.096 239.382 234.546Z" fill="#8DD4CE"/>
<path d="M226.792 229.618L198.683 213.369C197.484 212.675 196.527 213.171 196.527 214.459C196.527 215.747 197.495 217.365 198.683 218.048L226.792 234.297C227.991 234.99 228.948 234.495 228.948 233.207C228.948 231.908 227.98 230.301 226.792 229.618Z" fill="#E0E0E0"/>
<path d="M239.382 253.296L234.73 250.61C233.774 250.059 233.004 250.511 233.004 251.612V256.984C233.004 258.085 233.774 259.428 234.73 259.978L239.382 262.665C240.339 263.215 241.109 262.764 241.109 261.663V256.29C241.109 255.189 240.339 253.846 239.382 253.296Z" fill="#8DD4CE"/>
<path d="M226.792 248.352L198.683 232.103C197.484 231.41 196.527 231.905 196.527 233.193C196.527 234.481 197.495 236.099 198.683 236.782L226.792 253.031C227.991 253.725 228.948 253.229 228.948 251.941C228.948 250.642 227.98 249.035 226.792 248.352Z" fill="#E0E0E0"/>
<path d="M239.382 272.085L234.73 269.399C233.774 268.848 233.004 269.3 233.004 270.401V275.773C233.004 276.874 233.774 278.217 234.73 278.767L239.382 281.454C240.339 282.004 241.109 281.553 241.109 280.452V275.079C241.109 273.979 240.339 272.635 239.382 272.085Z" fill="#8DD4CE"/>
<path d="M226.792 267.145L198.683 250.896C197.484 250.203 196.527 250.698 196.527 251.986C196.527 253.274 197.495 254.892 198.683 255.575L226.792 271.824C227.991 272.518 228.948 272.022 228.948 270.734C228.948 269.435 227.98 267.828 226.792 267.145Z" fill="#E0E0E0"/>
<path d="M238.957 311.28L218.952 299.72C217.754 299.027 216.797 299.522 216.797 300.81C216.797 302.098 217.765 303.717 218.952 304.399L238.957 315.959C240.155 316.652 241.112 316.157 241.112 314.869C241.112 313.581 240.144 311.962 238.957 311.28Z" fill="#E0E0E0"/>
<path d="M238.955 320.65L198.683 297.377C197.484 296.683 196.527 297.178 196.527 298.466C196.527 299.766 197.495 301.373 198.683 302.055L238.955 325.328C240.154 326.022 241.111 325.527 241.111 324.238C241.111 322.939 240.143 321.332 238.955 320.65Z" fill="#FAFAFA"/>
<path d="M238.952 320.649L210.843 304.4C209.644 303.706 208.688 304.202 208.688 305.49C208.688 306.789 209.655 308.396 210.854 309.079L238.963 325.328C240.162 326.022 241.119 325.526 241.119 324.238C241.119 322.939 240.151 321.332 238.963 320.649H238.952Z" fill="#8DD4CE"/>
<path d="M238.957 292.541L218.952 280.982C217.754 280.288 216.797 280.784 216.797 282.072C216.797 283.36 217.765 284.978 218.952 285.661L238.957 297.22C240.155 297.914 241.112 297.418 241.112 296.13C241.112 294.842 240.144 293.224 238.957 292.541Z" fill="#E0E0E0"/>
<path d="M238.955 301.911L198.683 278.638C197.484 277.945 196.527 278.44 196.527 279.728C196.527 281.027 197.495 282.635 198.683 283.317L238.955 306.59C240.154 307.284 241.111 306.788 241.111 305.5C241.111 304.201 240.143 302.594 238.955 301.911Z" fill="#FAFAFA"/>
<path d="M238.953 301.911L224.679 293.654C223.48 292.96 222.523 293.456 222.523 294.744C222.523 296.043 223.491 297.65 224.69 298.333L238.964 306.589C240.163 307.283 241.12 306.788 241.12 305.5C241.12 304.201 240.152 302.593 238.964 301.911H238.953Z" fill="#8DD4CE"/>
<path d="M97.343 32.3998L188.423 85.0447V328.717L97.343 276.072C96.1443 275.379 95.1875 273.705 95.1875 272.329V33.6548C95.1875 32.2787 96.1553 31.7172 97.354 32.4108L97.343 32.3998Z" fill="#E1E3D9"/>
<path d="M188.423 94.4139V113.162L196.528 122.531H188.423V141.279L103.281 92.069V45.2148L188.423 94.4139Z" fill="#8DD4CE"/>
<path d="M177.281 95.0756L142.794 75.1384C141.122 74.1696 139.77 74.9512 139.77 76.8888V76.9218C139.77 78.8484 141.122 81.2043 142.794 82.1621L177.281 102.099C178.953 103.068 180.306 102.287 180.306 100.349V100.316C180.306 98.3893 178.953 96.0334 177.281 95.0756Z" fill="#FAFAFA"/>
<path d="M179.23 110.186L112.476 71.5998C111.882 71.2585 111.398 71.5007 111.398 72.1502C111.398 72.7997 111.882 73.6034 112.476 73.9447L179.23 112.531C179.824 112.872 180.308 112.63 180.308 111.981C180.308 111.331 179.824 110.527 179.23 110.186Z" fill="#FAFAFA"/>
<path d="M179.23 117.225L112.476 78.6388C111.882 78.2975 111.398 78.5397 111.398 79.1893C111.398 79.8388 111.882 80.6424 112.476 80.9837L179.23 119.57C179.824 119.911 180.308 119.669 180.308 119.02C180.308 118.37 179.824 117.567 179.23 117.225Z" fill="#FAFAFA"/>
<path d="M179.23 124.249L112.476 85.6623C111.882 85.321 111.398 85.5632 111.398 86.2127C111.398 86.8622 111.882 87.6659 112.476 88.0072L179.23 126.594C179.824 126.935 180.308 126.693 180.308 126.043C180.308 125.394 179.824 124.59 179.23 124.249Z" fill="#FAFAFA"/>
<path d="M176.707 143.913L172.055 141.227C171.098 140.676 170.328 141.128 170.328 142.229V147.601C170.328 148.702 171.098 150.045 172.055 150.596L176.707 153.282C177.663 153.832 178.433 153.381 178.433 152.28V146.908C178.433 145.807 177.663 144.464 176.707 143.913Z" fill="#8DD4CE"/>
<path d="M164.116 138.97L136.007 122.72C134.808 122.027 133.852 122.522 133.852 123.81C133.852 125.098 134.819 126.717 136.007 127.399L164.116 143.648C165.315 144.342 166.272 143.847 166.272 142.558C166.272 141.27 165.304 139.652 164.116 138.97Z" fill="#8DD4CE"/>
<path d="M177.358 160.687L106.546 119.756C105.953 119.415 105.469 119.657 105.469 120.306C105.469 120.956 105.953 121.76 106.546 122.101L177.358 163.032C177.952 163.374 178.436 163.131 178.436 162.482C178.436 161.832 177.952 161.029 177.358 160.687Z" fill="#455A64"/>
<path d="M177.358 167.723L106.546 126.791C105.953 126.45 105.469 126.692 105.469 127.342C105.469 127.991 105.953 128.795 106.546 129.136L177.358 170.067C177.952 170.409 178.436 170.167 178.436 169.517C178.436 168.867 177.952 168.064 177.358 167.723Z" fill="#455A64"/>
<path d="M177.358 174.746L106.546 133.815C105.953 133.473 105.469 133.716 105.469 134.365C105.469 135.015 105.953 135.818 106.546 136.16L177.358 177.091C177.952 177.432 178.436 177.19 178.436 176.54C178.436 175.891 177.952 175.087 177.358 174.746Z" fill="#455A64"/>
<path d="M177.358 181.805L106.546 140.873C105.953 140.532 105.469 140.774 105.469 141.424C105.469 142.073 105.953 142.877 106.546 143.218L177.358 184.149C177.952 184.491 178.436 184.249 178.436 183.599C178.436 182.949 177.952 182.146 177.358 181.805Z" fill="#455A64"/>
<path d="M176.707 195.456L172.055 192.77C171.098 192.219 170.328 192.671 170.328 193.772V199.144C170.328 200.245 171.098 201.588 172.055 202.139L176.707 204.825C177.663 205.375 178.433 204.924 178.433 203.823V198.451C178.433 197.35 177.663 196.007 176.707 195.456Z" fill="#8DD4CE"/>
<path d="M164.116 190.524L136.007 174.275C134.808 173.581 133.852 174.077 133.852 175.365C133.852 176.653 134.819 178.271 136.007 178.954L164.116 195.203C165.315 195.897 166.272 195.401 166.272 194.113C166.272 192.825 165.304 191.207 164.116 190.524Z" fill="#8DD4CE"/>
<path d="M177.358 212.242L106.546 171.311C105.953 170.969 105.469 171.212 105.469 171.861C105.469 172.511 105.953 173.314 106.546 173.656L177.358 214.587C177.952 214.928 178.436 214.686 178.436 214.037C178.436 213.387 177.952 212.583 177.358 212.242Z" fill="#455A64"/>
<path d="M177.358 219.265L106.546 178.334C105.953 177.993 105.469 178.235 105.469 178.885C105.469 179.534 105.953 180.338 106.546 180.679L177.358 221.61C177.952 221.952 178.436 221.709 178.436 221.06C178.436 220.41 177.952 219.607 177.358 219.265Z" fill="#455A64"/>
<path d="M177.358 226.289L106.546 185.358C105.953 185.016 105.469 185.258 105.469 185.908C105.469 186.558 105.953 187.361 106.546 187.702L177.358 228.634C177.952 228.975 178.436 228.733 178.436 228.083C178.436 227.434 177.952 226.63 177.358 226.289Z" fill="#455A64"/>
<path d="M177.358 233.344L106.546 192.412C105.953 192.071 105.469 192.313 105.469 192.963C105.469 193.612 105.953 194.416 106.546 194.757L177.358 235.689C177.952 236.03 178.436 235.788 178.436 235.138C178.436 234.489 177.952 233.685 177.358 233.344Z" fill="#455A64"/>
<path d="M170.093 243.616L165.441 240.93C164.485 240.38 163.715 240.831 163.715 241.932V247.304C163.715 248.405 164.485 249.748 165.441 250.299L170.093 252.985C171.05 253.535 171.82 253.084 171.82 251.983V246.611C171.82 245.51 171.05 244.167 170.093 243.616Z" fill="#8DD4CE"/>
<path d="M177.362 261.881L158.171 250.795C157.578 250.454 157.094 250.696 157.094 251.346C157.094 251.995 157.578 252.799 158.171 253.14L177.362 264.226C177.956 264.567 178.44 264.325 178.44 263.676C178.44 263.026 177.956 262.222 177.362 261.881Z" fill="#455A64"/>
<path d="M144.281 228.69L139.629 226.004C138.672 225.454 137.902 225.905 137.902 227.006V232.378C137.902 233.479 138.672 234.822 139.629 235.373L144.281 238.059C145.238 238.61 146.007 238.169 146.007 237.057V231.685C146.007 230.584 145.238 229.241 144.281 228.69Z" fill="#8DD4CE"/>
<path d="M151.549 246.951L132.359 235.865C131.765 235.524 131.281 235.766 131.281 236.416C131.281 237.065 131.765 237.869 132.359 238.21L151.549 249.296C152.143 249.638 152.627 249.395 152.627 248.746C152.627 248.096 152.143 247.293 151.549 246.951Z" fill="#455A64"/>
<path d="M118.468 213.765L113.816 211.078C112.86 210.528 112.09 210.979 112.09 212.08V217.453C112.09 218.554 112.86 219.897 113.816 220.447L118.468 223.133C119.425 223.684 120.195 223.232 120.195 222.131V216.759C120.195 215.658 119.425 214.315 118.468 213.765Z" fill="#8DD4CE"/>
<path d="M125.737 232.03L106.546 220.944C105.953 220.602 105.469 220.844 105.469 221.494C105.469 222.143 105.953 222.947 106.546 223.288L125.737 234.374C126.331 234.716 126.815 234.474 126.815 233.824C126.815 233.174 126.331 232.371 125.737 232.03Z" fill="#455A64"/>
<path d="M177.362 266.467L158.171 255.381C157.578 255.04 157.094 255.282 157.094 255.931C157.094 256.581 157.578 257.385 158.171 257.726L177.362 268.812C177.956 269.153 178.44 268.911 178.44 268.261C178.44 267.612 177.956 266.808 177.362 266.467Z" fill="#455A64"/>
<path d="M151.549 251.537L132.359 240.451C131.765 240.11 131.281 240.352 131.281 241.002C131.281 241.651 131.765 242.455 132.359 242.796L151.549 253.882C152.143 254.224 152.627 253.981 152.627 253.332C152.627 252.682 152.143 251.879 151.549 251.537Z" fill="#455A64"/>
<path d="M125.737 236.608L106.546 225.522C105.953 225.18 105.469 225.423 105.469 226.072C105.469 226.722 105.953 227.525 106.546 227.867L125.737 238.953C126.331 239.294 126.815 239.052 126.815 238.402C126.815 237.753 126.331 236.949 125.737 236.608Z" fill="#455A64"/>
<path d="M177.362 271.033L158.171 259.947C157.578 259.606 157.094 259.848 157.094 260.498C157.094 261.147 157.578 261.951 158.171 262.292L177.362 273.378C177.956 273.72 178.44 273.477 178.44 272.828C178.44 272.178 177.956 271.375 177.362 271.033Z" fill="#455A64"/>
<path d="M151.549 256.108L132.359 245.022C131.765 244.68 131.281 244.923 131.281 245.572C131.281 246.222 131.765 247.025 132.359 247.367L151.549 258.453C152.143 258.794 152.627 258.552 152.627 257.902C152.627 257.253 152.143 256.449 151.549 256.108Z" fill="#455A64"/>
<path d="M125.737 241.178L106.546 230.092C105.953 229.751 105.469 229.993 105.469 230.642C105.469 231.292 105.953 232.096 106.546 232.437L125.737 243.523C126.331 243.864 126.815 243.622 126.815 242.972C126.815 242.323 126.331 241.519 125.737 241.178Z" fill="#455A64"/>
<path d="M170.093 282.108L165.441 279.422C164.485 278.872 163.715 279.323 163.715 280.424V285.796C163.715 286.897 164.485 288.24 165.441 288.791L170.093 291.477C171.05 292.028 171.82 291.576 171.82 290.475V285.103C171.82 284.002 171.05 282.659 170.093 282.108Z" fill="#8DD4CE"/>
<path d="M177.362 300.373L158.171 289.287C157.578 288.946 157.094 289.188 157.094 289.838C157.094 290.487 157.578 291.291 158.171 291.632L177.362 302.718C177.956 303.059 178.44 302.817 178.44 302.168C178.44 301.518 177.956 300.715 177.362 300.373Z" fill="#1B323B"/>
<path d="M144.281 267.175L139.629 264.489C138.672 263.938 137.902 264.39 137.902 265.49V270.863C137.902 271.964 138.672 273.307 139.629 273.857L144.281 276.543C145.238 277.094 146.007 276.643 146.007 275.542V270.169C146.007 269.068 145.238 267.725 144.281 267.175Z" fill="#8DD4CE"/>
<path d="M151.549 285.428L132.359 274.342C131.765 274.001 131.281 274.243 131.281 274.892C131.281 275.542 131.765 276.346 132.359 276.687L151.549 287.773C152.143 288.114 152.627 287.872 152.627 287.222C152.627 286.573 152.143 285.769 151.549 285.428Z" fill="#1B323B"/>
<path d="M118.468 252.249L113.816 249.563C112.86 249.012 112.09 249.464 112.09 250.565V255.937C112.09 257.038 112.86 258.381 113.816 258.931L118.468 261.618C119.425 262.168 120.195 261.717 120.195 260.616V255.243C120.195 254.143 119.425 252.799 118.468 252.249Z" fill="#8DD4CE"/>
<path d="M125.737 270.502L106.546 259.416C105.953 259.075 105.469 259.317 105.469 259.967C105.469 260.616 105.953 261.42 106.546 261.761L125.737 272.847C126.331 273.188 126.815 272.946 126.815 272.297C126.815 271.647 126.331 270.843 125.737 270.502Z" fill="#1B323B"/>
<path d="M177.362 304.936L158.171 293.85C157.578 293.508 157.094 293.751 157.094 294.4C157.094 295.05 157.578 295.853 158.171 296.195L177.362 307.281C177.956 307.622 178.44 307.38 178.44 306.73C178.44 306.081 177.956 305.277 177.362 304.936Z" fill="#1B323B"/>
<path d="M151.549 290.01L132.359 278.924C131.765 278.583 131.281 278.825 131.281 279.474C131.281 280.124 131.765 280.928 132.359 281.269L151.549 292.355C152.143 292.696 152.627 292.454 152.627 291.804C152.627 291.155 152.143 290.351 151.549 290.01Z" fill="#1B323B"/>
<path d="M125.737 275.084L106.546 263.998C105.953 263.657 105.469 263.899 105.469 264.549C105.469 265.198 105.953 266.002 106.546 266.343L125.737 277.429C126.331 277.77 126.815 277.528 126.815 276.879C126.815 276.229 126.331 275.425 125.737 275.084Z" fill="#1B323B"/>
<path d="M177.362 309.518L158.171 298.432C157.578 298.091 157.094 298.333 157.094 298.982C157.094 299.632 157.578 300.435 158.171 300.777L177.362 311.863C177.956 312.204 178.44 311.962 178.44 311.312C178.44 310.663 177.956 309.859 177.362 309.518Z" fill="#1B323B"/>
<path d="M151.549 294.592L132.359 283.506C131.765 283.165 131.281 283.407 131.281 284.056C131.281 284.706 131.765 285.51 132.359 285.851L151.549 296.937C152.143 297.278 152.627 297.036 152.627 296.387C152.627 295.737 152.143 294.933 151.549 294.592Z" fill="#1B323B"/>
<path d="M125.737 279.662L106.546 268.576C105.953 268.235 105.469 268.477 105.469 269.127C105.469 269.776 105.953 270.58 106.546 270.921L125.737 282.007C126.331 282.349 126.815 282.106 126.815 281.457C126.815 280.807 126.331 280.004 125.737 279.662Z" fill="#1B323B"/>
<path d="M220.843 113.216C209.626 106.731 200.531 111.983 200.531 124.962C200.531 137.942 209.626 153.707 220.843 160.191C232.061 166.675 241.155 161.424 241.155 148.444C241.155 135.465 232.061 119.7 220.843 113.216Z" fill="#E0E0E0"/>
<path d="M220.841 123.432C217.201 121.329 214.254 123.035 214.254 127.241C214.254 131.446 217.201 136.565 220.841 138.668C224.481 140.771 227.429 139.064 227.429 134.859C227.429 130.653 224.481 125.534 220.841 123.432Z" fill="#FAFAFA"/>
<path d="M208 145.869C208 138.955 212.85 136.148 218.832 139.605L222.571 141.762C228.554 145.219 233.404 153.63 233.404 160.544V162.404C229.951 163.549 225.596 162.933 220.856 160.191C215.984 157.373 211.508 152.804 208.011 147.465V145.858L208 145.869Z" fill="#FAFAFA"/>
<path d="M232.874 193.595L204.765 177.345C203.566 176.652 202.609 177.147 202.609 178.435C202.609 179.723 203.577 181.342 204.765 182.024L232.874 198.273C234.073 198.967 235.03 198.472 235.03 197.183C235.03 195.884 234.062 194.277 232.874 193.595Z" fill="#E0E0E0"/>
</svg>
