<svg width="170" height="148" viewBox="0 0 170 148" fill="none" xmlns="http://www.w3.org/2000/svg">
<path d="M98.6916 3.10156H30.3271C15.4568 3.10156 3.40234 15.135 3.40234 29.9786V57.1017C3.40234 66.9341 8.69482 75.5283 16.5886 80.213C17.6106 80.8196 18.24 81.9145 18.24 83.1013V97.7713C18.24 99.5671 20.4152 100.467 21.6874 99.1967L35.9464 84.963C36.5775 84.333 37.4337 83.9791 38.3263 83.9791H98.6923C113.563 83.9791 125.617 71.9457 125.617 57.1021V29.9789C125.616 15.135 113.562 3.10156 98.6916 3.10156Z" fill="url(#paint0_linear_7405_27840)"/>
<path d="M140.431 45.5703H71.7295C56.8591 45.5703 44.8047 57.6037 44.8047 72.4473V99.5705C44.8047 114.414 56.8595 126.448 71.7295 126.448H129.881C130.774 126.448 131.63 126.801 132.261 127.431L149.342 144.482C150.615 145.752 152.79 144.853 152.79 143.057V125.406C152.79 124.241 153.391 123.154 154.389 122.549C162.161 117.836 167.355 109.311 167.355 99.5702V72.447C167.355 57.6034 155.301 45.5703 140.431 45.5703Z" fill="url(#paint1_linear_7405_27840)"/>
<path d="M65.1709 97.2948H64.9491C61.8276 97.2948 59.2969 94.7685 59.2969 91.6525V82.3454C59.2969 79.2293 61.8276 76.7031 64.9491 76.7031H65.1709C68.2925 76.7031 70.8232 79.2293 70.8232 82.3454V91.6525C70.8232 94.7685 68.2925 97.2948 65.1709 97.2948Z" fill="url(#paint2_linear_7405_27840)"/>
<path d="M106.19 97.2948H105.969C102.847 97.2948 100.316 94.7685 100.316 91.6525V82.3454C100.316 79.2293 102.847 76.7031 105.969 76.7031H106.19C109.312 76.7031 111.843 79.2293 111.843 82.3454V91.6525C111.843 94.7685 109.312 97.2948 106.19 97.2948Z" fill="url(#paint3_linear_7405_27840)"/>
<path d="M91.7017 111.477C94.9779 111.477 97.6339 109.394 97.6339 106.824C97.6339 104.255 94.9779 102.172 91.7017 102.172C88.4255 102.172 85.7695 104.255 85.7695 106.824C85.7695 109.394 88.4255 111.477 91.7017 111.477Z" fill="url(#paint4_linear_7405_27840)"/>
<path d="M140.43 43.048H128.141V29.9787C128.141 22.4893 125.318 15.3548 120.193 9.89019C119.24 8.87404 117.642 8.82198 116.625 9.77322C115.607 10.7245 115.555 12.3189 116.508 13.3344C120.754 17.8619 123.093 23.773 123.093 29.9787V43.048H71.7289C55.4907 43.048 42.2799 56.2356 42.2799 72.445V81.4593H38.3263C36.7534 81.4593 35.2744 82.0708 34.1617 83.1812L20.7645 96.5546V83.1014C20.7645 81.0405 19.659 79.1037 17.8789 78.0473C10.507 73.672 5.92712 65.6462 5.92712 57.1022V29.9787C5.92712 16.5479 16.8732 5.62129 30.3278 5.62129H98.6923C101.846 5.62129 104.913 6.21207 107.809 7.37781C109.102 7.89742 110.573 7.27336 111.094 5.98307C111.616 4.69245 110.99 3.22423 109.697 2.70396C106.199 1.29571 102.496 0.582031 98.6923 0.582031H30.3278C14.0896 0.582031 0.878906 13.7693 0.878906 29.9787V57.1022C0.878906 67.4146 6.40441 77.1001 15.299 82.3789C15.5565 82.5317 15.7162 82.8085 15.7162 83.1018V97.7714C15.7162 99.6123 16.8171 101.257 18.5209 101.962C19.658 102.507 21.9798 102.428 23.4724 100.979L37.7311 86.745C37.8902 86.5862 38.1015 86.4988 38.3263 86.4988H42.2799V99.5681C42.2799 103.536 43.0589 107.386 44.5951 111.012C45.1381 112.293 46.6192 112.892 47.9032 112.351C49.1872 111.809 49.7876 110.33 49.2449 109.049C47.9735 106.048 47.3285 102.858 47.3285 99.5685V72.4453C47.3285 59.0142 58.2745 48.0876 71.7292 48.0876H140.43C153.885 48.0876 164.831 59.0142 164.831 72.4453V99.5685C164.831 108.146 160.437 115.931 153.077 120.394C151.343 121.446 150.265 123.366 150.265 125.405V141.838L134.046 125.647C132.933 124.537 131.454 123.926 129.881 123.926H71.7289C65.6056 123.926 59.7503 121.652 55.2411 117.524C54.2139 116.584 52.6173 116.653 51.6746 117.678C50.7323 118.704 50.8012 120.298 51.8288 121.238C57.2714 126.221 64.3384 128.965 71.7285 128.965H129.88C130.102 128.965 130.319 129.055 130.475 129.211L147.556 146.262C148.875 147.274 150.165 148.056 152.508 147.245C154.211 146.54 155.312 144.896 155.312 143.055V125.404C155.312 125.115 155.46 124.845 155.698 124.701C164.578 119.316 169.879 109.921 169.879 99.5681V72.445C169.879 56.2356 156.668 43.048 140.43 43.048Z" fill="#1A323C"/>
<path d="M98.9551 103.139C97.475 101.051 94.7786 99.6513 91.7033 99.6513C87.0403 99.6513 83.247 102.869 83.247 106.824C83.247 110.778 87.0406 113.996 91.7033 113.996C95.7949 113.996 99.2162 111.518 99.9935 108.239C103.717 106.674 106.648 103.554 107.92 99.6082C111.606 98.7703 114.367 95.474 114.367 91.5438V82.4581C114.367 78.664 111.794 75.4606 108.299 74.4893C107.477 69.4286 104.985 64.7851 101.166 61.2757C96.9043 57.3597 91.3656 55.2031 85.5701 55.2031C74.1656 55.2031 64.6267 63.4032 62.8386 74.4896C59.3451 75.4616 56.7734 78.6646 56.7734 82.4578V91.5435C56.7734 96.105 60.4911 99.8161 65.0607 99.8161C69.6303 99.8161 73.348 96.105 73.348 91.5435V82.4578C73.348 78.9009 71.0873 75.8613 67.9251 74.6949C69.5616 66.3472 76.8719 60.2424 85.5701 60.2424C94.1581 60.2424 101.56 66.454 103.208 74.6975C100.05 75.8656 97.7922 78.9032 97.7922 82.4578V91.5435C97.7922 94.9056 99.813 97.8039 102.705 99.0965C101.903 100.818 100.583 102.224 98.9551 103.139ZM91.7033 108.957C89.6948 108.957 88.2952 107.833 88.2952 106.824C88.2952 105.815 89.6948 104.691 91.7033 104.691C93.7118 104.691 95.1117 105.815 95.1117 106.824C95.1117 107.833 93.7115 108.957 91.7033 108.957ZM68.2998 91.5442C68.2998 93.327 66.8468 94.7775 65.0607 94.7775C63.2747 94.7775 61.8216 93.327 61.8216 91.5442V82.4584C61.8216 80.6755 63.2747 79.2251 65.0607 79.2251C66.8468 79.2251 68.2998 80.6755 68.2998 82.4584V91.5442ZM102.84 82.4584C102.84 80.6755 104.293 79.2251 106.08 79.2251C107.866 79.2251 109.319 80.6755 109.319 82.4584V91.5442C109.319 93.327 107.866 94.7775 106.08 94.7775C104.293 94.7775 102.84 93.327 102.84 91.5442V82.4584Z" fill="#1A323C"/>
<path d="M120.923 69.4846H141.028C142.422 69.4846 143.552 68.3567 143.552 66.9649C143.552 65.5732 142.422 64.4453 141.028 64.4453H120.923C119.529 64.4453 118.398 65.5732 118.398 66.9649C118.398 68.3567 119.529 69.4846 120.923 69.4846Z" fill="#1A323C"/>
<path d="M120.923 80.7658H136.425C137.819 80.7658 138.949 79.638 138.949 78.2462C138.949 76.8544 137.819 75.7266 136.425 75.7266H120.923C119.529 75.7266 118.398 76.8544 118.398 78.2462C118.398 79.638 119.529 80.7658 120.923 80.7658Z" fill="#1A323C"/>
<path d="M25.7085 37.2943C27.7869 37.2943 29.4718 35.6125 29.4718 33.5378C29.4718 31.4631 27.7869 29.7812 25.7085 29.7812C23.6302 29.7812 21.9453 31.4631 21.9453 33.5378C21.9453 35.6125 23.6302 37.2943 25.7085 37.2943Z" fill="#1A323C"/>
<path d="M37.1148 37.2943C39.1932 37.2943 40.878 35.6125 40.878 33.5378C40.878 31.4631 39.1932 29.7812 37.1148 29.7812C35.0364 29.7812 33.3516 31.4631 33.3516 33.5378C33.3516 35.6125 35.0364 37.2943 37.1148 37.2943Z" fill="#1A323C"/>
<path d="M48.4351 37.2943C50.5135 37.2943 52.1983 35.6125 52.1983 33.5378C52.1983 31.4631 50.5135 29.7812 48.4351 29.7812C46.3567 29.7812 44.6719 31.4631 44.6719 33.5378C44.6719 35.6125 46.3567 37.2943 48.4351 37.2943Z" fill="#1A323C"/>
<defs>
<linearGradient id="paint0_linear_7405_27840" x1="25.2644" y1="14.9034" x2="86.5094" y2="90.5733" gradientUnits="userSpaceOnUse">
<stop stop-color="#D3F9F6"/>
<stop offset="1" stop-color="#8AD5CE"/>
</linearGradient>
<linearGradient id="paint1_linear_7405_27840" x1="56.9631" y1="52.5649" x2="141.114" y2="129.001" gradientUnits="userSpaceOnUse">
<stop stop-color="#F2F3EE"/>
<stop offset="1" stop-color="#E1E3D8"/>
</linearGradient>
<linearGradient id="paint2_linear_7405_27840" x1="65.06" y1="76.7031" x2="65.06" y2="97.2948" gradientUnits="userSpaceOnUse">
<stop stop-color="#D3F9F6"/>
<stop offset="1" stop-color="#8AD5CE"/>
</linearGradient>
<linearGradient id="paint3_linear_7405_27840" x1="106.08" y1="76.7031" x2="106.08" y2="97.2948" gradientUnits="userSpaceOnUse">
<stop stop-color="#D3F9F6"/>
<stop offset="1" stop-color="#8AD5CE"/>
</linearGradient>
<linearGradient id="paint4_linear_7405_27840" x1="91.7017" y1="102.172" x2="91.7017" y2="111.477" gradientUnits="userSpaceOnUse">
<stop stop-color="#D3F9F6"/>
<stop offset="1" stop-color="#8AD5CE"/>
</linearGradient>
</defs>
</svg>
