<svg width="163" height="148" viewBox="0 0 163 148" fill="none" xmlns="http://www.w3.org/2000/svg">
<path fill-rule="evenodd" clip-rule="evenodd" d="M59.2422 26.0264C59.2422 13.7466 69.274 3.75781 81.6045 3.75781C93.935 3.75781 103.966 13.747 103.966 26.0264C103.966 38.3058 93.9346 48.295 81.6045 48.295C69.274 48.295 59.2422 38.3062 59.2422 26.0264ZM76.7307 34.7286C77.2863 35.2819 78.1917 35.2819 78.7477 34.7286L94.2075 19.3318C94.7645 18.7771 94.7649 17.8782 94.2075 17.3235C93.6501 16.7688 92.7478 16.7684 92.1905 17.3235L77.7388 31.7146L71.0178 25.0221C70.4604 24.467 69.5574 24.467 69.0004 25.0221C68.4437 25.5768 68.4437 26.4757 69.0004 27.0304L76.7307 34.7286Z" fill="url(#paint0_linear_7405_27826)"/>
<path fill-rule="evenodd" clip-rule="evenodd" d="M79.4603 126.228C81.0033 123.895 81.3093 121.145 80.0346 118.622C78.5408 115.664 75.2067 113.71 71.8723 114.028L71.4367 114.069L71.5055 113.639C71.9786 110.677 70.5105 107.826 68.1013 106.139C65.1633 104.082 61.2835 103.998 58.5012 106.439L58.1274 106.767L57.9586 106.3C57.3836 104.71 56.2787 103.327 54.8936 102.359C54.398 102.012 53.8653 101.717 53.3079 101.481C52.8525 101.288 52.3799 101.134 51.8977 101.024C48.6794 100.289 45.7722 101.573 43.8946 104.232L39.9622 109.801L28.5117 95.561L47.235 63.2656L64.0231 69.2385L56.6656 76.414C56.4065 76.6668 56.2491 77.006 56.2318 77.3674L55.4845 93.0423C55.3849 95.1339 55.937 97.2916 57.8104 98.4654C60.539 100.175 64.3546 98.832 66.9194 97.4533C70.2316 95.6728 72.2147 91.1939 73.7432 87.9419C74.1523 87.0722 74.56 86.2 74.9981 85.3444L75.0507 85.2417L75.1552 85.1925C75.4979 85.0312 75.841 84.8709 76.1834 84.7088C78.8747 83.4363 82.1784 81.7763 85.2297 81.9809C86.4108 82.06 87.5037 82.4049 88.5274 82.9951L123.451 103.126C126.076 104.639 126.724 107.452 125.238 109.997C123.754 112.538 120.981 113.369 118.364 111.852L106.944 105.23C106.264 104.836 105.389 105.065 104.994 105.742C104.598 106.419 104.83 107.29 105.509 107.684L119.909 116.034C122.528 117.552 123.182 120.359 121.694 122.906C120.205 125.454 117.43 126.271 114.811 124.753L99.5871 115.926C98.9079 115.532 98.0325 115.761 97.6368 116.438C97.2411 117.115 97.4716 117.987 98.1518 118.381L109.679 125.064C112.296 126.581 112.951 129.392 111.462 131.937C109.973 134.482 107.197 135.301 104.58 133.783L92.2299 126.621C91.5504 126.227 90.6757 126.457 90.2796 127.134C89.8836 127.811 90.1148 128.682 90.7947 129.077L100.197 134.528C102.814 136.046 103.469 138.854 101.98 141.4C100.49 143.945 97.7144 144.762 95.0973 143.244L86.6995 138.376L86.8446 138.092C87.9266 135.975 87.9936 133.639 86.9601 131.492C85.6423 128.755 82.7824 126.862 79.7314 126.751L79.1299 126.729L79.4603 126.228Z" fill="url(#paint1_linear_7405_27826)"/>
<path fill-rule="evenodd" clip-rule="evenodd" d="M117.379 60.0807C116.232 58.1012 116.922 55.535 118.91 54.3921L131.397 47.2124C133.392 46.0654 135.959 46.7502 137.11 48.7367L159.026 86.5402C159.583 87.4995 159.726 88.6283 159.438 89.698C159.15 90.7702 158.462 91.6737 157.496 92.2287L145.008 99.4084C143.021 100.551 140.443 99.863 139.296 97.8842L117.379 60.0807Z" fill="url(#paint2_linear_7405_27826)"/>
<path fill-rule="evenodd" clip-rule="evenodd" d="M72.2708 136.42L72.2753 136.411L75.5395 131.791C76.5882 130.306 78.1195 129.419 79.9721 129.611C80.9054 129.708 81.8027 130.074 82.5676 130.609C84.9874 132.305 85.5681 135.128 83.8254 137.596L80.5739 142.2C79.4959 143.726 77.9021 144.612 76.0051 144.366C74.1879 144.131 72.4621 142.868 71.6929 141.214C70.9258 139.565 71.2467 137.883 72.2708 136.42ZM62.737 74.4734C64.1169 73.1196 65.495 71.762 66.8996 70.4336C68.0359 69.3589 69.1944 68.2966 70.4059 67.3063C72.3029 65.7561 74.3443 64.3738 76.7146 63.6588C79.9682 62.677 83.3922 63.1192 86.6511 63.8332C90.8186 64.7468 94.9786 65.35 99.2509 65.4583C104.821 65.5989 110.313 64.8973 115.654 63.3062L115.911 63.2299L134.392 95.1084L124.212 100.285L89.9555 80.538C84.2179 77.2308 78.6974 80.4452 73.4138 82.8683C73.1307 82.9981 72.898 83.2181 72.7519 83.492C71.8945 85.0999 71.1627 86.795 70.3618 88.4345C69.3465 90.5121 67.6705 93.8228 65.5652 94.9551C64.3802 95.5924 63.0081 96.1707 61.665 96.3581C60.9364 96.4597 59.9777 96.4681 59.3306 96.0631C58.409 95.4866 58.2868 94.1645 58.3338 93.1806L59.0549 78.0653L59.151 77.9725C60.3522 76.8121 61.545 75.6433 62.737 74.4734ZM48.0281 120.858C46.9804 122.341 45.4515 123.227 43.6008 123.037C42.6654 122.941 41.7663 122.574 40.9999 122.038C38.5798 120.343 37.9991 117.518 39.7422 115.051L46.2274 105.87C47.2758 104.385 48.8068 103.498 50.6586 103.689C51.5919 103.786 52.4892 104.151 53.2542 104.687C55.6722 106.379 56.2603 109.201 54.5179 111.668L48.0281 120.858ZM59.4326 109.647L48.4379 125.215C46.6952 127.682 47.2748 130.506 49.6953 132.201C50.4602 132.737 51.3572 133.103 52.2908 133.2C54.1434 133.392 55.675 132.505 56.7238 131.02L66.3411 117.404L67.7199 115.452C69.4623 112.985 68.8816 110.16 66.4612 108.466C65.6955 107.93 64.7971 107.564 63.8624 107.467C62.0113 107.277 60.4807 108.163 59.4326 109.647ZM68.6511 119.07L59.6077 131.873C57.865 134.34 58.4478 137.165 60.8669 138.86C61.6315 139.395 62.5281 139.76 63.4607 139.857C65.3139 140.049 66.8459 139.162 67.8954 137.677L73.1081 130.296H73.1091L76.9585 124.846C78.7009 122.379 78.1199 119.555 75.7012 117.86C74.9373 117.324 74.0417 116.959 73.1098 116.861C71.2573 116.668 69.7246 117.553 68.6741 119.037L68.6522 119.068L68.6511 119.07Z" fill="url(#paint3_linear_7405_27826)"/>
<path fill-rule="evenodd" clip-rule="evenodd" d="M45.7874 60.0861L23.8709 97.8896C22.7234 99.8691 20.1465 100.557 18.1591 99.4139L5.67083 92.2342C3.67711 91.0878 2.98877 88.5311 4.13989 86.5456L26.057 48.7421C27.2061 46.7601 29.779 46.074 31.7689 47.2178L44.2572 54.3976C46.2512 55.5439 46.9385 58.1003 45.7874 60.0861Z" fill="url(#paint4_linear_7405_27826)"/>
<path fill-rule="evenodd" clip-rule="evenodd" d="M68.7606 27.2718C68.0715 26.5857 68.0715 25.4727 68.7606 24.7865C69.45 24.1 70.5672 24.1 71.2573 24.7865L77.739 31.2407L91.951 17.0883C92.6404 16.4021 93.7573 16.4021 94.447 17.0883C95.1364 17.7748 95.1364 18.8874 94.447 19.5736L78.9872 34.9704C78.6423 35.3128 78.1912 35.484 77.739 35.484C77.2879 35.484 76.8357 35.3128 76.4912 34.9704L68.7606 27.2718ZM81.6043 4.09772C69.4606 4.09772 59.5809 13.9357 59.5809 26.0292C59.5809 38.1226 69.4606 47.9603 81.6043 47.9603C93.7477 47.9603 103.627 38.1223 103.627 26.0292C103.627 13.9361 93.7477 4.09772 81.6043 4.09772ZM81.6043 51.4763C95.6942 51.4763 107.157 40.0613 107.157 26.0292C107.157 11.997 95.6942 0.582031 81.6043 0.582031C67.5138 0.582031 56.051 11.997 56.051 26.0292C56.051 40.0613 67.5138 51.4763 81.6043 51.4763ZM159.113 89.6142C158.846 90.6052 158.212 91.4313 157.329 91.9399L144.84 99.1196C143.956 99.6265 142.922 99.7601 141.926 99.4951C140.93 99.2283 140.101 98.598 139.591 97.7191L117.674 59.9156C117.164 59.035 117.03 58.0047 117.297 57.0119C117.564 56.0209 118.197 55.1948 119.081 54.6879L131.568 47.5082C133.404 46.4533 135.759 47.0804 136.818 48.9091L158.735 86.7126C159.245 87.5911 159.379 88.6215 159.113 89.6142ZM124.225 99.9018L133.923 94.9705L115.753 63.6306C103.785 67.1958 93.423 65.6635 86.5805 64.1639C76.0757 61.861 73.0399 64.8402 62.9771 74.7148C61.8422 75.8274 60.672 76.9766 59.3892 78.2157L58.6744 93.1977C58.631 94.1096 58.7415 95.2964 59.5131 95.7787C60.3254 96.2873 62.3551 96.3007 65.4064 94.6594C67.6289 93.4645 69.343 89.817 70.8556 86.5991C71.3971 85.4467 71.9093 84.3574 72.455 83.3351C72.6358 82.9959 72.9238 82.7245 73.2743 82.5631C73.7894 82.3279 74.304 82.084 74.8173 81.8404C79.4684 79.6415 84.7396 77.1491 90.1274 80.2472L124.225 99.9018ZM124.948 109.83C126.13 107.806 126.074 105.04 123.284 103.421L88.3603 83.2901C84.5801 81.1173 80.7571 82.9231 76.3313 85.0168C75.9882 85.1782 75.6454 85.3395 75.3027 85.5005C74.8907 86.3052 74.4816 87.1763 74.0527 88.0882C72.2228 91.9811 70.3311 96.0072 67.0831 97.7536C63.2486 99.8143 59.8926 100.17 57.6327 98.7544C56.411 97.9891 54.9895 96.3742 55.1487 93.0297L55.896 77.3548C55.9172 76.9087 56.1092 76.4876 56.4311 76.1761C57.9035 74.7556 59.223 73.4619 60.4994 72.2094C61.5228 71.2054 62.484 70.2637 63.4014 69.3782L47.3895 63.6816L28.9236 95.5333L39.9473 109.243L43.6202 104.041C46.7174 99.655 51.7356 99.7373 55.0915 102.086C56.5321 103.093 57.6811 104.532 58.2805 106.189C61.3427 103.503 65.429 103.857 68.2996 105.867C70.7441 107.579 72.3495 110.525 71.8433 113.695C73.8614 113.502 75.8989 114.111 77.5392 115.26C80.8284 117.566 82.5987 122.104 79.7469 126.417C81.4148 126.478 83.046 127.057 84.4057 128.01C87.463 130.152 89.2068 134.224 87.1499 138.248L95.2709 142.955C98.0613 144.574 100.506 143.257 101.69 141.232C102.874 139.209 102.819 136.442 100.03 134.823C100.03 134.821 100.029 134.821 100.029 134.821L90.6276 129.371C89.785 128.882 89.4998 127.806 89.9901 126.966C90.4808 126.129 91.5609 125.844 92.4035 126.333L101.806 131.784L104.753 133.494C107.544 135.111 109.988 133.794 111.173 131.769C112.357 129.746 112.302 126.978 109.511 125.358L97.9847 118.675C97.1421 118.186 96.8573 117.11 97.3476 116.271C97.8375 115.433 98.9184 115.148 99.761 115.637L111.288 122.321H111.289L114.985 124.465C117.777 126.084 120.221 124.766 121.404 122.74C122.588 120.715 122.533 117.948 119.742 116.328L116.757 114.598L105.342 107.978C104.499 107.491 104.214 106.415 104.704 105.575C105.195 104.737 106.275 104.453 107.117 104.942L118.531 111.559C118.531 111.559 118.532 111.559 118.532 111.56H118.533L118.538 111.564C121.326 113.173 123.766 111.853 124.948 109.83ZM80.299 142.006C78.9784 143.876 77.3701 144.149 76.2533 144.051C74.4657 143.891 72.7572 142.694 72.0025 141.073C71.532 140.061 71.2471 138.464 72.5623 136.597L72.5669 136.589L75.8184 131.987C75.8184 131.987 75.8191 131.987 75.8191 131.985C77.678 129.355 80.4511 129.537 82.3749 130.886C84.2991 132.234 85.4096 134.772 83.5504 137.402L80.299 142.006ZM67.6204 137.483C65.7622 140.113 62.9887 139.932 61.0639 138.585C59.1397 137.236 58.0299 134.698 59.887 132.068L68.9523 119.234L68.953 119.233C70.8118 116.606 73.585 116.788 75.5081 118.137C77.4316 119.485 78.5407 122.023 76.6832 124.653L72.9351 129.96L72.9319 129.963L69.6791 134.568L67.6204 137.483ZM56.4488 130.827C54.5899 133.457 51.8161 133.274 49.8922 131.926C47.9674 130.578 46.8575 128.04 48.7171 125.41L50.6367 122.692C50.6374 122.691 50.6399 122.687 50.6399 122.687L50.6406 122.686C50.6406 122.686 50.6406 122.686 50.6413 122.684L54.2231 117.614L59.7119 109.842C61.5708 107.211 64.3442 107.394 66.2684 108.742C68.193 110.089 69.3028 112.627 67.4446 115.259L66.0686 117.206C66.0679 117.207 66.0672 117.207 66.0658 117.209V117.211L56.9998 130.044C56.9998 130.044 56.9991 130.044 56.9991 130.046L56.4488 130.827ZM47.752 120.664C45.8932 123.294 43.1207 123.11 41.1973 121.762C39.2734 120.416 38.1636 117.877 40.0218 115.245L46.507 106.064C48.3652 103.435 51.1376 103.615 53.0618 104.962C54.9863 106.309 56.0976 108.846 54.2433 111.474L51.336 115.591L47.7538 120.662C47.7538 120.662 47.7538 120.662 47.7531 120.664L47.752 120.664ZM23.5817 97.7188C23.0709 98.5976 22.2421 99.2283 21.2463 99.4947C20.2508 99.7598 19.2158 99.6262 18.3323 99.1193L5.84437 91.9396C4.00949 90.8843 3.37869 88.5388 4.43733 86.7119L26.3545 48.9084C26.8646 48.0278 27.6934 47.3975 28.6896 47.1307C29.0242 47.0417 29.3638 46.9974 29.7002 46.9974C30.3638 46.9974 31.0172 47.1704 31.6035 47.5079L44.0915 54.6876C45.9267 55.7425 46.5571 58.088 45.4978 59.9152L23.5817 97.7188ZM161.792 84.9542C162.773 86.6479 163.033 88.625 162.522 90.5243C162.011 92.4219 160.793 94.0055 159.093 94.9831L146.605 102.163C145.474 102.813 144.218 103.145 142.943 103.145C142.299 103.145 141.651 103.061 141.012 102.89C139.106 102.382 137.516 101.168 136.534 99.4747L135.69 98.0197L127.354 102.258C129.752 105.028 129.646 108.776 127.999 111.598C127.061 113.202 125.615 114.526 123.879 115.237C126.213 118.002 126.09 121.712 124.454 124.509C122.715 127.483 119.231 129.485 115.393 128.431C115.559 130.204 115.117 132.008 114.221 133.539C112.592 136.325 109.431 138.258 105.881 137.622C106.121 139.482 105.679 141.394 104.739 143.002C103.32 145.428 100.739 147.207 97.7525 147.207C96.3934 147.207 94.9497 146.838 93.4939 145.994L85.1954 141.182L83.1854 144.028C81.5715 146.313 79.2167 147.582 76.6437 147.582C76.41 147.582 76.1742 147.572 75.937 147.551C72.8889 147.279 70.0868 145.315 68.8001 142.55C68.6582 142.246 68.5371 141.936 68.4379 141.624C65.4594 143.768 61.7155 143.337 59.0327 141.459C57.1929 140.169 55.8272 138.182 55.4805 135.925C52.8902 136.892 50.0289 136.32 47.8608 134.801C45.226 132.956 43.5659 129.677 44.4738 126.23C42.5813 126.312 40.7013 125.713 39.1658 124.637C35.8102 122.286 34.035 117.61 37.1346 113.222L37.8321 112.236L27.0294 98.8011L26.6379 99.4743C25.6566 101.168 24.0664 102.381 22.1598 102.89C21.5213 103.059 20.8728 103.145 20.23 103.145C18.9539 103.145 17.698 102.812 16.5673 102.163L4.07903 94.9828C0.558255 92.9583 -0.651463 88.4597 1.38073 84.9535L23.2972 47.1497C24.2785 45.456 25.8695 44.2446 27.776 43.7342C29.6818 43.2255 31.6685 43.4839 33.3685 44.4618L45.8557 51.6415C49.0112 53.4555 50.3024 57.2545 49.0761 60.548L66.2857 66.671C72.868 60.7308 77.5657 58.5875 87.338 60.729C93.6595 62.1151 103.154 63.5339 114.059 60.4591C113.562 59.0698 113.494 57.5638 113.887 56.1022C114.398 54.2042 115.615 52.6192 117.316 51.6415L129.803 44.4618C133.324 42.4373 137.842 43.6438 139.874 47.1497L161.792 84.9542Z" fill="#1A323C"/>
<defs>
<linearGradient id="paint0_linear_7405_27826" x1="81.6041" y1="3.75781" x2="81.6041" y2="48.295" gradientUnits="userSpaceOnUse">
<stop stop-color="#D3F9F6"/>
<stop offset="1" stop-color="#8AD5CE"/>
</linearGradient>
<linearGradient id="paint1_linear_7405_27826" x1="34.3668" y1="75.7631" x2="112.501" y2="149.201" gradientUnits="userSpaceOnUse">
<stop stop-color="#F2F3EE" stop-opacity="0.2"/>
<stop offset="1" stop-color="#E1E3D8"/>
</linearGradient>
<linearGradient id="paint2_linear_7405_27826" x1="123.184" y1="69.3207" x2="163.672" y2="93.8236" gradientUnits="userSpaceOnUse">
<stop stop-color="#285059"/>
<stop offset="1" stop-color="#1A323C"/>
</linearGradient>
<linearGradient id="paint3_linear_7405_27826" x1="43.7789" y1="60.4557" x2="116.931" y2="125.123" gradientUnits="userSpaceOnUse">
<stop stop-color="#F2F3EE" stop-opacity="0.2"/>
<stop offset="1" stop-color="#E1E3D8"/>
</linearGradient>
<linearGradient id="paint4_linear_7405_27826" x1="3.58203" y1="49.0053" x2="29.7482" y2="100.055" gradientUnits="userSpaceOnUse">
<stop stop-color="#285059"/>
<stop offset="0.9999" stop-color="#1D3842"/>
</linearGradient>
</defs>
</svg>
