<svg width="120" height="120" viewBox="0 0 120 120" fill="none" xmlns="http://www.w3.org/2000/svg">
<path d="M104.513 34.8415L90.8295 48.5254C89.2037 44.1512 86.6875 40.2221 83.4746 36.9512C83.3972 36.8737 83.3391 36.8157 83.2617 36.7383L94.8359 25.1641L104.513 34.8415Z" fill="url(#paint0_linear_7923_1674)"/>
<path d="M46.8375 92.5152L30.9665 108.386L21.2891 98.7087L38.2439 81.7539C41.5149 84.9475 44.7665 88.141 46.8375 92.5152Z" fill="url(#paint1_linear_7923_1674)"/>
<path d="M38.2455 81.7544L21.2907 98.7092L11.6133 89.0318L29.5552 71.0898C31.181 74.3608 33.4649 76.9737 35.9036 79.4511C36.6778 80.2253 37.452 80.9995 38.2455 81.7544Z" fill="url(#paint2_linear_7923_1674)"/>
<path d="M94.8379 25.1657L83.2637 36.7399C79.954 33.4302 75.9475 30.8173 71.4766 29.1722L85.1604 15.4883L94.8379 25.1657Z" fill="url(#paint3_linear_7923_1674)"/>
<path d="M118.066 15.6214C118.066 19.2601 116.633 22.7246 114.059 25.2988L110.324 29.0343L90.9688 9.67944L94.7042 5.94395C97.2784 3.36976 100.743 1.9375 104.382 1.9375C108.156 1.9375 111.582 3.46653 114.059 5.94395C116.536 8.42137 118.066 11.8472 118.066 15.6214Z" fill="#E2E4D9"/>
<path d="M30.9659 108.39L6.36585 117.855C5.99811 117.99 5.59166 118.067 5.20456 118.067C3.40456 118.067 1.93359 116.596 1.93359 114.796C1.93359 114.409 2.01101 114.003 2.1465 113.635L11.611 89.0352L21.2884 98.7126L30.9659 108.39Z" fill="#E2E4D9"/>
<path d="M110.321 29.0345L104.515 34.841L94.8376 25.1636L85.1602 15.4861L90.9666 9.67969L110.321 29.0345Z" fill="#E6E9ED"/>
<path d="M96.7737 62.0323C96.7737 64.3355 98.1479 66.3871 100.258 67.2581C100.277 67.2581 100.316 67.2774 100.335 67.2774C102.445 68.1677 104.883 67.7032 106.509 66.0774L107.961 64.6258L113.438 70.1032L111.987 71.5548C110.361 73.1806 109.896 75.6194 110.787 77.729C110.787 77.7484 110.806 77.7871 110.806 77.8065C111.677 79.9161 113.729 81.2903 116.032 81.2903H118.064V89.0323H116.032C113.729 89.0323 111.677 90.4065 110.806 92.5161C110.806 92.5355 110.787 92.5742 110.787 92.5935C109.896 94.7032 110.361 97.1419 111.987 98.7677L113.438 100.219L107.961 105.697L106.509 104.245C104.883 102.619 102.445 102.155 100.335 103.045C100.316 103.045 100.277 103.065 100.258 103.065C98.1479 103.935 96.7737 105.987 96.7737 108.29V110.323H89.0317V108.29C89.0317 105.987 87.6575 103.935 85.5479 103.065C85.5285 103.065 85.4898 103.045 85.4704 103.045C83.3608 102.155 80.9221 102.619 79.2963 104.245L77.8446 105.697L72.9479 100.8C73.335 100.2 73.5479 99.4839 73.5479 98.7097C73.5479 97.4323 72.9091 96.271 71.9414 95.5742C73.8188 89.5355 77.8059 85.6065 81.8124 81.7161C81.4833 82.8194 81.2898 83.9613 81.2898 85.1613C81.2898 91.5677 86.4962 96.7742 92.9027 96.7742C99.3092 96.7742 104.516 91.5677 104.516 85.1613C104.516 78.7548 99.3092 73.5484 92.9027 73.5484C91.3156 73.5484 89.8059 73.8774 88.4317 74.4387C91.0446 70.7806 92.9027 66.3097 92.9027 60H96.7737V62.0323Z" fill="url(#paint4_linear_7923_1674)"/>
<path d="M92.902 73.5469C99.3084 73.5469 104.515 78.7533 104.515 85.1598C104.515 91.5662 99.3084 96.7727 92.902 96.7727C86.4955 96.7727 81.2891 91.5662 81.2891 85.1598C81.2891 83.9598 81.4826 82.8178 81.8116 81.7146V81.6953C84.1536 79.4307 86.4955 77.1469 88.431 74.4372C89.8052 73.8759 91.3149 73.5469 92.902 73.5469ZM96.7729 85.1598C96.7729 83.0307 95.031 81.2888 92.902 81.2888C90.7729 81.2888 89.031 83.0307 89.031 85.1598C89.031 87.2888 90.7729 89.0307 92.902 89.0307C95.031 89.0307 96.7729 87.2888 96.7729 85.1598Z" fill="url(#paint5_linear_7923_1674)"/>
<path d="M60.0016 118.062C55.4533 118.062 51.4855 114.965 50.3823 110.553L50.3242 110.32H69.6791L69.621 110.553C69.0597 112.759 67.8016 114.636 66.0984 115.972C64.4145 117.288 62.2855 118.062 60.0016 118.062Z" fill="url(#paint6_linear_7923_1674)"/>
<path d="M69.675 102.582C71.8041 102.582 73.546 104.324 73.546 106.453C73.546 107.518 73.1202 108.485 72.4041 109.182C71.7073 109.898 70.7395 110.324 69.675 110.324H50.3202C48.1912 110.324 46.4492 108.582 46.4492 106.453C46.4492 105.388 46.875 104.421 47.5912 103.724C48.2879 103.008 49.2557 102.582 50.3202 102.582H69.675Z" fill="#E2E4D9"/>
<path d="M73.546 98.7069C73.546 99.4811 73.3331 100.197 72.946 100.797C72.7912 101.029 72.5976 101.242 72.4041 101.436C71.7073 102.152 70.7395 102.578 69.675 102.578H50.3202C48.1912 102.578 46.4492 100.836 46.4492 98.7069C46.4492 97.6424 46.875 96.6746 47.5912 95.9779C47.7266 95.823 47.8815 95.6876 48.0557 95.5714C48.6944 95.1069 49.4686 94.8359 50.3202 94.8359H59.9976H69.675C70.5266 94.8359 71.3008 95.1069 71.9395 95.5714C72.9073 96.2682 73.546 97.4295 73.546 98.7069Z" fill="#E2E4D9"/>
<path d="M90.8292 48.5235C89.2034 44.1493 86.6873 40.2202 83.4744 36.9493C83.397 36.8719 83.3389 36.8138 83.2615 36.7364C79.9518 33.4267 75.9454 30.8138 71.4744 29.1686C68.0873 27.8912 64.4486 27.1751 60.6357 27.0977H60.6163C61.4679 28.8589 61.9325 30.8138 61.9325 32.9041C61.9325 34.4138 61.6808 35.8848 61.2163 37.2396V37.2589C62.0486 36.9493 62.9389 36.7751 63.8679 36.7751C68.1454 36.7751 71.6099 40.2396 71.6099 44.517C71.6099 48.7944 68.1454 52.2589 63.8679 52.2589H52.255H28.0034C27.4034 54.7364 27.0938 57.3299 27.0938 60.0009C27.0938 64.5299 28.0421 68.0912 29.5518 71.0912C31.1776 74.3622 33.4615 76.9751 35.9002 79.4525C36.6744 80.2267 37.4486 81.0009 38.2421 81.7557C41.5131 84.9493 44.7647 88.1428 46.8357 92.517C47.3196 93.4654 47.726 94.4912 48.055 95.5751C48.6937 95.1106 49.4679 94.8396 50.3196 94.8396H59.997H69.6744C70.526 94.8396 71.3002 95.1106 71.9389 95.5751C73.8163 89.5364 77.8034 85.6073 81.8099 81.717V81.6977C84.1518 79.4331 86.4937 77.1493 88.4292 74.4396C91.0421 70.7815 92.9002 66.3106 92.9002 60.0009C92.9002 55.9557 92.1647 52.0848 90.8292 48.5235Z" fill="url(#paint7_linear_7923_1674)"/>
<path d="M43.1594 20.4023C44.7659 19.7248 46.5271 19.3571 48.3852 19.3571C53.8046 19.3571 58.4497 22.5119 60.6175 27.099C61.4691 28.8603 61.9336 30.8152 61.9336 32.9055C61.9336 34.4152 61.682 35.8861 61.2175 37.241V37.2603C62.0497 36.9507 62.94 36.7765 63.8691 36.7765C68.1465 36.7765 71.611 40.241 71.611 44.5184C71.611 48.7958 68.1465 52.2603 63.8691 52.2603H52.2562H28.0046H11.611C6.26908 52.2603 1.93359 47.9249 1.93359 42.5829C1.93359 37.5507 5.76585 33.4281 10.682 32.9636V32.9442C10.0239 31.1249 9.67553 29.1507 9.67553 27.099C9.67553 17.4797 17.4755 9.67969 27.0949 9.67969C34.3142 9.67969 40.5078 14.0732 43.14 20.3248L43.1594 20.4023Z" fill="#E2E4D9"/>
<path d="M92.9002 90.9684C96.1015 90.9684 98.7067 88.3632 98.7067 85.1619C98.7067 81.9606 96.1015 79.3555 92.9002 79.3555C89.6989 79.3555 87.0938 81.9606 87.0938 85.1619C87.0938 88.3632 89.6989 90.9684 92.9002 90.9684ZM92.9002 83.2264C93.9667 83.2264 94.8357 84.0935 94.8357 85.1619C94.8357 86.2303 93.9667 87.0974 92.9002 87.0974C91.8337 87.0974 90.9647 86.2303 90.9647 85.1619C90.9647 84.0935 91.8337 83.2264 92.9002 83.2264Z" fill="#1A323C"/>
<path d="M112.568 76.9897C111.981 75.5845 112.293 73.9877 113.359 72.9193L116.175 70.1013L107.961 61.8871L105.141 64.7052C104.075 65.7735 102.476 66.0832 100.997 65.4639C99.6077 64.891 98.7097 63.5477 98.7097 62.0419V58.0645H94.74C94.5639 54.9426 93.9852 51.9252 93.0252 49.0664L115.423 26.669C118.374 23.7174 120 19.7942 120 15.6213C120 7.00839 112.992 0 104.379 0C100.206 0 96.2826 1.62581 93.3329 4.57548L70.9587 26.9516C68.0652 25.98 64.9974 25.4148 61.829 25.2465C59.1581 20.58 54.1394 17.4194 48.3871 17.4194C46.9142 17.4194 45.4935 17.64 44.1406 18.0252C40.8 11.7445 34.3103 7.74194 27.0968 7.74194C16.4245 7.74194 7.74194 16.4245 7.74194 27.0968C7.74194 28.5794 7.92387 30.0387 8.25484 31.4671C3.48387 32.911 0 37.3452 0 42.5806C0 48.9852 5.20839 54.1935 11.6129 54.1935H25.6529C25.3316 56.1077 25.1613 58.051 25.1613 60C25.1613 64.26 25.949 67.7264 27.2206 70.6877L9.95419 87.9561L0.346452 112.935C0.116129 113.532 0 114.159 0 114.799C0 117.668 2.33419 120 5.20064 120C5.84129 120 6.46839 119.882 7.06645 119.654L32.0458 110.046L44.671 97.4187C44.5761 97.8348 44.5161 98.2645 44.5161 98.7097C44.5161 100.202 45.0987 101.551 46.0258 102.581C45.0968 103.61 44.5161 104.959 44.5161 106.452C44.5161 109.142 46.3645 111.391 48.8516 112.045C50.5006 116.768 54.9174 120 60 120C65.0826 120 69.4994 116.768 71.1484 112.045C73.6355 111.391 75.4839 109.142 75.4839 106.452C75.4839 106.306 75.451 106.171 75.4413 106.03L77.8452 108.434L80.6652 105.615C81.7316 104.547 83.3245 104.235 84.8071 104.853C86.1968 105.432 87.0968 106.775 87.0968 108.281V112.258H98.7097V108.281C98.7097 106.775 99.6097 105.43 101.075 104.824C102.48 104.239 104.077 104.547 105.143 105.615L107.961 108.434L116.175 100.219L113.359 97.4013C112.293 96.3329 111.981 94.7361 112.599 93.2574C113.174 91.8677 114.517 90.9677 116.023 90.9677H120V79.3548H116.023C114.517 79.3548 113.174 78.4548 112.568 76.9897ZM83.5664 82.6955C85.6781 80.6342 87.7935 78.5284 89.6187 76.0935C90.6716 75.7103 91.7671 75.4839 92.9032 75.4839C98.2393 75.4839 102.581 79.8252 102.581 85.1613C102.581 90.4974 98.2393 94.8387 92.9032 94.8387C87.5671 94.8387 83.2258 90.4974 83.2258 85.1613C83.2258 84.3232 83.3555 83.4987 83.5664 82.6955ZM85.891 36.8477L94.8387 27.8981L101.779 34.8387L91.4419 45.1761C89.9923 42.1335 88.1187 39.3348 85.891 36.8477ZM87.8981 15.4839L90.9677 12.4142L107.586 29.0323L104.516 32.1019L87.8981 15.4839ZM104.379 3.87097C110.857 3.87097 116.129 9.14323 116.129 15.6213C116.129 18.7587 114.908 21.7103 112.688 23.9303L110.323 26.2955L93.7045 9.67742L96.0697 7.31226C98.2897 5.09419 101.239 3.87097 104.379 3.87097ZM85.1613 18.2206L92.1019 25.1613L83.1581 34.1052C80.6729 31.8755 77.8761 30 74.8335 28.5484L85.1613 18.2206ZM90.9677 60C90.9677 70.0703 85.8968 75.0174 80.5277 80.2529C76.831 83.8587 73.0335 87.5864 70.8232 93.0194C70.4535 92.9439 70.0703 92.9032 69.6774 92.9032H61.9355V83.2258C61.9355 80.0245 59.3303 77.4193 56.129 77.4193H52.2581C51.1916 77.4193 50.3226 76.5523 50.3226 75.4839C50.3226 74.4155 51.1916 73.5484 52.2581 73.5484H71.6129C74.8142 73.5484 77.4193 70.9432 77.4193 67.7419C77.4193 64.5406 74.8142 61.9355 71.6129 61.9355H56.129C55.0626 61.9355 54.1935 61.0684 54.1935 60V54.1935H63.871C69.2071 54.1935 73.5484 49.8523 73.5484 44.5161C73.5484 39.18 69.2071 34.8387 63.871 34.8387C63.8168 34.8387 63.7664 34.8542 63.7123 34.8542C63.7955 34.2077 63.871 33.5613 63.871 32.9032C63.871 31.6374 63.7006 30.4123 63.4142 29.2335C78.8439 30.9523 90.9677 44.1948 90.9677 60ZM48.3871 98.7097C48.3871 97.6413 49.2561 96.7742 50.3226 96.7742H69.6774C70.7439 96.7742 71.6129 97.6413 71.6129 98.7097C71.6129 99.7781 70.7439 100.645 69.6774 100.645H50.3226C49.2561 100.645 48.3871 99.7781 48.3871 98.7097ZM24.0271 98.7097L38.2548 84.4819C40.6355 86.8432 42.8458 89.2316 44.4755 92.1406L30.9677 105.65L24.0271 98.7097ZM3.87097 42.5806C3.87097 38.311 7.34323 34.8387 11.6129 34.8387C15.8826 34.8387 19.3548 38.311 19.3548 42.5806H23.2258C23.2258 36.3445 18.2806 31.2542 12.1084 30.9929C11.7794 29.7271 11.6129 28.4206 11.6129 27.0968C11.6129 18.5594 18.5594 11.6129 27.0968 11.6129C32.7581 11.6129 37.8677 14.6903 40.5852 19.5503C36.4587 21.9716 33.5439 26.2355 33 31.2116C29.6206 32.0439 27.0968 35.0768 27.0968 38.7097H30.9677C30.9677 36.5748 32.7039 34.8387 34.8387 34.8387C36.9735 34.8387 38.7097 36.5748 38.7097 38.7097H42.5806C42.5806 35.1581 40.1652 32.191 36.9 31.2813C37.6936 25.6452 42.5342 21.2903 48.3871 21.2903C54.7916 21.2903 60 26.4987 60 32.9032C60 33.9213 59.8335 34.9181 59.5742 35.8897C56.4 37.4787 54.1935 40.7303 54.1935 44.5161H58.0645C58.0645 41.3148 60.6697 38.7097 63.871 38.7097C67.0723 38.7097 69.6774 41.3148 69.6774 44.5161C69.6774 47.7174 67.0723 50.3226 63.871 50.3226H11.6129C7.34323 50.3226 3.87097 46.8503 3.87097 42.5806ZM50.3226 54.1935V60C50.3226 63.2013 52.9277 65.8064 56.129 65.8064H71.6129C72.6794 65.8064 73.5484 66.6735 73.5484 67.7419C73.5484 68.8103 72.6794 69.6774 71.6129 69.6774H52.2581C49.0568 69.6774 46.4516 72.2826 46.4516 75.4839C46.4516 78.6852 49.0568 81.2903 52.2581 81.2903H56.129C57.1955 81.2903 58.0645 82.1574 58.0645 83.2258V92.9032H50.3226C49.9297 92.9032 49.5465 92.9439 49.1768 93.0194C46.9665 87.5864 43.169 83.8587 39.4723 80.2529C34.1032 75.0174 29.0323 70.0703 29.0323 60C29.0323 58.0432 29.2665 56.1039 29.6284 54.1935H50.3226ZM35.491 81.7723L21.2903 95.9729L14.3497 89.0323L29.1174 74.2645C30.9348 77.1174 33.1877 79.4981 35.491 81.7723ZM12.3503 92.5064L27.4935 107.65L14.6729 112.581L7.41871 105.327L12.3503 92.5064ZM5.67871 116.04C4.84064 116.365 3.87097 115.697 3.87097 114.799C3.87097 114.635 3.90194 114.474 3.95806 114.323L5.89742 109.279L10.7187 114.101L5.67871 116.04ZM60 116.129C57.1413 116.129 54.5923 114.608 53.1794 112.258H66.8206C65.4077 114.608 62.8587 116.129 60 116.129ZM69.6774 108.387H50.3226C49.2561 108.387 48.3871 107.52 48.3871 106.452C48.3871 105.383 49.2561 104.516 50.3226 104.516H69.6774C70.7439 104.516 71.6129 105.383 71.6129 106.452C71.6129 107.52 70.7439 108.387 69.6774 108.387ZM116.129 87.0968H116.023C112.943 87.0968 110.195 88.9355 108.995 91.8426C107.803 94.7013 108.441 97.9568 110.621 100.138L110.702 100.219L107.961 102.96L107.88 102.879C105.697 100.695 102.437 100.055 99.5206 101.278C96.6774 102.455 94.8387 105.201 94.8387 108.281V108.387H90.9677V108.281C90.9677 105.201 89.129 102.453 86.2219 101.251C83.3594 100.057 80.1039 100.697 77.9245 102.879L77.8432 102.96L75.2206 100.337C75.3755 99.8168 75.4839 99.2787 75.4839 98.7097C75.4839 97.3355 74.9845 96.089 74.1832 95.0923C75.3871 91.8426 77.2742 89.2432 79.471 86.8432C80.3032 93.5206 86.0032 98.7097 92.9032 98.7097C100.374 98.7097 106.452 92.6303 106.452 85.1613C106.452 77.6923 100.374 71.6129 92.9032 71.6129C92.7135 71.6129 92.5297 71.6323 92.3419 71.64C93.6523 68.9206 94.5523 65.7677 94.7787 61.9355H94.8387V62.0419C94.8387 65.1213 96.6774 67.8716 99.5826 69.0697C102.439 70.2658 105.699 69.6271 107.88 67.4439L107.961 67.3626L110.702 70.1032L110.621 70.1845C108.441 72.3658 107.803 75.6232 109.02 78.5419C110.195 81.3871 112.943 83.2258 116.023 83.2258H116.129V87.0968Z" fill="#1A323C"/>
<defs>
<linearGradient id="paint0_linear_7923_1674" x1="85.7655" y1="32.3126" x2="103.098" y2="33.5508" gradientUnits="userSpaceOnUse">
<stop stop-color="#284F58"/>
<stop offset="1" stop-color="#1E3943"/>
</linearGradient>
<linearGradient id="paint1_linear_7923_1674" x1="24.2991" y1="89.9034" x2="45.1243" y2="91.4722" gradientUnits="userSpaceOnUse">
<stop stop-color="#284F58"/>
<stop offset="1" stop-color="#1E3943"/>
</linearGradient>
<linearGradient id="paint2_linear_7923_1674" x1="18.202" y1="76.1576" x2="33.2924" y2="86.1478" gradientUnits="userSpaceOnUse">
<stop stop-color="#CCF5F2"/>
<stop offset="0.940779" stop-color="#9ADDD7"/>
</linearGradient>
<linearGradient id="paint3_linear_7923_1674" x1="77.2561" y1="19.3876" x2="89.3855" y2="28.542" gradientUnits="userSpaceOnUse">
<stop stop-color="#CCF5F2"/>
<stop offset="0.940779" stop-color="#9ADDD7"/>
</linearGradient>
<linearGradient id="paint4_linear_7923_1674" x1="77.3754" y1="75.3987" x2="114.99" y2="78.1061" gradientUnits="userSpaceOnUse">
<stop stop-color="#284F58"/>
<stop offset="1" stop-color="#1E3943"/>
</linearGradient>
<linearGradient id="paint5_linear_7923_1674" x1="87.0351" y1="77.8085" x2="99.8993" y2="86.6406" gradientUnits="userSpaceOnUse">
<stop stop-color="#CCF5F2"/>
<stop offset="0.940779" stop-color="#9ADDD7"/>
</linearGradient>
<linearGradient id="paint6_linear_7923_1674" x1="55.1126" y1="111.741" x2="59.1098" y2="118.602" gradientUnits="userSpaceOnUse">
<stop stop-color="#CCF5F2"/>
<stop offset="0.940779" stop-color="#9ADDD7"/>
</linearGradient>
<linearGradient id="paint7_linear_7923_1674" x1="43.3741" y1="39.6622" x2="80.7383" y2="64.3146" gradientUnits="userSpaceOnUse">
<stop stop-color="#CCF5F2"/>
<stop offset="0.940779" stop-color="#9ADDD7"/>
</linearGradient>
</defs>
</svg>
