<svg width="120" height="120" viewBox="0 0 120 120" fill="none" xmlns="http://www.w3.org/2000/svg">
<path fill-rule="evenodd" clip-rule="evenodd" d="M44.1067 42.919C44.7606 40.4699 47.2782 39.0127 49.7297 39.6691C52.1788 40.323 53.636 42.8406 52.9796 45.2921L44.3271 77.5804C43.6732 80.0294 41.1556 81.4866 38.7041 80.8327C36.2551 80.1788 34.7979 77.6612 35.4542 75.2097L44.1067 42.919Z" fill="url(#paint0_linear_7923_4041)"/>
<path fill-rule="evenodd" clip-rule="evenodd" d="M49.6983 25.6055C47.9962 24.3663 47.619 21.9785 48.8607 20.2764C50.0999 18.5743 52.4853 18.1972 54.1898 19.4388L62.5509 25.5345L72.7781 22.794C74.8206 22.2479 76.917 23.4602 77.4632 25.5027C78.0093 27.5452 76.797 29.6416 74.7545 30.1877L62.7787 33.396C61.706 33.6825 60.5133 33.4866 59.5459 32.7813L49.6983 25.6055Z" fill="#A6E7F0"/>
<path d="M47.5454 14.3525C51.1689 14.3525 54.1064 11.415 54.1064 7.79148C54.1064 4.16793 51.1689 1.23047 47.5454 1.23047C43.9218 1.23047 40.9844 4.16793 40.9844 7.79148C40.9844 11.415 43.9218 14.3525 47.5454 14.3525Z" fill="#E2E4D9"/>
<path fill-rule="evenodd" clip-rule="evenodd" d="M44.4431 18.4023H51.7363C53.6295 18.4023 55.1773 19.9501 55.1773 21.8457V38.0682C55.1773 40.1205 56.3087 41.874 58.1773 42.7214L65.8845 46.2138C67.4911 46.9705 68.5246 48.5844 68.5246 50.3625V67.5597C68.5246 70.0993 66.4649 72.159 63.9253 72.159C61.3856 72.159 59.326 70.0993 59.326 67.5597V53.267L47.2178 47.8203C43.1671 47.6489 39.9074 44.2839 39.9074 40.194V27.1601L34.015 28.7398L28.6516 38.0315C27.6009 39.8585 25.2695 40.4879 23.4425 39.4397C21.6155 38.389 20.9861 36.0576 22.0343 34.2306L28.0565 23.7976C28.5218 22.8253 29.3961 22.0539 30.5202 21.7526L42.0136 18.6742C42.6724 18.4758 43.5908 18.4023 44.4431 18.4023Z" fill="url(#paint1_linear_7923_4041)"/>
<path fill-rule="evenodd" clip-rule="evenodd" d="M34.1418 95.1445H4.95647C2.90171 95.1445 1.22656 96.8197 1.22656 98.8744V115.016C1.22656 117.071 2.90171 118.746 4.95647 118.746H29.1678L34.1418 95.1445Z" fill="#E9EAE5"/>
<path fill-rule="evenodd" clip-rule="evenodd" d="M62.0793 86.332C54.0097 86.332 40.9636 86.332 32.894 86.332C30.8392 86.332 29.1641 88.0072 29.1641 90.0619V118.745H57.1053L62.0793 86.332Z" fill="#E1E3D8"/>
<path fill-rule="evenodd" clip-rule="evenodd" d="M90.0168 77.5156C81.9472 77.5156 68.9011 77.5156 60.8315 77.5156C58.7767 77.5156 57.1016 79.1908 57.1016 81.2455V118.743H85.0428L90.0168 77.5156Z" fill="#CACCC2"/>
<path fill-rule="evenodd" clip-rule="evenodd" d="M85.0463 68.7066V118.748H109.258C111.312 118.748 112.988 117.073 112.988 115.018V68.7066H117.528C118.045 68.7066 118.486 68.4103 118.682 67.9303C118.875 67.4503 118.765 66.9311 118.395 66.5711L100.747 49.4693C99.7822 48.5363 98.2491 48.5363 97.2867 49.4693L79.6388 66.5711C79.2666 66.9311 79.1588 67.4527 79.3523 67.9303C79.5457 68.4103 79.9866 68.7066 80.5058 68.7066H85.0463Z" fill="url(#paint2_linear_7923_4041)"/>
<path fill-rule="evenodd" clip-rule="evenodd" d="M23.0994 35.0949L29.1241 24.6619C29.1388 24.635 29.1535 24.6056 29.1682 24.5787C29.4964 23.8905 30.1062 23.3835 30.8433 23.1876L42.3367 20.1067C42.349 20.1043 42.3637 20.0994 42.3759 20.0969C42.8339 19.9573 43.5858 19.8789 44.4429 19.8789H51.0603C52.3191 19.8789 52.6472 20.0798 53.7052 20.8488L61.8336 26.7755C62.1324 26.9934 62.5145 27.0645 62.872 26.9689L73.0968 24.2285C73.7703 24.0497 74.4707 24.1427 75.0732 24.4905C75.6732 24.8383 76.1042 25.3991 76.283 26.0726C76.4642 26.7436 76.3712 27.4441 76.0234 28.0465C75.6732 28.6465 75.1124 29.0776 74.4413 29.2564L62.4679 32.4646C61.7136 32.6654 60.9128 32.5136 60.2711 32.0458L56.4041 29.227V26.6726C56.4041 25.9967 55.8555 25.4481 55.1796 25.4481C54.5036 25.4481 53.955 25.9967 53.955 26.6726V38.3178C53.955 40.8379 55.3804 43.047 57.6751 44.0878L65.3652 47.5728C66.5407 48.1263 67.3024 49.3214 67.3024 50.6145V67.8093C67.3024 69.6706 65.7888 71.1841 63.93 71.1841C62.0687 71.1841 60.5552 69.6706 60.5552 67.8093V53.5191C60.5552 53.0366 60.2736 52.5983 59.8328 52.4023L47.7271 46.9556C47.5851 46.892 47.4308 46.8552 47.2765 46.8479C43.8919 46.7058 41.1367 43.8356 41.1367 40.4461V28.3527L43.5564 27.7037C44.2103 27.5298 44.5972 26.8587 44.4233 26.2048C44.247 25.5509 43.5784 25.164 42.9221 25.3379L33.7038 27.809C33.3904 27.8922 33.121 28.098 32.9593 28.3796L27.5935 37.6737C27.2481 38.2738 26.6922 38.7023 26.0236 38.8836C25.355 39.0648 24.657 38.9742 24.057 38.6289C23.457 38.2836 23.0284 37.7252 22.8472 37.059C22.666 36.3904 22.7566 35.6925 23.0994 35.0949ZM43.1449 77.5125L50.3035 50.8007L46.9287 49.2822C45.8658 49.2088 44.8593 48.9492 43.936 48.5402L36.6378 75.7761C36.1602 77.5688 37.228 79.4178 39.0232 79.8978C40.8159 80.3778 42.6674 79.3076 43.1449 77.5125ZM22.8374 40.7522C24.0031 41.4232 25.3624 41.5996 26.6628 41.2469C27.9608 40.8967 29.0457 40.0616 29.7168 38.8958L34.8279 30.0425L38.6877 29.009V40.4461C38.6877 43.1351 39.8779 45.5425 41.7686 47.1687L34.272 75.1418C33.4442 78.2398 35.2908 81.4358 38.3913 82.2636C38.8909 82.3983 39.3979 82.462 39.9024 82.462C40.9114 82.462 41.9082 82.1975 42.8045 81.6783C44.149 80.9019 45.1115 79.6456 45.5107 78.1468L52.5664 51.817L58.1062 54.3101V67.8093C58.1062 71.02 60.7193 73.6332 63.93 73.6332C67.1407 73.6332 69.7514 71.02 69.7514 67.8093V50.6121C69.7514 48.3785 68.4387 46.314 66.3938 45.3491L58.6842 41.8567C57.2564 41.2102 56.4041 39.8877 56.4041 38.3178V32.2564L58.8286 34.0247C60.0703 34.9308 61.6279 35.2247 63.0998 34.8328L75.0732 31.6221C76.3761 31.2744 77.4659 30.4393 78.1419 29.2711C78.8178 28.1029 78.999 26.7436 78.6488 25.4383C78.301 24.1354 77.4659 23.0456 76.2977 22.3696C75.1295 21.6961 73.7678 21.5149 72.465 21.8627L62.8035 24.4513L55.1477 18.8699C53.8032 17.8903 52.9607 17.4299 51.0603 17.4299H44.4429C43.669 17.4299 42.5645 17.4838 41.6853 17.7458L30.2115 20.8218C28.7984 21.199 27.6253 22.1639 26.9812 23.4741L20.9786 33.8704C20.3075 35.0386 20.1312 36.3978 20.4814 37.6958C20.8341 38.9962 21.6692 40.0812 22.8374 40.7522ZM47.5459 2.44905C50.4896 2.44905 52.8824 4.84422 52.8824 7.78553C52.8824 10.7293 50.4896 13.122 47.5459 13.122C44.6021 13.122 42.2094 10.7293 42.2094 7.78553C42.2094 4.84422 44.6021 2.44905 47.5459 2.44905ZM47.5459 15.5711C51.8391 15.5711 55.3314 12.0787 55.3314 7.78553C55.3314 3.49235 51.8391 0 47.5459 0C43.2527 0 39.7603 3.49235 39.7603 7.78553C39.7603 12.0787 43.2527 15.5711 47.5459 15.5711ZM117.532 67.513H112.989C112.313 67.513 111.765 68.0616 111.765 68.7375V115.049C111.765 116.43 110.641 117.554 109.259 117.554H86.2727V68.7375C86.2727 68.0616 85.7241 67.513 85.0482 67.513L80.4978 67.5179L80.4929 67.4811L98.1408 50.3794C98.6331 49.9019 99.4045 49.9019 99.8968 50.3794L117.554 67.486L118.776 67.5497L117.532 67.513ZM58.3315 117.554V81.2815C58.3315 79.9003 59.4556 78.7762 60.8369 78.7762H83.8236V117.554H58.3315ZM2.44905 115.049V98.9073C2.44905 97.5261 3.57316 96.402 4.95443 96.402H27.9412V117.554H4.95443C3.57316 117.554 2.44905 116.43 2.44905 115.049ZM32.8956 87.5878H55.8824V117.554H30.3903V90.0932C30.3903 88.712 31.5144 87.5878 32.8956 87.5878ZM119.249 65.7227L101.601 48.621C100.154 47.2177 97.8837 47.2177 96.4363 48.621L78.7884 65.7227C78.0635 66.4256 77.8406 67.4836 78.2202 68.4216C78.5998 69.3571 79.4962 69.962 80.5076 69.962H83.8236V76.3271H60.8369C58.1062 76.3271 55.8824 78.5484 55.8824 81.2815V85.1388H32.8956C30.1625 85.1388 27.9412 87.3625 27.9412 90.0932V93.9529H4.95443C2.22129 93.9529 0 96.1742 0 98.9073V115.049C0 117.78 2.22129 120.003 4.95443 120.003H109.259C111.993 120.003 114.214 117.78 114.214 115.049V69.962H117.532C118.541 69.962 119.44 69.3571 119.817 68.4216C120.197 67.486 119.974 66.4256 119.249 65.7227Z" fill="#1A323C"/>
<defs>
<linearGradient id="paint0_linear_7923_4041" x1="39.7105" y1="47.1222" x2="53.0832" y2="51.0712" gradientUnits="userSpaceOnUse">
<stop stop-color="#CCF5F2"/>
<stop offset="0.940779" stop-color="#9ADDD7"/>
</linearGradient>
<linearGradient id="paint1_linear_7923_4041" x1="33.1543" y1="28.2659" x2="61.3108" y2="45.1664" gradientUnits="userSpaceOnUse">
<stop stop-color="#CCF5F2"/>
<stop offset="0.940779" stop-color="#9ADDD7"/>
</linearGradient>
<linearGradient id="paint2_linear_7923_4041" x1="83.9137" y1="70.1829" x2="116.245" y2="71.6168" gradientUnits="userSpaceOnUse">
<stop stop-color="#284F58"/>
<stop offset="1" stop-color="#1E3943"/>
</linearGradient>
</defs>
</svg>
