<svg width="152" height="142" viewBox="0 0 152 142" fill="none" xmlns="http://www.w3.org/2000/svg">
<path fill-rule="evenodd" clip-rule="evenodd" d="M68.4236 87H83.5778C88.521 88.4793 92.8063 91.3717 92.8063 94.7019V114.464H59.1953V94.7019C59.1953 91.3717 63.4738 88.4793 68.4236 87Z" fill="#E2E4D9"/>
<path fill-rule="evenodd" clip-rule="evenodd" d="M38.0938 113.552H47.0497L54.3711 112.531L61.6327 113.552H90.3673L97.5092 112.152L104.944 113.552H113.906V127.245H38.0938V113.552Z" fill="#CACCC2"/>
<path fill-rule="evenodd" clip-rule="evenodd" d="M17.7578 124.753V95.6305C17.7578 92.0482 20.6943 89.116 24.2821 89.116H35.0584C35.2445 89.116 35.4306 89.1226 35.6099 89.1359C37.2841 88.9768 38.9983 89.6599 40.0877 91.0929L48.8577 102.689C49.296 103.273 49.7744 103.578 50.6514 103.578H61.6333C64.3905 103.578 66.6295 105.814 66.6295 108.567C66.6295 111.326 64.3902 113.555 61.6333 113.555H47.0502C45.5418 113.555 44.0472 112.865 43.0705 111.572L41.5823 109.608V127.247H20.2492C18.9801 127.022 17.977 126.02 17.7578 124.753Z" fill="url(#paint0_linear_7923_1741)"/>
<path fill-rule="evenodd" clip-rule="evenodd" d="M134.249 124.753V95.6305C134.249 92.0482 131.313 89.116 127.718 89.116H116.949C116.763 89.116 116.577 89.1226 116.391 89.1359C114.716 88.9768 113.002 89.6599 111.913 91.0929L103.149 102.689C102.744 103.22 102.273 103.578 101.356 103.578H90.3738C87.6101 103.578 85.3711 105.814 85.3711 108.567C85.3711 111.326 87.6101 113.555 90.3738 113.555H104.95C106.465 113.555 107.953 112.865 108.937 111.572L110.418 109.608V127.247H131.751C133.02 127.022 134.023 126.02 134.249 124.753Z" fill="url(#paint1_linear_7923_1741)"/>
<path fill-rule="evenodd" clip-rule="evenodd" d="M69.6245 58.9458H98.2459L105.487 66.1769C106.066 66.7474 106.723 66.4158 106.723 65.6594V58.9456C110.41 58.9456 113.427 55.9273 113.427 52.2454V35.3421C113.427 31.6604 110.411 28.6484 106.723 28.6484H69.6245C65.9373 28.6484 62.9141 31.6602 62.9141 35.3421V52.2454C62.9143 55.9276 65.9373 58.9458 69.6245 58.9458Z" fill="#ECF4FF"/>
<path fill-rule="evenodd" clip-rule="evenodd" d="M69.6245 58.9458H98.2459L105.487 66.1769C106.066 66.7474 106.723 66.4158 106.723 65.6594V58.9456C110.41 58.9456 113.427 55.9273 113.427 52.2454V35.3421C113.427 31.6604 110.411 28.6484 106.723 28.6484H69.6245C65.9373 28.6484 62.9141 31.6602 62.9141 35.3421V52.2454C62.9143 55.9276 65.9373 58.9458 69.6245 58.9458Z" fill="url(#paint2_linear_7923_1741)"/>
<path fill-rule="evenodd" clip-rule="evenodd" d="M36.0988 52.1929H66.2087C71.1051 52.1929 75.111 48.1926 75.111 43.3035V23.6406C75.111 18.7581 71.1048 14.7578 66.2087 14.7578H27.6215C22.7247 14.7578 18.7188 18.7581 18.7188 23.6406V43.3035C18.7188 48.1928 22.7249 52.1929 27.6215 52.1929V58.913C27.6215 59.6296 28.3258 59.9544 28.8573 59.4239L36.0988 52.1929Z" fill="#E2E4D9"/>
<path fill-rule="evenodd" clip-rule="evenodd" d="M85.4823 81.9462C85.4823 87.1538 81.2104 91.4192 75.9951 91.4192C70.7798 91.4192 66.5078 87.1536 66.5078 81.9462C66.5078 78.5631 66.5078 75.1797 66.5078 71.7964C66.5078 68.8776 68.8994 66.4961 71.8227 66.4961H84.067C85.0438 66.4961 85.4823 67.0533 85.4823 67.9026V81.9462Z" fill="#FFCBBE"/>
<path fill-rule="evenodd" clip-rule="evenodd" d="M66.5078 71.7966V74.8549H85.4823V67.9026C85.4823 67.0533 85.0438 66.4961 84.067 66.4961H71.8227C68.8996 66.4963 66.5078 68.878 66.5078 71.7966Z" fill="#E2E4D9"/>
<path fill-rule="evenodd" clip-rule="evenodd" d="M20.1797 81.9462C20.1797 87.1538 24.4516 91.4192 29.667 91.4192C34.8823 91.4192 39.1542 87.1536 39.1542 81.9462V71.7964C39.1542 68.8776 36.7624 66.4961 33.8391 66.4961H25.4883C22.5717 66.4961 20.1799 68.8778 20.1799 71.7964L20.1797 81.9462Z" fill="#FFCBBE"/>
<path fill-rule="evenodd" clip-rule="evenodd" d="M131.811 81.9462C131.811 87.1538 127.546 91.4192 122.331 91.4192C117.109 91.4192 112.844 87.1536 112.844 81.9462V71.7964C112.844 68.8776 115.229 66.4961 118.152 66.4961H126.503C129.426 66.4961 131.811 68.8778 131.811 71.7964V81.9462Z" fill="#C68B87"/>
<path fill-rule="evenodd" clip-rule="evenodd" d="M39.1545 71.7964V75.4849C36.477 76.4734 34.2846 75.6642 33.0023 74.9342C32.0058 74.3705 31.833 74.3637 31.7135 75.2792C31.3678 77.9394 30.1655 85.2832 20.193 82.2781L20.1797 71.7964C20.1797 68.8776 22.5715 66.4961 25.488 66.4961H33.8395C36.7627 66.4961 39.1545 68.8778 39.1545 71.7964Z" fill="#E2E4D9"/>
<path fill-rule="evenodd" clip-rule="evenodd" d="M112.844 71.7964V75.4849C115.514 76.4734 117.707 75.6642 118.989 74.9342C119.992 74.3705 120.158 74.3637 120.278 75.2792C120.624 77.9394 121.826 85.2832 131.805 82.2781L131.812 71.7964C131.818 68.8776 129.426 66.4961 126.503 66.4961H118.152C115.229 66.4961 112.844 68.8778 112.844 71.7964Z" fill="#E2E4D9"/>
<path d="M22.4179 84.593C22.81 85.6543 23.4278 86.6096 24.2184 87.3924C25.6202 88.7922 27.5472 89.6611 29.673 89.6611C31.7924 89.6611 33.7258 88.7922 35.1273 87.3924C36.5291 85.993 37.3996 84.0624 37.3996 81.9461V77.654C35.7719 77.7935 34.3434 77.4418 33.2273 76.9772C33.1274 77.4614 33.0147 77.9325 32.8684 78.3968C32.317 80.1879 31.3935 81.82 29.932 82.9941C28.4505 84.1884 26.4838 84.8783 23.8795 84.7456C23.4145 84.7254 22.9293 84.6726 22.4179 84.593ZM67.9546 73.0963H83.4079V68.247H71.5089C70.5323 68.247 69.6419 68.6519 68.9976 69.2952C68.3531 69.9388 67.9546 70.8211 67.9546 71.7963V73.0963ZM83.4077 76.6058H67.9544V81.9459C67.9544 84.0622 68.8246 85.9927 70.2264 87.3922C71.628 88.7919 73.5613 89.6609 75.6808 89.6609C77.8066 89.6609 79.7399 88.7919 81.1354 87.3922C82.537 85.9927 83.4074 84.0622 83.4074 81.9459L83.4077 76.6058ZM131.575 88.3213C132.519 88.8189 133.349 89.4957 134.033 90.2981C135.262 91.7444 136 93.6085 136 95.6317V107.467C136 108.435 135.216 109.218 134.246 109.218C133.276 109.218 132.485 108.435 132.485 107.467V95.6317C132.485 94.4643 132.06 93.3894 131.356 92.5603C130.732 91.8238 129.888 91.2799 128.924 91.0213C127.071 92.3745 124.792 93.1708 122.334 93.1708C119.789 93.1708 117.437 92.3216 115.544 90.882C115.185 90.9218 114.84 91.0215 114.507 91.1739C114.055 91.3861 113.644 91.7114 113.311 92.1491L103.87 104.634C103.538 105.072 103.02 105.338 102.469 105.338H90.3707C89.4738 105.338 88.6633 105.696 88.0788 106.279C87.494 106.87 87.1286 107.679 87.1286 108.568C87.1286 109.463 87.494 110.273 88.0788 110.857C88.6633 111.44 89.4738 111.805 90.3707 111.805H104.821C105.399 111.805 105.844 111.746 106.395 111.467C107.419 110.956 108.375 109.404 109.073 108.475L115.325 100.216C115.909 99.44 117.006 99.2872 117.783 99.8711C118.554 100.455 118.706 101.556 118.122 102.325L112.176 110.193V125.491H132.485V115.414C132.485 114.445 133.276 113.663 134.246 113.663C135.216 113.663 136 114.445 136 115.414V127.249C136 128.217 135.216 129 134.246 129C95.413 129 56.587 129 17.7606 129C16.7905 129 16 128.217 16 127.249V115.414C16 114.445 16.7905 113.663 17.7606 113.663C18.7307 113.663 19.5145 114.445 19.5145 115.414V125.491H39.8312V110.193L33.8786 102.325C33.2941 101.556 33.4466 100.455 34.2243 99.8711C34.9949 99.2872 36.0977 99.4398 36.6824 100.216L42.7945 108.296C43.3527 109.032 43.9108 109.775 44.4686 110.518C44.7873 110.936 45.1795 111.255 45.6114 111.467C46.0966 111.713 46.5482 111.805 47.08 111.805H61.6361C62.5265 111.805 63.337 111.44 63.928 110.857C64.5128 110.273 64.8714 109.463 64.8714 108.568C64.8714 107.679 64.5128 106.87 63.928 106.279C63.337 105.696 62.5265 105.338 61.6361 105.338H49.5313C48.9998 105.338 48.475 105.092 48.1298 104.634L38.6889 92.1491C38.1508 91.4395 37.3466 90.9817 36.4567 90.882C34.5698 92.315 32.218 93.1708 29.6734 93.1708C27.2155 93.1708 24.9297 92.3747 23.0763 91.0281C22.1329 91.2736 21.2957 91.8109 20.6711 92.5273C19.9534 93.363 19.5149 94.4444 19.5149 95.6319V107.467C19.5149 108.435 18.7309 109.218 17.7611 109.218C16.7912 109.218 16 108.435 16 107.467V95.6317C16 93.5818 16.7641 91.6913 18.0196 90.2385C18.6974 89.4624 19.5145 88.8055 20.4313 88.3213C19.1226 86.4439 18.4316 84.2281 18.4316 81.9461V71.7963C18.4316 69.8524 19.2222 68.0879 20.5045 66.8077C21.787 65.5341 23.5473 64.738 25.4941 64.738H33.8453C35.792 64.738 37.5592 65.5339 38.8413 66.8077C40.1235 68.0881 40.9143 69.8527 40.9143 71.7963V81.9461C40.9143 84.1949 40.2433 86.2981 39.0937 88.0559C40.0438 88.5336 40.8475 89.1905 41.492 90.0396L50.4016 101.821H57.437V94.7033C57.437 92.6867 58.5067 90.8622 60.2409 89.3164C61.5829 88.1224 63.3501 87.0807 65.3034 86.2583C64.7453 84.9248 64.4395 83.472 64.4395 81.9461V74.8546V71.7963C64.4395 69.8524 65.2368 68.0879 66.5127 66.8077C67.795 65.5341 69.5622 64.738 71.5087 64.738H85.1681C86.1381 64.738 86.9289 65.5273 86.9289 66.496V74.8548V81.9464C86.9289 83.3859 86.65 84.7659 86.1515 86.0395C88.251 86.8621 90.1511 87.9235 91.5864 89.1573C93.4265 90.7363 94.5627 92.6202 94.5627 94.7033V101.821H101.598L110.508 90.0396C111.166 89.1769 111.989 88.5137 112.913 88.0627C111.757 86.2981 111.086 84.1951 111.086 81.9461V71.7963C111.086 69.8524 111.883 68.0879 113.159 66.8077C114.441 65.5341 116.208 64.738 118.155 64.738H126.506C128.453 64.738 130.22 65.5339 131.502 66.8077C132.778 68.0881 133.575 69.8527 133.575 71.7963V81.9461C133.575 84.2279 132.877 86.4437 131.575 88.3213ZM129.582 84.593C129.077 84.6726 128.586 84.7254 128.121 84.7456C125.523 84.878 123.556 84.1881 122.075 82.9941C120.606 81.82 119.683 80.1881 119.131 78.3968C118.992 77.9325 118.872 77.4614 118.779 76.9772C117.656 77.4415 116.235 77.7933 114.6 77.654V81.9461C114.6 84.0624 115.471 85.993 116.872 87.3924C118.274 88.7922 120.208 89.6611 122.334 89.6611C124.453 89.6611 126.386 88.7922 127.788 87.3924C128.572 86.6096 129.19 85.6543 129.582 84.593ZM114.6 74.138C116.946 74.4696 118.66 73.1097 118.965 72.8445C119.311 72.5524 119.636 72.3734 120.108 72.3535C121.078 72.3069 121.895 73.05 121.941 74.0184C122.001 75.1595 122.161 76.3137 122.486 77.3685C122.845 78.5429 123.41 79.5775 124.267 80.2674C125.111 80.9442 126.3 81.329 127.954 81.2492C128.592 81.216 129.29 81.1167 130.06 80.944V71.7958C130.06 70.8206 129.655 69.9383 129.01 69.2947C128.366 68.6514 127.482 68.2465 126.505 68.2465H118.155C117.178 68.2465 116.294 68.6514 115.65 69.2947C115.005 69.9383 114.6 70.8206 114.6 71.7958V74.138ZM37.3998 74.138V71.7961C37.3998 70.8209 37.0012 69.9386 36.3566 69.295C35.7123 68.6516 34.822 68.2468 33.8453 68.2468H25.4941C24.524 68.2468 23.6336 68.6516 22.9891 69.295C22.3448 69.9386 21.9461 70.8209 21.9461 71.7961V80.9442C22.7102 81.1167 23.4077 81.2162 24.0456 81.2494C25.6998 81.3292 26.8893 80.9442 27.733 80.2677C28.5899 79.578 29.1545 78.5431 29.5202 77.3688C29.8457 76.3137 30.0051 75.1598 30.0583 74.0186C30.1047 73.05 30.9285 72.3072 31.8918 72.3537C32.3437 72.3736 32.6891 72.5393 33.0212 72.8312C33.2673 73.05 35.008 74.4761 37.3998 74.138ZM67.1838 89.2766C65.35 89.9864 63.7291 90.8886 62.5729 91.9235C61.5698 92.8126 60.9517 93.7679 60.9517 94.7033V101.821H61.6361C63.4966 101.821 65.1904 102.578 66.4131 103.798C67.6356 105.019 68.3929 106.704 68.3929 108.568C68.3929 109.742 68.0873 110.844 67.5625 111.805H84.4375C83.9127 110.844 83.6137 109.742 83.6137 108.568C83.6137 106.704 84.3709 105.019 85.5934 103.798C86.8162 102.578 88.5034 101.821 90.3705 101.821H91.0483V94.7033C91.0483 93.7346 90.3838 92.7395 89.3076 91.8175C88.045 90.7363 86.2912 89.8008 84.3379 89.091C84.112 89.363 83.8729 89.6284 83.627 89.8739C81.5873 91.9104 78.7771 93.1711 75.6813 93.1711C72.5917 93.1711 69.775 91.9104 67.742 89.8739C67.5491 89.681 67.3631 89.4823 67.1838 89.2766ZM30.6496 25.9956C29.6795 25.9956 28.8958 25.2063 28.8958 24.2376C28.8958 23.269 29.6798 22.4864 30.6496 22.4864H63.1907C64.1608 22.4864 64.9445 23.2692 64.9445 24.2376C64.9445 25.2063 64.1605 25.9956 63.1907 25.9956H30.6496ZM30.6496 44.4645C29.6795 44.4645 28.8958 43.6751 28.8958 42.7065C28.8958 41.7378 29.6798 40.9484 30.6496 40.9484H46.9204C47.8905 40.9484 48.681 41.7378 48.681 42.7065C48.681 43.6751 47.8905 44.4645 46.9204 44.4645H30.6496ZM30.6496 35.2302C29.6795 35.2302 28.8958 34.4408 28.8958 33.4722C28.8958 32.5035 29.6798 31.7207 30.6496 31.7207H63.1907C64.1608 31.7207 64.9445 32.5037 64.9445 33.4722C64.9445 34.4408 64.1605 35.2302 63.1907 35.2302H30.6496ZM64.9912 53.9443C65.237 54.6277 65.6289 55.2378 66.1274 55.7353C67.0178 56.631 68.2534 57.1882 69.6285 57.1882H79.9595C80.9296 57.1882 81.7134 57.9712 81.7134 58.9462C81.7134 59.9149 80.9294 60.6977 79.9595 60.6977H69.6285C67.2834 60.6977 65.1705 59.7424 63.6423 58.2032C62.4998 57.0557 61.6891 55.583 61.3436 53.9443H36.835L28.8759 61.8917C28.5571 62.2102 28.1186 62.4091 27.6269 62.4091C26.6568 62.4091 25.866 61.6263 25.866 60.6579V53.7985C23.6338 53.4269 21.6339 52.359 20.0995 50.8198C18.1661 48.8958 16.9703 46.2356 16.9703 43.3035V23.6408C16.9703 20.7152 18.1663 18.055 20.0995 16.1248C22.0262 14.2008 24.6902 13 27.6269 13H66.2141C69.1504 13 71.8148 14.2008 73.7413 16.1248C75.6747 18.055 76.8707 20.7152 76.8707 23.6408V26.8915H106.728C109.06 26.8915 111.173 27.8402 112.707 29.3727C114.242 30.9051 115.192 33.0146 115.192 35.3432V52.2464C115.192 54.575 114.242 56.6846 112.707 58.217C111.571 59.3516 110.11 60.1674 108.482 60.5126V67.4117C108.482 67.8562 108.316 68.3071 107.97 68.6523C107.286 69.3355 106.17 69.3355 105.486 68.6523L97.5196 60.6984H87.9194C86.9493 60.6984 86.1588 59.9153 86.1588 58.9469C86.1588 57.9719 86.9493 57.1889 87.9194 57.1889H98.2504C98.7421 57.1889 99.1806 57.3881 99.4994 57.7129L104.967 63.1725V58.9467C104.967 57.9717 105.758 57.1887 106.728 57.1887C108.083 57.1887 109.326 56.6314 110.222 55.7358C111.119 54.8404 111.677 53.6064 111.677 52.2464V35.3432C111.677 33.9833 111.119 32.7495 110.222 31.8538C109.326 30.9582 108.083 30.401 106.728 30.401H76.8705V43.3039C76.8705 46.2361 75.6745 48.8963 73.7411 50.8203C71.8143 52.7505 69.1502 53.9448 66.2139 53.9448L64.9912 53.9443ZM36.104 50.4351H66.2139C68.1803 50.4351 69.9609 49.6323 71.2565 48.3389C72.5519 47.0451 73.3558 45.2607 73.3558 43.3035V23.6408C73.3558 21.6839 72.5519 19.8994 71.2565 18.6057C69.9611 17.312 68.1803 16.5093 66.2139 16.5093H27.6266C25.6598 16.5093 23.8795 17.312 22.5838 18.6057C21.2884 19.8992 20.4843 21.6836 20.4843 23.6408V43.3037C20.4843 45.2607 21.2884 47.0451 22.5838 48.3391C23.8792 49.6326 25.6598 50.4353 27.6266 50.4353C28.5967 50.4353 29.3805 51.2247 29.3805 52.1933V56.4192L34.8616 50.953C35.2073 50.6075 35.6526 50.4351 36.104 50.4351ZM108.661 115.314H43.3457V125.491H108.661L108.661 115.314Z" fill="#1A323C"/>
<defs>
<linearGradient id="paint0_linear_7923_1741" x1="29.8485" y1="96.1103" x2="52.2971" y2="115.863" gradientUnits="userSpaceOnUse">
<stop stop-color="#CCF5F2"/>
<stop offset="0.940779" stop-color="#9ADDD7"/>
</linearGradient>
<linearGradient id="paint1_linear_7923_1741" x1="91.1297" y1="100.782" x2="130.796" y2="104.775" gradientUnits="userSpaceOnUse">
<stop stop-color="#284F58"/>
<stop offset="1" stop-color="#1E3943"/>
</linearGradient>
<linearGradient id="paint2_linear_7923_1741" x1="75.4108" y1="35.5872" x2="97.7711" y2="56.0932" gradientUnits="userSpaceOnUse">
<stop stop-color="#CCF5F2"/>
<stop offset="0.940779" stop-color="#9ADDD7"/>
</linearGradient>
</defs>
</svg>
