<svg width="152" height="142" viewBox="0 0 152 142" fill="none" xmlns="http://www.w3.org/2000/svg">
<path d="M133.063 103.987C132.653 107.684 129.617 110.573 125.855 110.833C125.544 110.854 125.235 110.876 124.925 110.896C122.632 111.049 120.848 112.928 120.848 115.197V123.773C120.848 126.658 117.501 128.295 115.176 126.548C110.931 123.358 105.284 118.613 101.82 113.694C101 112.529 99.6459 111.85 98.2076 111.858C87.5405 111.911 76.8731 111.572 66.2058 110.833C63.2317 110.628 60.7066 108.784 59.5817 106.191C59.2826 105.51 59.0832 104.774 58.9974 104.005C57.4175 89.7676 57.4175 75.5286 58.9974 61.2895C59.4083 57.5959 62.446 54.7211 66.202 54.4614C82.0931 53.3614 97.9824 53.141 113.872 53.8003C117.865 53.9635 121.86 54.1839 125.853 54.4614C129.611 54.7211 132.651 57.5961 133.062 61.2895C134.641 75.5226 134.641 89.7537 133.063 103.987Z" fill="#E2E4D9"/>
<path d="M88.4556 98.6709C88.4603 100.991 90.3683 102.87 92.7202 102.87H110.924C112.817 102.87 114.351 101.356 114.351 99.4876C114.351 98.5541 113.968 97.7077 113.348 97.0959C112.728 96.484 111.87 96.1055 110.924 96.1055H112.154C114.047 96.1055 115.582 94.5927 115.582 92.7233C115.582 91.7886 115.2 90.9443 114.578 90.3316C113.959 89.7197 113.102 89.3423 112.154 89.3423H113.386C115.255 89.3423 116.775 87.8644 116.812 86.0279C116.85 84.1301 115.232 82.5782 113.308 82.5782H112.154C114.047 82.5782 115.582 81.0645 115.582 79.1951C115.582 78.2604 115.2 77.4162 114.577 76.8034C113.958 76.1915 113.102 75.8141 112.154 75.8141H102.512C102.498 75.7928 102.495 75.7864 102.481 75.7651L106.241 67.8633C107.307 65.623 106.33 62.9542 104.059 61.9018C103.436 61.6128 102.779 61.4766 102.132 61.4766C100.426 61.4766 98.7904 62.4297 98.0166 64.0549L96.4091 67.4339C95.4596 69.4286 93.9384 71.1148 92.0126 72.2294C90.7412 72.9645 89.6822 74.0856 89.0355 75.5209C88.5944 76.5002 88.3965 77.532 88.4153 78.5453L88.4556 98.6709Z" fill="url(#paint0_linear_7923_3665)"/>
<path d="M77.75 78.543V99.6335C77.75 101.096 78.952 102.282 80.4345 102.282H85.7279C87.2107 102.282 88.4124 101.096 88.4124 99.6335V78.543C88.4124 77.0801 87.2105 75.8945 85.7279 75.8945H80.4345C78.952 75.8945 77.75 77.0803 77.75 78.543Z" fill="url(#paint1_linear_7923_3665)"/>
<path d="M18.8877 63.345C19.2829 66.9004 22.202 69.6781 25.8192 69.9278C26.1186 69.9486 26.4158 69.9694 26.713 69.9884C28.9186 70.1359 30.6333 71.9431 30.6333 74.1246V82.3708C30.6333 85.1448 33.8515 86.7191 36.0881 85.0389C40.1697 81.9716 45.5994 77.4095 48.9309 72.6791C49.7192 71.559 51.0215 70.9062 52.4044 70.9138C62.6618 70.9649 72.9192 70.6396 83.1766 69.928C86.0363 69.7313 88.4646 67.9583 89.5464 65.4644C89.834 64.8097 90.0259 64.1021 90.1082 63.3621C91.6273 49.6721 91.6273 35.9804 90.1082 22.2885C89.713 18.7368 86.792 15.9723 83.1804 15.7226C67.8999 14.6648 52.6212 14.4528 37.3426 15.0869C33.5027 15.2439 29.6612 15.4559 25.8213 15.7226C22.2079 15.9723 19.2847 18.7368 18.8898 22.2885C17.3704 35.9744 17.3704 49.6586 18.8877 63.345Z" fill="url(#paint2_linear_7923_3665)"/>
<path d="M134.808 61.1007C134.305 56.5705 130.59 53.0514 125.976 52.7332C121.931 52.4522 117.882 52.2286 113.944 52.0691C106.928 51.7782 99.8219 51.66 92.7895 51.712C93.2562 41.8377 92.9487 31.9209 91.8576 22.102C91.3712 17.7126 87.7748 14.3024 83.3068 13.9935C68.026 12.9367 52.5376 12.7217 37.2728 13.3548C33.4594 13.5111 29.5659 13.7259 25.7002 13.9935C21.2322 14.3024 17.6342 17.7121 17.1448 22.1018C15.6193 35.8437 15.6184 49.7842 17.1422 63.5369C17.6325 67.9347 21.2317 71.3501 25.699 71.6586L26.5987 71.7215C27.8778 71.8059 28.8796 72.862 28.8796 74.1255V82.3714C28.8796 84.3201 29.9784 86.0674 31.7479 86.9318C32.479 87.289 33.2621 87.4648 34.0403 87.4648C35.1436 87.4648 36.2368 87.1112 37.1563 86.42C38.9023 85.1091 40.564 83.7735 42.095 82.4503C42.8252 81.8192 42.8988 80.7234 42.2589 80.003C41.6192 79.2825 40.5084 79.2101 39.7783 79.8412C38.3077 81.1121 36.7089 82.3969 35.0261 83.6604C34.5198 84.041 33.8778 84.1016 33.308 83.8234C32.7366 83.5441 32.3953 83.0013 32.3953 82.3714V74.1255C32.3953 71.0426 29.9522 68.4663 26.8399 68.261L25.9456 68.1983C23.1739 68.007 20.941 65.887 20.6373 63.1588C19.1411 49.6574 19.1421 35.9708 20.6396 22.4801C20.9429 19.7591 23.1746 17.6451 25.9463 17.4534C29.7789 17.1881 33.6385 16.9751 37.4198 16.8202C52.5536 16.1928 67.9103 16.4056 83.0609 17.4534C85.8312 17.6451 88.0611 19.7586 88.3627 22.4794C89.8629 35.9822 89.8629 49.6741 88.3625 63.175C88.3008 63.7318 88.1572 64.2715 87.934 64.7826C87.0841 66.741 85.2152 68.0496 83.0558 68.1983C72.9327 68.9013 62.626 69.2315 52.42 69.1813C52.4061 69.1813 52.3925 69.1813 52.3789 69.1813C50.4227 69.1813 48.5977 70.1174 47.4908 71.6898C46.7138 72.7922 45.7643 73.9556 44.6687 75.1483C44.0169 75.858 44.0715 76.9548 44.7908 77.5981C45.51 78.2412 46.6219 78.1875 47.274 77.4776C48.4704 76.1753 49.5144 74.8944 50.3781 73.6695C50.8277 73.0303 51.5745 72.6502 52.3818 72.6502H52.3989C53.7016 72.6567 55.0061 72.6567 56.3114 72.6509C55.7742 83.1262 56.0883 93.7285 57.2492 104.198C57.3547 105.132 57.5959 106.034 57.9639 106.873C59.3787 110.137 62.4898 112.317 66.0808 112.563C76.7102 113.3 87.5231 113.645 98.2174 113.593H98.235C99.0952 113.593 99.8948 114 100.376 114.685C103.993 119.819 109.841 124.72 114.11 127.927C115.055 128.637 116.177 129 117.309 129C118.108 129 118.912 128.82 119.663 128.453C121.478 127.566 122.606 125.773 122.606 123.773V115.198C122.606 113.848 123.676 112.718 125.044 112.628L125.084 112.625C125.384 112.605 125.684 112.585 125.977 112.563C130.592 112.245 134.306 108.718 134.81 104.176C134.862 103.708 134.911 103.24 134.961 102.77C135.061 101.817 134.36 100.965 133.394 100.866C132.426 100.766 131.564 101.459 131.464 102.412C131.415 102.876 131.366 103.338 131.315 103.799C130.997 106.671 128.649 108.901 125.723 109.103C125.428 109.125 125.136 109.145 124.844 109.164L124.806 109.167C121.601 109.38 119.09 112.03 119.09 115.198V123.773C119.09 124.455 118.721 125.043 118.102 125.345C117.485 125.646 116.789 125.58 116.241 125.168C112.173 122.111 106.618 117.469 103.264 112.706C102.126 111.088 100.248 110.125 98.2378 110.125C98.2242 110.125 98.2109 110.125 98.1973 110.125C87.5911 110.177 76.8696 109.834 66.3262 109.102C64.0556 108.947 62.0904 107.57 61.1941 105.504C60.9623 104.974 60.8106 104.406 60.7441 103.818C59.5962 93.4649 59.2917 82.9777 59.8344 72.619C67.6803 72.5177 75.545 72.1969 83.3012 71.6584C86.781 71.419 89.7944 69.3076 91.1642 66.1518C91.5245 65.3272 91.7577 64.4524 91.8573 63.5524C92.1665 60.7694 92.41 57.978 92.594 55.1821C99.6395 55.1261 106.764 55.2427 113.798 55.5343C117.703 55.6927 121.718 55.9142 125.73 56.1928C128.647 56.394 130.995 58.6165 131.313 61.4777C132.569 72.7984 132.816 84.2688 132.046 95.5696C131.981 96.5254 132.714 97.3521 133.682 97.4161C133.723 97.4189 133.762 97.4203 133.802 97.4203C134.719 97.4203 135.492 96.7182 135.555 95.802C136.338 84.2991 136.087 72.6236 134.808 61.1007Z" fill="#1A323C"/>
<path d="M118.569 86.0671C118.597 84.7035 118.072 83.4081 117.089 82.4193C116.916 82.2447 116.731 82.083 116.536 81.9353C117.045 81.1435 117.341 80.2049 117.341 79.1992C117.341 77.8309 116.8 76.5457 115.822 75.5821C114.844 74.616 113.542 74.0839 112.155 74.0839H105.225L107.832 68.6048C109.31 65.5031 107.953 61.7938 104.808 60.336C103.963 59.9447 103.063 59.7461 102.133 59.7461C99.7008 59.7461 97.4604 61.1495 96.4261 63.3218L94.819 66.7C94.0029 68.4145 92.7249 69.8105 91.1245 70.7369C89.5683 71.6366 88.3445 72.9566 87.5598 74.5595C87.0015 74.3096 86.3838 74.1669 85.7317 74.1669H80.4381C77.9887 74.1669 75.9961 76.1327 75.9961 78.5494V99.6404C75.9961 102.057 77.9887 104.023 80.4381 104.023H85.7317C86.5681 104.023 87.3484 103.789 88.0171 103.391C89.2688 104.182 90.7244 104.608 92.2454 104.608H110.924C113.783 104.608 116.109 102.313 116.109 99.4919C116.109 98.8611 115.994 98.2446 115.767 97.6589C115.762 97.6434 115.756 97.6279 115.749 97.6124C115.632 97.3194 115.489 97.0405 115.322 96.7772C116.549 95.8406 117.341 94.3736 117.341 92.7279C117.341 91.7495 117.065 90.8132 116.549 90.0066C117.749 89.0876 118.538 87.6632 118.569 86.0671ZM80.4374 100.554C79.9267 100.554 79.5113 100.144 79.5113 99.6404V78.5494C79.5113 78.0455 79.9267 77.6355 80.4374 77.6355H85.731C86.242 77.6355 86.6574 78.0455 86.6574 78.5494V99.6404C86.6574 100.144 86.242 100.554 85.731 100.554H80.4374ZM113.386 87.6123H112.154C111.183 87.6123 110.396 88.3888 110.396 89.3466C110.396 90.3044 111.183 91.0809 112.154 91.0809C112.601 91.0809 113.02 91.2514 113.336 91.5631C113.651 91.8736 113.825 92.2871 113.825 92.7276C113.825 93.6362 113.075 94.3755 112.154 94.3755H110.924C109.953 94.3755 109.166 95.152 109.166 96.1098C109.166 97.0676 109.953 97.8441 110.924 97.8441C111.37 97.8441 111.79 98.0155 112.105 98.326C112.263 98.4816 112.385 98.6632 112.47 98.866C112.473 98.872 112.475 98.878 112.477 98.884C112.554 99.0769 112.593 99.2813 112.593 99.4917C112.593 100.4 111.844 101.14 110.924 101.14H92.2449C91.4695 101.14 90.7267 100.936 90.0728 100.562C90.1374 100.264 90.1735 99.9563 90.1735 99.6402C90.1735 99.6402 90.1735 78.5228 90.1733 78.517C90.1585 77.7227 90.316 76.9529 90.6421 76.2291C91.1177 75.1735 91.8989 74.3091 92.9024 73.7291C95.1184 72.4467 96.8815 70.5257 98.001 68.1744L99.608 64.7962C100.066 63.8356 101.057 63.2147 102.133 63.2147C102.542 63.2147 102.939 63.3024 103.312 63.4754C104.702 64.1198 105.302 65.7591 104.649 67.1302L100.889 75.032C100.64 75.5553 100.672 76.1669 100.974 76.6625C101.001 76.7069 101.017 76.7304 101.034 76.7557C101.357 77.2521 101.914 77.5525 102.513 77.5525H112.154C112.601 77.5525 113.02 77.7229 113.336 78.0349C113.651 78.3452 113.825 78.7589 113.825 79.1992C113.825 80.1084 113.075 80.848 112.154 80.848C111.183 80.848 110.396 81.6245 110.396 82.5823C110.396 83.5401 111.183 84.3166 112.154 84.3166H113.308C113.781 84.3166 114.243 84.5099 114.578 84.8469C114.894 85.1646 115.063 85.573 115.054 85.998C115.036 86.8883 114.288 87.6123 113.386 87.6123Z" fill="#1A323C"/>
<path d="M70.7384 35.3627C70.7384 31.8263 68.9835 28.9492 66.8261 28.9492C64.669 28.9492 62.9141 31.8263 62.9141 35.3627C62.9141 38.8992 64.669 41.7763 66.8261 41.7763C68.9835 41.7763 70.7384 38.8992 70.7384 35.3627Z" fill="#1A323C"/>
<path d="M46.09 35.3627C46.09 31.8263 44.3351 28.9492 42.1777 28.9492C40.0205 28.9492 38.2656 31.8263 38.2656 35.3627C38.2656 38.8992 40.0205 41.7763 42.1777 41.7763C44.3351 41.7763 46.09 38.8992 46.09 35.3627Z" fill="#1A323C"/>
<path d="M54.5037 58.2028C60.808 58.2028 66.4652 54.4978 68.9155 48.7639C69.2927 47.8812 68.8731 46.8642 67.9787 46.4919C67.0833 46.1203 66.0529 46.5338 65.6757 47.4164C63.7762 51.8618 59.3909 54.7341 54.5037 54.7341C49.6163 54.7341 45.231 51.8618 43.3315 47.4164C42.9545 46.5338 41.9227 46.1205 41.0285 46.4919C40.1341 46.864 39.7145 47.8812 40.0916 48.7639C42.5418 54.4978 48.1989 58.2028 54.5037 58.2028Z" fill="#1A323C"/>
<defs>
<linearGradient id="paint0_linear_7923_3665" x1="95.4397" y1="69.0716" x2="114.381" y2="77.9933" gradientUnits="userSpaceOnUse">
<stop stop-color="#CCF5F2"/>
<stop offset="0.940779" stop-color="#9ADDD7"/>
</linearGradient>
<linearGradient id="paint1_linear_7923_3665" x1="79.0062" y1="83.9691" x2="87.738" y2="84.2461" gradientUnits="userSpaceOnUse">
<stop stop-color="#284F58"/>
<stop offset="1" stop-color="#1E3943"/>
</linearGradient>
<linearGradient id="paint2_linear_7923_3665" x1="35.9331" y1="27.7578" x2="75.7287" y2="56.0414" gradientUnits="userSpaceOnUse">
<stop stop-color="#CCF5F2"/>
<stop offset="0.940779" stop-color="#9ADDD7"/>
</linearGradient>
</defs>
</svg>
