<svg width="372" height="357" viewBox="0 0 372 357" fill="none" xmlns="http://www.w3.org/2000/svg">
<path d="M167.674 36.1836C166.89 36.1836 166.139 36.081 165.42 35.8756C164.701 35.661 164.123 35.3856 163.684 35.0496L164.454 33.3416C164.874 33.6403 165.369 33.8876 165.938 34.0836C166.517 34.2703 167.1 34.3636 167.688 34.3636C168.136 34.3636 168.495 34.3216 168.766 34.2376C169.046 34.1443 169.251 34.0183 169.382 33.8596C169.513 33.701 169.578 33.519 169.578 33.3136C169.578 33.0523 169.475 32.847 169.27 32.6976C169.065 32.539 168.794 32.413 168.458 32.3196C168.122 32.217 167.749 32.1236 167.338 32.0396C166.937 31.9463 166.531 31.8343 166.12 31.7036C165.719 31.573 165.35 31.405 165.014 31.1996C164.678 30.9943 164.403 30.7236 164.188 30.3876C163.983 30.0516 163.88 29.6223 163.88 29.0996C163.88 28.5396 164.029 28.031 164.328 27.5736C164.636 27.107 165.093 26.7383 165.7 26.4676C166.316 26.1876 167.086 26.0476 168.01 26.0476C168.626 26.0476 169.233 26.1223 169.83 26.2716C170.427 26.4116 170.955 26.6263 171.412 26.9156L170.712 28.6376C170.255 28.3763 169.797 28.185 169.34 28.0636C168.883 27.933 168.435 27.8676 167.996 27.8676C167.557 27.8676 167.198 27.919 166.918 28.0216C166.638 28.1243 166.437 28.2596 166.316 28.4276C166.195 28.5863 166.134 28.773 166.134 28.9876C166.134 29.2396 166.237 29.445 166.442 29.6036C166.647 29.753 166.918 29.8743 167.254 29.9676C167.59 30.061 167.959 30.1543 168.36 30.2476C168.771 30.341 169.177 30.4483 169.578 30.5696C169.989 30.691 170.362 30.8543 170.698 31.0596C171.034 31.265 171.305 31.5356 171.51 31.8716C171.725 32.2076 171.832 32.6323 171.832 33.1456C171.832 33.6963 171.678 34.2003 171.37 34.6576C171.062 35.115 170.6 35.4836 169.984 35.7636C169.377 36.0436 168.607 36.1836 167.674 36.1836ZM175.034 34.4756L175.09 31.8156L178.604 28.4836H181.208L177.834 31.9136L176.7 32.8376L175.034 34.4756ZM173.228 36.0156V25.6276H175.412V36.0156H173.228ZM178.842 36.0156L176.294 32.8516L177.666 31.1576L181.488 36.0156H178.842ZM182.402 36.0156V28.4836H184.586V36.0156H182.402ZM183.494 27.4336C183.092 27.4336 182.766 27.317 182.514 27.0836C182.262 26.8503 182.136 26.561 182.136 26.2156C182.136 25.8703 182.262 25.581 182.514 25.3476C182.766 25.1143 183.092 24.9976 183.494 24.9976C183.895 24.9976 184.222 25.1096 184.474 25.3336C184.726 25.5483 184.852 25.8283 184.852 26.1736C184.852 26.5376 184.726 26.841 184.474 27.0836C184.231 27.317 183.904 27.4336 183.494 27.4336ZM186.612 36.0156V25.6276H188.796V36.0156H186.612ZM190.823 36.0156V25.6276H193.007V36.0156H190.823ZM197.865 36.0156L202.233 26.2156H204.473L208.855 36.0156H206.475L202.891 27.3636H203.787L200.189 36.0156H197.865ZM200.049 33.9156L200.651 32.1936H205.691L206.307 33.9156H200.049Z" fill="#1A323C"/>
<path d="M167.25 330.871C166.466 330.871 165.715 330.768 164.996 330.563C164.277 330.348 163.699 330.073 163.26 329.737L164.03 328.029C164.45 328.328 164.945 328.575 165.514 328.771C166.093 328.958 166.676 329.051 167.264 329.051C167.712 329.051 168.071 329.009 168.342 328.925C168.622 328.832 168.827 328.706 168.958 328.547C169.089 328.388 169.154 328.206 169.154 328.001C169.154 327.74 169.051 327.534 168.846 327.385C168.641 327.226 168.37 327.1 168.034 327.007C167.698 326.904 167.325 326.811 166.914 326.727C166.513 326.634 166.107 326.522 165.696 326.391C165.295 326.26 164.926 326.092 164.59 325.887C164.254 325.682 163.979 325.411 163.764 325.075C163.559 324.739 163.456 324.31 163.456 323.787C163.456 323.227 163.605 322.718 163.904 322.261C164.212 321.794 164.669 321.426 165.276 321.155C165.892 320.875 166.662 320.735 167.586 320.735C168.202 320.735 168.809 320.81 169.406 320.959C170.003 321.099 170.531 321.314 170.988 321.603L170.288 323.325C169.831 323.064 169.373 322.872 168.916 322.751C168.459 322.62 168.011 322.555 167.572 322.555C167.133 322.555 166.774 322.606 166.494 322.709C166.214 322.812 166.013 322.947 165.892 323.115C165.771 323.274 165.71 323.46 165.71 323.675C165.71 323.927 165.813 324.132 166.018 324.291C166.223 324.44 166.494 324.562 166.83 324.655C167.166 324.748 167.535 324.842 167.936 324.935C168.347 325.028 168.753 325.136 169.154 325.257C169.565 325.378 169.938 325.542 170.274 325.747C170.61 325.952 170.881 326.223 171.086 326.559C171.301 326.895 171.408 327.32 171.408 327.833C171.408 328.384 171.254 328.888 170.946 329.345C170.638 329.802 170.176 330.171 169.56 330.451C168.953 330.731 168.183 330.871 167.25 330.871ZM174.61 329.163L174.666 326.503L178.18 323.171H180.784L177.41 326.601L176.276 327.525L174.61 329.163ZM172.804 330.703V320.315H174.988V330.703H172.804ZM178.418 330.703L175.87 327.539L177.242 325.845L181.064 330.703H178.418ZM181.978 330.703V323.171H184.162V330.703H181.978ZM183.07 322.121C182.668 322.121 182.342 322.004 182.09 321.771C181.838 321.538 181.712 321.248 181.712 320.903C181.712 320.558 181.838 320.268 182.09 320.035C182.342 319.802 182.668 319.685 183.07 319.685C183.471 319.685 183.798 319.797 184.05 320.021C184.302 320.236 184.428 320.516 184.428 320.861C184.428 321.225 184.302 321.528 184.05 321.771C183.807 322.004 183.48 322.121 183.07 322.121ZM186.189 330.703V320.315H188.373V330.703H186.189ZM190.4 330.703V320.315H192.584V330.703H190.4ZM198.729 330.703V320.903H203.181C204.245 320.903 205.183 321.108 205.995 321.519C206.807 321.92 207.442 322.485 207.899 323.213C208.357 323.941 208.585 324.804 208.585 325.803C208.585 326.792 208.357 327.656 207.899 328.393C207.442 329.121 206.807 329.69 205.995 330.101C205.183 330.502 204.245 330.703 203.181 330.703H198.729ZM200.997 328.841H203.069C203.723 328.841 204.287 328.72 204.763 328.477C205.249 328.225 205.622 327.87 205.883 327.413C206.154 326.956 206.289 326.419 206.289 325.803C206.289 325.178 206.154 324.641 205.883 324.193C205.622 323.736 205.249 323.386 204.763 323.143C204.287 322.891 203.723 322.765 203.069 322.765H200.997V328.841Z" fill="#1A323C"/>
<path d="M316.273 114.684C315.489 114.684 314.737 114.581 314.019 114.376C313.3 114.161 312.721 113.886 312.283 113.55L313.053 111.842C313.473 112.14 313.967 112.388 314.537 112.584C315.115 112.77 315.699 112.864 316.287 112.864C316.735 112.864 317.094 112.822 317.365 112.738C317.645 112.644 317.85 112.518 317.981 112.36C318.111 112.201 318.177 112.019 318.177 111.814C318.177 111.552 318.074 111.347 317.869 111.198C317.663 111.039 317.393 110.913 317.057 110.82C316.721 110.717 316.347 110.624 315.937 110.54C315.535 110.446 315.129 110.334 314.719 110.204C314.317 110.073 313.949 109.905 313.613 109.7C313.277 109.494 313.001 109.224 312.787 108.888C312.581 108.552 312.479 108.122 312.479 107.6C312.479 107.04 312.628 106.531 312.927 106.074C313.235 105.607 313.692 105.238 314.299 104.968C314.915 104.688 315.685 104.548 316.609 104.548C317.225 104.548 317.831 104.622 318.429 104.772C319.026 104.912 319.553 105.126 320.011 105.416L319.311 107.138C318.853 106.876 318.396 106.685 317.939 106.564C317.481 106.433 317.033 106.368 316.595 106.368C316.156 106.368 315.797 106.419 315.517 106.522C315.237 106.624 315.036 106.76 314.915 106.928C314.793 107.086 314.733 107.273 314.733 107.488C314.733 107.74 314.835 107.945 315.041 108.104C315.246 108.253 315.517 108.374 315.853 108.468C316.189 108.561 316.557 108.654 316.959 108.748C317.369 108.841 317.775 108.948 318.177 109.07C318.587 109.191 318.961 109.354 319.297 109.56C319.633 109.765 319.903 110.036 320.109 110.372C320.323 110.708 320.431 111.132 320.431 111.646C320.431 112.196 320.277 112.7 319.969 113.158C319.661 113.615 319.199 113.984 318.583 114.264C317.976 114.544 317.206 114.684 316.273 114.684ZM323.632 112.976L323.688 110.316L327.202 106.984H329.806L326.432 110.414L325.298 111.338L323.632 112.976ZM321.826 114.516V104.128H324.01V114.516H321.826ZM327.44 114.516L324.892 111.352L326.264 109.658L330.086 114.516H327.44ZM331 114.516V106.984H333.184V114.516H331ZM332.092 105.934C331.691 105.934 331.364 105.817 331.112 105.584C330.86 105.35 330.734 105.061 330.734 104.716C330.734 104.37 330.86 104.081 331.112 103.848C331.364 103.614 331.691 103.498 332.092 103.498C332.494 103.498 332.82 103.61 333.072 103.834C333.324 104.048 333.45 104.328 333.45 104.674C333.45 105.038 333.324 105.341 333.072 105.584C332.83 105.817 332.503 105.934 332.092 105.934ZM335.211 114.516V104.128H337.395V114.516H335.211ZM339.422 114.516V104.128H341.606V114.516H339.422ZM347.752 114.516V104.716H352.54C353.772 104.716 354.696 104.949 355.312 105.416C355.937 105.882 356.25 106.498 356.25 107.264C356.25 107.777 356.124 108.225 355.872 108.608C355.62 108.981 355.275 109.27 354.836 109.476C354.397 109.681 353.893 109.784 353.324 109.784L353.59 109.21C354.206 109.21 354.752 109.312 355.228 109.518C355.704 109.714 356.073 110.008 356.334 110.4C356.605 110.792 356.74 111.272 356.74 111.842C356.74 112.682 356.409 113.34 355.746 113.816C355.083 114.282 354.108 114.516 352.82 114.516H347.752ZM350.006 112.808H352.652C353.24 112.808 353.683 112.714 353.982 112.528C354.29 112.332 354.444 112.024 354.444 111.604C354.444 111.193 354.29 110.89 353.982 110.694C353.683 110.488 353.24 110.386 352.652 110.386H349.838V108.734H352.26C352.811 108.734 353.231 108.64 353.52 108.454C353.819 108.258 353.968 107.964 353.968 107.572C353.968 107.189 353.819 106.904 353.52 106.718C353.231 106.522 352.811 106.424 352.26 106.424H350.006V112.808Z" fill="#1A323C"/>
<path d="M316.273 253.137C315.489 253.137 314.737 253.034 314.019 252.829C313.3 252.614 312.721 252.339 312.283 252.003L313.053 250.295C313.473 250.593 313.967 250.841 314.537 251.037C315.115 251.223 315.699 251.317 316.287 251.317C316.735 251.317 317.094 251.275 317.365 251.191C317.645 251.097 317.85 250.971 317.981 250.813C318.111 250.654 318.177 250.472 318.177 250.267C318.177 250.005 318.074 249.8 317.869 249.651C317.663 249.492 317.393 249.366 317.057 249.273C316.721 249.17 316.347 249.077 315.937 248.993C315.535 248.899 315.129 248.787 314.719 248.657C314.317 248.526 313.949 248.358 313.613 248.153C313.277 247.947 313.001 247.677 312.787 247.341C312.581 247.005 312.479 246.575 312.479 246.053C312.479 245.493 312.628 244.984 312.927 244.527C313.235 244.06 313.692 243.691 314.299 243.421C314.915 243.141 315.685 243.001 316.609 243.001C317.225 243.001 317.831 243.075 318.429 243.225C319.026 243.365 319.553 243.579 320.011 243.869L319.311 245.591C318.853 245.329 318.396 245.138 317.939 245.017C317.481 244.886 317.033 244.821 316.595 244.821C316.156 244.821 315.797 244.872 315.517 244.975C315.237 245.077 315.036 245.213 314.915 245.381C314.793 245.539 314.733 245.726 314.733 245.941C314.733 246.193 314.835 246.398 315.041 246.557C315.246 246.706 315.517 246.827 315.853 246.921C316.189 247.014 316.557 247.107 316.959 247.201C317.369 247.294 317.775 247.401 318.177 247.523C318.587 247.644 318.961 247.807 319.297 248.013C319.633 248.218 319.903 248.489 320.109 248.825C320.323 249.161 320.431 249.585 320.431 250.099C320.431 250.649 320.277 251.153 319.969 251.611C319.661 252.068 319.199 252.437 318.583 252.717C317.976 252.997 317.206 253.137 316.273 253.137ZM323.632 251.429L323.688 248.769L327.202 245.437H329.806L326.432 248.867L325.298 249.791L323.632 251.429ZM321.826 252.969V242.581H324.01V252.969H321.826ZM327.44 252.969L324.892 249.805L326.264 248.111L330.086 252.969H327.44ZM331 252.969V245.437H333.184V252.969H331ZM332.092 244.387C331.691 244.387 331.364 244.27 331.112 244.037C330.86 243.803 330.734 243.514 330.734 243.169C330.734 242.823 330.86 242.534 331.112 242.301C331.364 242.067 331.691 241.951 332.092 241.951C332.494 241.951 332.82 242.063 333.072 242.287C333.324 242.501 333.45 242.781 333.45 243.127C333.45 243.491 333.324 243.794 333.072 244.037C332.83 244.27 332.503 244.387 332.092 244.387ZM335.211 252.969V242.581H337.395V252.969H335.211ZM339.422 252.969V242.581H341.606V252.969H339.422ZM352.442 253.137C351.686 253.137 350.981 253.015 350.328 252.773C349.684 252.521 349.124 252.166 348.648 251.709C348.172 251.251 347.799 250.715 347.528 250.099C347.267 249.483 347.136 248.806 347.136 248.069C347.136 247.331 347.267 246.655 347.528 246.039C347.799 245.423 348.172 244.886 348.648 244.429C349.133 243.971 349.698 243.621 350.342 243.379C350.986 243.127 351.691 243.001 352.456 243.001C353.305 243.001 354.071 243.15 354.752 243.449C355.443 243.738 356.021 244.167 356.488 244.737L355.032 246.081C354.696 245.698 354.323 245.413 353.912 245.227C353.501 245.031 353.053 244.933 352.568 244.933C352.111 244.933 351.691 245.007 351.308 245.157C350.925 245.306 350.594 245.521 350.314 245.801C350.034 246.081 349.815 246.412 349.656 246.795C349.507 247.177 349.432 247.602 349.432 248.069C349.432 248.535 349.507 248.96 349.656 249.343C349.815 249.725 350.034 250.057 350.314 250.337C350.594 250.617 350.925 250.831 351.308 250.981C351.691 251.13 352.111 251.205 352.568 251.205C353.053 251.205 353.501 251.111 353.912 250.925C354.323 250.729 354.696 250.435 355.032 250.043L356.488 251.387C356.021 251.956 355.443 252.39 354.752 252.689C354.071 252.987 353.301 253.137 352.442 253.137Z" fill="#1A323C"/>
<path d="M20.8508 114.684C20.0668 114.684 19.3154 114.581 18.5968 114.376C17.8781 114.161 17.2994 113.886 16.8608 113.55L17.6308 111.842C18.0508 112.14 18.5454 112.388 19.1148 112.584C19.6934 112.77 20.2768 112.864 20.8648 112.864C21.3128 112.864 21.6721 112.822 21.9428 112.738C22.2228 112.644 22.4281 112.518 22.5588 112.36C22.6894 112.201 22.7548 112.019 22.7548 111.814C22.7548 111.552 22.6521 111.347 22.4468 111.198C22.2414 111.039 21.9708 110.913 21.6348 110.82C21.2988 110.717 20.9254 110.624 20.5148 110.54C20.1134 110.446 19.7074 110.334 19.2968 110.204C18.8954 110.073 18.5268 109.905 18.1908 109.7C17.8548 109.494 17.5794 109.224 17.3648 108.888C17.1594 108.552 17.0568 108.122 17.0568 107.6C17.0568 107.04 17.2061 106.531 17.5048 106.074C17.8128 105.607 18.2701 105.238 18.8768 104.968C19.4928 104.688 20.2628 104.548 21.1868 104.548C21.8028 104.548 22.4094 104.622 23.0068 104.772C23.6041 104.912 24.1314 105.126 24.5888 105.416L23.8888 107.138C23.4314 106.876 22.9741 106.685 22.5168 106.564C22.0594 106.433 21.6114 106.368 21.1728 106.368C20.7341 106.368 20.3748 106.419 20.0948 106.522C19.8148 106.624 19.6141 106.76 19.4928 106.928C19.3714 107.086 19.3108 107.273 19.3108 107.488C19.3108 107.74 19.4134 107.945 19.6188 108.104C19.8241 108.253 20.0948 108.374 20.4308 108.468C20.7668 108.561 21.1354 108.654 21.5368 108.748C21.9474 108.841 22.3534 108.948 22.7548 109.07C23.1654 109.191 23.5388 109.354 23.8748 109.56C24.2108 109.765 24.4814 110.036 24.6868 110.372C24.9014 110.708 25.0088 111.132 25.0088 111.646C25.0088 112.196 24.8548 112.7 24.5468 113.158C24.2388 113.615 23.7768 113.984 23.1608 114.264C22.5541 114.544 21.7841 114.684 20.8508 114.684ZM28.2105 112.976L28.2665 110.316L31.7805 106.984H34.3845L31.0105 110.414L29.8765 111.338L28.2105 112.976ZM26.4045 114.516V104.128H28.5885V114.516H26.4045ZM32.0185 114.516L29.4705 111.352L30.8425 109.658L34.6645 114.516H32.0185ZM35.5783 114.516V106.984H37.7623V114.516H35.5783ZM36.6703 105.934C36.269 105.934 35.9423 105.817 35.6903 105.584C35.4383 105.35 35.3123 105.061 35.3123 104.716C35.3123 104.37 35.4383 104.081 35.6903 103.848C35.9423 103.614 36.269 103.498 36.6703 103.498C37.0716 103.498 37.3983 103.61 37.6503 103.834C37.9023 104.048 38.0283 104.328 38.0283 104.674C38.0283 105.038 37.9023 105.341 37.6503 105.584C37.4076 105.817 37.081 105.934 36.6703 105.934ZM39.7893 114.516V104.128H41.9733V114.516H39.7893ZM44.0002 114.516V104.128H46.1842V114.516H44.0002ZM52.33 114.516V104.716H59.736V106.536H54.598V114.516H52.33ZM54.43 110.946V109.126H59.134V110.946H54.43Z" fill="#1A323C"/>
<path d="M20.3996 253.137C19.6156 253.137 18.8642 253.034 18.1456 252.829C17.4269 252.614 16.8482 252.339 16.4096 252.003L17.1796 250.295C17.5996 250.593 18.0942 250.841 18.6636 251.037C19.2422 251.223 19.8256 251.317 20.4136 251.317C20.8616 251.317 21.2209 251.275 21.4916 251.191C21.7716 251.097 21.9769 250.971 22.1076 250.813C22.2382 250.654 22.3036 250.472 22.3036 250.267C22.3036 250.005 22.2009 249.8 21.9956 249.651C21.7902 249.492 21.5196 249.366 21.1836 249.273C20.8476 249.17 20.4742 249.077 20.0636 248.993C19.6622 248.899 19.2562 248.787 18.8456 248.657C18.4442 248.526 18.0756 248.358 17.7396 248.153C17.4036 247.947 17.1282 247.677 16.9136 247.341C16.7082 247.005 16.6056 246.575 16.6056 246.053C16.6056 245.493 16.7549 244.984 17.0536 244.527C17.3616 244.06 17.8189 243.691 18.4256 243.421C19.0416 243.141 19.8116 243.001 20.7356 243.001C21.3516 243.001 21.9582 243.075 22.5556 243.225C23.1529 243.365 23.6802 243.579 24.1376 243.869L23.4376 245.591C22.9802 245.329 22.5229 245.138 22.0656 245.017C21.6082 244.886 21.1602 244.821 20.7216 244.821C20.2829 244.821 19.9236 244.872 19.6436 244.975C19.3636 245.077 19.1629 245.213 19.0416 245.381C18.9202 245.539 18.8596 245.726 18.8596 245.941C18.8596 246.193 18.9622 246.398 19.1676 246.557C19.3729 246.706 19.6436 246.827 19.9796 246.921C20.3156 247.014 20.6842 247.107 21.0856 247.201C21.4962 247.294 21.9022 247.401 22.3036 247.523C22.7142 247.644 23.0876 247.807 23.4236 248.013C23.7596 248.218 24.0302 248.489 24.2356 248.825C24.4502 249.161 24.5576 249.585 24.5576 250.099C24.5576 250.649 24.4036 251.153 24.0956 251.611C23.7876 252.068 23.3256 252.437 22.7096 252.717C22.1029 252.997 21.3329 253.137 20.3996 253.137ZM27.7593 251.429L27.8153 248.769L31.3293 245.437H33.9333L30.5593 248.867L29.4253 249.791L27.7593 251.429ZM25.9533 252.969V242.581H28.1373V252.969H25.9533ZM31.5673 252.969L29.0193 249.805L30.3913 248.111L34.2133 252.969H31.5673ZM35.1271 252.969V245.437H37.3111V252.969H35.1271ZM36.2191 244.387C35.8178 244.387 35.4911 244.27 35.2391 244.037C34.9871 243.803 34.8611 243.514 34.8611 243.169C34.8611 242.823 34.9871 242.534 35.2391 242.301C35.4911 242.067 35.8178 241.951 36.2191 241.951C36.6205 241.951 36.9471 242.063 37.1991 242.287C37.4511 242.501 37.5771 242.781 37.5771 243.127C37.5771 243.491 37.4511 243.794 37.1991 244.037C36.9565 244.27 36.6298 244.387 36.2191 244.387ZM39.3381 252.969V242.581H41.5221V252.969H39.3381ZM43.549 252.969V242.581H45.733V252.969H43.549ZM51.8788 252.969V243.169H59.2848V244.989H54.1328V251.149H59.4668V252.969H51.8788ZM53.9648 248.881V247.117H58.6828V248.881H53.9648Z" fill="#1A323C"/>
<g clip-path="url(#clip0_7514_20551)">
<path d="M80.9043 238.967V117.614L185.998 56.9375L291.095 117.614V238.967L185.998 299.643L80.9043 238.967Z" stroke="#7C7C7C" stroke-width="0.275764" stroke-miterlimit="10"/>
<path d="M185.999 67.4766L90.0332 122.883V233.696L185.999 289.103L281.968 233.696V122.883L185.999 67.4766Z" stroke="#7C7C7C" stroke-width="0.275764" stroke-miterlimit="10"/>
<path d="M185.998 80.5156L101.322 129.403V227.178L185.998 276.066L270.675 227.178V129.403L185.998 80.5156Z" stroke="#7C7C7C" stroke-width="0.275764" stroke-miterlimit="10"/>
<path d="M185.997 93.5547L112.613 135.923V220.66L185.997 263.031L259.383 220.66V135.923L185.997 93.5547Z" stroke="#7C7C7C" stroke-width="0.275764" stroke-miterlimit="10"/>
<path d="M185.998 106.586L123.904 142.438V214.139L185.998 249.989L248.095 214.139V142.438L185.998 106.586Z" stroke="#7C7C7C" stroke-width="0.275764" stroke-miterlimit="10"/>
<path d="M185.997 119.625L135.193 148.958V207.621L185.997 236.952L236.801 207.621V148.958L185.997 119.625Z" stroke="#7C7C7C" stroke-width="0.275764" stroke-miterlimit="10"/>
<path d="M185.998 306.937V49.6328" stroke="#7C7C7C" stroke-width="0.868657" stroke-linecap="round" stroke-linejoin="round"/>
<path d="M189.523 45.6856C189.523 47.6297 187.946 49.2071 186.002 49.2071C184.058 49.2071 182.48 47.6297 182.48 45.6856C182.48 43.7414 184.058 42.1641 186.002 42.1641C187.946 42.1641 189.523 43.7414 189.523 45.6856Z" fill="#7C7C7C"/>
<path d="M189.523 310.889C189.523 312.833 187.946 314.41 186.002 314.41C184.058 314.41 182.48 312.833 182.48 310.889C182.48 308.945 184.058 307.367 186.002 307.367C187.946 307.367 189.523 308.945 189.523 310.889Z" fill="#7C7C7C"/>
<path d="M297.415 242.613L74.584 113.961" stroke="#7C7C7C" stroke-width="0.868657" stroke-linecap="round" stroke-linejoin="round"/>
<path d="M72.924 108.94C74.609 109.914 75.1853 112.067 74.2146 113.752C73.2412 115.437 71.0874 116.013 69.4025 115.043C67.7176 114.069 67.1413 111.916 68.112 110.231C69.0854 108.546 71.2391 107.969 72.924 108.94Z" fill="#7C7C7C"/>
<path d="M302.598 241.538C304.283 242.511 304.859 244.665 303.888 246.35C302.915 248.035 300.761 248.611 299.076 247.64C297.391 246.667 296.815 244.513 297.786 242.828C298.759 241.143 300.913 240.567 302.598 241.538Z" fill="#7C7C7C"/>
<path d="M297.415 113.969L74.584 242.621" stroke="#7C7C7C" stroke-width="0.868657" stroke-linecap="round" stroke-linejoin="round"/>
<path d="M69.4018 241.539C71.0867 240.566 73.2404 241.145 74.2139 242.83C75.1873 244.514 74.6082 246.668 72.9233 247.642C71.2384 248.615 69.0847 248.036 68.1112 246.351C67.1378 244.666 67.7169 242.512 69.4018 241.539Z" fill="#7C7C7C"/>
<path d="M299.074 108.941C300.759 107.968 302.912 108.547 303.886 110.232C304.859 111.917 304.28 114.071 302.595 115.044C300.91 116.017 298.757 115.438 297.783 113.753C296.81 112.068 297.389 109.915 299.074 108.941Z" fill="#7C7C7C"/>
<path opacity="0.5" d="M135.193 148.96L186.389 100.695L270.674 129.402L281.966 233.696L185.997 276.065L135.193 207.623V148.96Z" fill="url(#paint0_linear_7514_20551)"/>
<path d="M135.193 148.96L186.389 100.695L270.674 129.402L281.966 233.696L185.997 276.065L135.193 207.623V148.96Z" stroke="url(#paint1_linear_7514_20551)" stroke-width="0.551528" stroke-miterlimit="10"/>
<path opacity="0.5" d="M90.0332 122.884L185.999 80.5156L242.512 146.531L248.096 214.143L185.999 263.03L96.5137 230.018L90.0332 122.884Z" fill="url(#paint2_linear_7514_20551)"/>
<path opacity="0.5" d="M90.0332 122.884L185.999 80.5156L242.512 146.531L248.096 214.143L185.999 263.03L96.5137 230.018L90.0332 122.884Z" stroke="url(#paint3_linear_7514_20551)" stroke-width="0.551528" stroke-miterlimit="10"/>
<path opacity="0.35" d="M135.194 147.766L185.998 92.3594L248.095 142.441L236.802 206.429L185.998 287.912L123.904 212.948L135.194 147.766Z" fill="url(#paint4_linear_7514_20551)"/>
<path opacity="0.35" d="M135.194 147.766L185.998 92.3594L248.095 142.441L236.802 206.429L185.998 287.912L123.904 212.948L135.194 147.766Z" stroke="url(#paint5_linear_7514_20551)" stroke-width="0.275764" stroke-miterlimit="10"/>
</g>
<defs>
<linearGradient id="paint0_linear_7514_20551" x1="200.988" y1="178.993" x2="254.688" y2="225.611" gradientUnits="userSpaceOnUse">
<stop stop-color="#9AD6D0" stop-opacity="0"/>
<stop offset="0.47" stop-color="#9AD6D0"/>
<stop offset="1" stop-color="#8BD0CA"/>
</linearGradient>
<linearGradient id="paint1_linear_7514_20551" x1="134.918" y1="188.394" x2="282.261" y2="188.394" gradientUnits="userSpaceOnUse">
<stop stop-color="#9AD6D0" stop-opacity="0"/>
<stop offset="0.47" stop-color="#9AD6D0"/>
<stop offset="1" stop-color="#8BD0CA"/>
</linearGradient>
<linearGradient id="paint2_linear_7514_20551" x1="279.958" y1="101.363" x2="105.239" y2="214.107" gradientUnits="userSpaceOnUse">
<stop stop-color="#CBE1F4" stop-opacity="0"/>
<stop offset="0.53" stop-color="#CBE1F4"/>
<stop offset="1" stop-color="#96BFE5"/>
</linearGradient>
<linearGradient id="paint3_linear_7514_20551" x1="89.7464" y1="171.76" x2="248.383" y2="171.76" gradientUnits="userSpaceOnUse">
<stop stop-color="#CBE1F4" stop-opacity="0"/>
<stop offset="0.53" stop-color="#CBE1F4"/>
<stop offset="1" stop-color="#96BFE5"/>
</linearGradient>
<linearGradient id="paint4_linear_7514_20551" x1="185.998" y1="302.039" x2="185.998" y2="93.2225" gradientUnits="userSpaceOnUse">
<stop stop-color="#F9D3D5" stop-opacity="0"/>
<stop offset="0.19" stop-color="#F6B5B7" stop-opacity="0.42"/>
<stop offset="0.34" stop-color="#F59FA2" stop-opacity="0.73"/>
<stop offset="0.45" stop-color="#F49295" stop-opacity="0.93"/>
<stop offset="0.5" stop-color="#F48D90"/>
<stop offset="1" stop-color="#F48D90"/>
</linearGradient>
<linearGradient id="paint5_linear_7514_20551" x1="123.758" y1="190.159" x2="248.244" y2="190.159" gradientUnits="userSpaceOnUse">
<stop stop-color="#F9D3D5" stop-opacity="0"/>
<stop offset="0.19" stop-color="#F6B5B7" stop-opacity="0.42"/>
<stop offset="0.34" stop-color="#F59FA2" stop-opacity="0.73"/>
<stop offset="0.45" stop-color="#F49295" stop-opacity="0.93"/>
<stop offset="0.5" stop-color="#F48D90"/>
<stop offset="1" stop-color="#F48D90"/>
</linearGradient>
<clipPath id="clip0_7514_20551">
<rect width="236.719" height="272.245" fill="white" transform="translate(67.6406 42.1641)"/>
</clipPath>
</defs>
</svg>
