<svg width="32" height="32" viewBox="0 0 32 32" fill="none" xmlns="http://www.w3.org/2000/svg">
  <!-- Background circle with light fill -->
  <circle cx="16" cy="16" r="16" fill="#3B82F6"/>
  
  <!-- Brain/Neural network icon -->
  <path d="M8 12C8 10.5 9.5 9 11 9C12.5 9 14 10.5 14 12C14 13.5 12.5 15 11 15C9.5 15 8 13.5 8 12Z" fill="white"/>
  <path d="M18 12C18 10.5 19.5 9 21 9C22.5 9 24 10.5 24 12C24 13.5 22.5 15 21 15C19.5 15 18 13.5 18 12Z" fill="white"/>
  
  <!-- Connection lines -->
  <path d="M14 12L18 12" stroke="white" stroke-width="2" stroke-linecap="round"/>
  <path d="M11 15L21 15" stroke="white" stroke-width="2" stroke-linecap="round"/>
  
  <!-- Central processing unit -->
  <rect x="13" y="17" width="6" height="4" rx="1" fill="white"/>
  
  <!-- Neural connections -->
  <path d="M11 12L13 17" stroke="white" stroke-width="1.5" stroke-linecap="round"/>
  <path d="M21 12L19 17" stroke="white" stroke-width="1.5" stroke-linecap="round"/>
</svg>
