<svg width="129" height="24" viewBox="0 0 129 24" fill="none" xmlns="http://www.w3.org/2000/svg">
<g clip-path="url(#clip0_7514_24332)">
<path d="M121.155 12.21C121.264 13.8604 122.695 15.1062 124.332 15.1062H128.294C128.686 15.1062 129.004 15.4272 129.004 15.8229V16.1091C129.004 16.5048 128.686 16.8258 128.294 16.8258H124.36C121.786 16.8258 119.572 14.8288 119.451 12.2328C119.321 9.46084 121.508 7.17188 124.225 7.17188H128.294C128.686 7.17188 129.004 7.49288 129.004 7.88858V8.17513C129.004 8.57118 128.686 8.89184 128.294 8.89184H124.225C122.458 8.89184 121.036 10.4006 121.155 12.21Z" fill="#1A323C"/>
<path d="M106.221 7.89097V16.1063C106.221 16.5024 105.903 16.823 105.511 16.823H105.226C104.835 16.823 104.517 16.502 104.517 16.1063V12.3952H98.3723V16.1036C98.3723 16.4993 98.0544 16.8203 97.6627 16.8203H97.3776C96.9855 16.8203 96.668 16.4993 96.668 16.1036V7.88858C96.668 7.49288 96.9858 7.17188 97.3776 7.17188H97.6627C98.0548 7.17188 98.3723 7.49288 98.3723 7.88858V10.6739H104.517V7.89097C104.517 7.49492 104.835 7.17426 105.226 7.17426H105.511C105.903 7.17426 106.221 7.49526 106.221 7.89097Z" fill="#1A323C"/>
<path d="M111.98 16.1039V7.88858C111.98 7.49253 112.298 7.17188 112.69 7.17188H112.975C113.367 7.17188 113.685 7.49288 113.685 7.88858V16.1039C113.685 16.5 113.367 16.8207 112.975 16.8207H112.69C112.298 16.8207 111.98 16.4997 111.98 16.1039Z" fill="#1A323C"/>
<path d="M73.9727 16.1039V7.88858C73.9727 7.49253 74.2905 7.17188 74.6823 7.17188H74.9673C75.3595 7.17188 75.677 7.49288 75.677 7.88858V16.1039C75.677 16.5 75.3591 16.8207 74.9673 16.8207H74.6823C74.2901 16.8207 73.9727 16.4997 73.9727 16.1039Z" fill="#1A323C"/>
<path d="M90.9071 9.78013C90.9071 10.8352 90.2883 11.7467 89.3973 12.1537C89.1646 12.2625 88.915 12.3369 88.6536 12.3659C88.631 12.3717 88.6026 12.3717 88.58 12.3717V12.3887H83.1401V16.1118C83.1401 16.5078 82.8223 16.8285 82.4305 16.8285H82.1471C81.755 16.8285 81.4375 16.5075 81.4375 16.1118V7.89131C81.4375 7.4956 81.755 7.1746 82.1468 7.1746L88.33 7.17188C89.0454 7.17188 89.6868 7.46422 90.1522 7.93429C90.6176 8.41017 90.9071 9.06343 90.9071 9.78013ZM89.2045 9.78013C89.2045 9.46493 89.0397 9.24695 88.9434 9.14393C88.8299 9.03477 88.631 8.8915 88.3304 8.8915H83.1415V10.6688H88.3304C88.4553 10.6688 88.5746 10.6459 88.6881 10.5886C89.0059 10.4453 89.2045 10.1301 89.2045 9.78047V9.78013Z" fill="#1A323C"/>
<path d="M65.9596 12.3662H65.962C66.223 12.3376 66.4726 12.2629 66.7057 12.154C67.5967 11.7467 68.2154 10.8352 68.2154 9.78047C68.2154 9.06377 67.926 8.41051 67.4606 7.93429C66.9951 7.46422 66.3538 7.17188 65.6384 7.17188H58.4557C58.0639 7.17188 57.7461 7.49288 57.7461 7.88858V16.1091C57.7461 16.5048 58.0639 16.8258 58.4557 16.8258H58.7391C59.1312 16.8258 59.4487 16.5048 59.4487 16.1091V13.1054C59.4487 12.7097 59.7665 12.3887 60.1583 12.3887H63.0134C63.6321 12.3887 64.1712 12.7213 64.4664 13.2143L64.5073 13.2903L65.4199 15.0997L66.0964 16.4348C66.2176 16.6743 66.4618 16.8251 66.7283 16.8251H67.0502C67.5798 16.8251 67.923 16.2605 67.6828 15.7836L67.3386 15.0997L65.9593 12.3659L65.9596 12.3662ZM59.4511 9.9524V9.60889C59.4511 9.21284 59.7689 8.89218 60.1607 8.89218H65.6381C65.939 8.89218 66.1376 9.03545 66.2511 9.14427C66.3477 9.24763 66.5122 9.46527 66.5122 9.78081C66.5122 10.1305 66.3136 10.4457 65.9957 10.5893C65.8822 10.6466 65.763 10.6695 65.6381 10.6695H60.1607C59.7689 10.6695 59.4511 10.3485 59.4511 9.95274V9.9524Z" fill="#1A323C"/>
<path d="M51.9825 12.0582C51.9825 12.0323 51.9863 12.0074 51.9863 11.9814C51.9863 11.9814 51.9863 11.9814 51.9859 11.9811H51.9829V10.8639H47.4671C47.0753 10.8639 46.7575 11.1849 46.7575 11.5806V11.9187C46.7575 12.3144 47.0753 12.6354 47.4671 12.6354H50.2181C49.9266 14.0449 48.6881 15.1062 47.207 15.1062H46.542H46.3792C44.7418 15.1062 43.31 13.86 43.202 12.21C43.0831 10.4006 44.505 8.89184 46.2715 8.89184H51.2212C51.613 8.89184 51.9309 8.5705 51.9309 8.17479V7.88858C51.9309 7.49253 51.613 7.17188 51.2212 7.17188H46.4066C43.8332 7.17188 41.6189 9.16917 41.4976 11.7655C41.3683 14.5375 43.5552 16.8261 46.2715 16.8261H47.2074C49.7473 16.8261 51.8191 14.823 51.9721 12.2966C51.9748 12.2779 51.9832 12.2608 51.9832 12.241V12.0582H51.9825Z" fill="#1A323C"/>
<path d="M27.3072 12.473C26.9496 12.0858 26.5047 11.7835 26.0126 11.6007C25.4594 11.395 24.9423 11.3923 24.3637 11.4158C23.7598 11.4407 23.1552 11.4438 22.5507 11.4417C22.2484 11.4407 21.9461 11.4383 21.6438 11.4366C21.4928 11.4356 21.3415 11.4352 21.1905 11.4349C21.0824 11.4346 20.9835 11.4039 20.8761 11.4069C19.7014 11.4407 18.524 11.5089 17.3489 11.4468C16.6592 11.4103 15.9966 11.3493 15.3427 11.2292C15.0529 11.176 14.7624 11.0999 14.4794 11.0198C14.2054 10.9423 13.8876 10.8338 13.6171 10.7393C13.0463 10.5401 12.4758 10.3395 11.9057 10.1373C10.7658 9.73268 9.79877 9.39599 8.66324 8.97982C8.50788 8.92285 8.17992 8.80175 8.02523 8.74341C7.85094 8.67724 7.67126 8.61924 7.50036 8.54556C7.20685 8.41934 6.82519 8.26857 6.48338 8.04956C5.82983 7.63066 5.9244 7.6559 5.62109 7.37891C5.82814 7.93563 5.89771 8.04922 6.098 8.50394C6.16522 8.65643 6.29018 8.90511 6.37834 9.04872C6.57086 9.36154 6.83025 9.45023 7.13761 9.56826C7.26325 9.61636 7.39059 9.66309 7.51792 9.70915C7.77765 9.8033 8.03705 9.89779 8.29644 9.99262C8.36636 10.0182 8.43627 10.0438 8.50619 10.0694C8.56428 10.0905 8.62204 10.1117 8.68013 10.1332C8.72201 10.1485 8.76423 10.1639 8.80611 10.1792C8.82807 10.1874 8.85002 10.1953 8.87197 10.2034C8.87366 10.2041 8.8767 10.2058 8.87873 10.2058C8.95776 10.2341 8.90338 10.2154 8.93952 10.227C8.99627 10.2491 8.94223 10.228 8.9912 10.2471L11.2221 11.032C11.4034 11.0986 11.5797 11.1613 11.7567 11.2272C11.9303 11.2916 12.109 11.3571 12.2823 11.4206C12.5099 11.5038 12.7311 11.5823 12.9507 11.6624C13.0331 11.6925 13.101 11.7174 13.176 11.7447C13.2202 11.7607 13.2719 11.7788 13.3168 11.7962C13.584 11.8999 13.992 12.036 14.3314 12.1513C14.7036 12.2778 15.0741 12.4109 15.4501 12.5333C15.6909 12.6118 15.9347 12.7063 16.1766 12.7813C16.2698 12.8103 16.3549 12.8393 16.442 12.8673C16.4799 12.8792 16.515 12.8919 16.5569 12.9058C16.5836 12.9147 16.6099 12.925 16.6352 12.94C16.6687 12.9597 16.6856 12.9751 16.7035 12.9945C16.7187 13.0109 16.7329 13.0276 16.7511 13.0587C16.7626 13.0785 16.7703 13.0972 16.7764 13.1153C16.7852 13.1409 16.7899 13.1651 16.792 13.188C16.7964 13.2306 16.792 13.2688 16.7842 13.2998C16.7818 13.3091 16.7798 13.3176 16.7768 13.3254C16.7214 13.483 16.72 13.4824 16.617 13.787C16.5228 14.065 16.4789 14.198 16.3769 14.5129C16.3677 14.5416 16.3032 14.7387 16.2938 14.7674C16.2414 14.924 16.2127 15.0215 16.1583 15.1842C16.0756 15.4322 16.0867 15.3991 16.005 15.6516C15.9493 15.8235 15.8837 15.9982 15.8327 16.1534C16.6869 15.9664 17.3901 16.1159 18.1447 16.2803C19.0593 16.4795 19.9442 16.7422 20.8328 17.0379C21.0443 17.1082 21.2557 17.1781 21.4675 17.2477C21.6755 17.3159 21.8836 17.3838 22.092 17.4514C22.2997 17.5186 22.5074 17.5858 22.7152 17.6526C22.9229 17.7195 23.138 17.7887 23.3498 17.8566C23.3984 17.8723 23.4359 17.8826 23.4835 17.8989C23.5383 17.9177 23.5994 17.9361 23.6501 17.9538C23.7531 17.99 23.8568 18.0251 23.9615 18.0565C24.1013 18.0985 24.2435 18.134 24.3877 18.1572C24.6056 18.192 24.8275 18.1984 25.0473 18.1834C25.2493 18.1698 25.4506 18.1404 25.6472 18.0913C25.8015 18.0524 25.9532 18.0026 26.1005 17.9419C26.2464 17.8819 26.3879 17.8113 26.524 17.7311C26.6594 17.6513 26.7891 17.5619 26.9124 17.4643C27.0354 17.3668 27.1515 17.2607 27.2603 17.1471C27.3691 17.0335 27.47 16.9124 27.5626 16.7851C27.6551 16.6572 27.7392 16.5232 27.8135 16.3836C27.8882 16.2434 27.9534 16.0978 28.0078 15.9484C28.0628 15.7972 28.1071 15.642 28.1402 15.4848C28.1736 15.3244 28.1955 15.1617 28.2053 14.9983C28.2067 14.9758 28.2077 14.9536 28.2087 14.9311C28.2449 14.0155 27.9253 13.1429 27.3079 12.4747L27.3072 12.473Z" fill="url(#paint0_linear_7514_24332)"/>
<path d="M30.8851 20.5906C31.3052 20.2751 31.622 19.8272 31.775 19.3073C31.8412 19.0829 31.8767 18.8441 31.8767 18.5974C31.8767 18.3934 31.8521 17.6819 31.8065 17.4922L30.2231 17.9646C30.1417 17.9889 30.0859 18.0643 30.0859 18.1499V20.9877C30.3781 20.9048 30.648 20.7687 30.8851 20.5903V20.5906Z" fill="url(#paint1_linear_7514_24332)"/>
<path d="M28.4385 10.2356C25.0545 6.72673 19.9061 8.69333 15.671 7.97559C14.5335 7.78286 13.4047 7.54577 12.3131 7.16542C11.2339 6.7895 10.0896 6.39038 9.0632 5.93361C8.03643 5.4765 7.07012 5.04941 6.093 4.492C5.62284 4.22388 5.19863 3.90185 4.76562 3.57812C4.96794 4.49849 5.19964 5.47445 5.86873 6.13214C6.34023 6.59574 6.97386 6.84339 7.58756 7.08321C9.33273 7.76546 11.0681 8.48115 12.8616 9.01979C14.5304 9.52124 16.259 9.86953 18.0056 9.8767C18.7044 9.87943 19.4042 9.91354 20.1067 9.89853C20.865 9.8825 21.6229 9.84668 22.3802 9.80369C23.5741 9.76754 24.7968 9.8303 25.8763 10.3952C28.0487 11.5097 29.0413 14.4976 28.2469 16.8729C28.2152 16.9595 28.2054 17.0468 28.3219 16.9466C29.119 16.2824 29.7915 15.3845 30.0843 14.3526C30.0658 12.8554 29.4487 11.3405 28.4489 10.2472L28.4388 10.2362L28.4385 10.2356Z" fill="url(#paint2_linear_7514_24332)"/>
<path d="M28.6043 14.9059C28.6043 15.7959 28.3831 16.6333 27.993 17.3664C27.4357 18.4127 26.5335 19.2436 25.4409 19.7052V17.6618C26.2832 17.042 26.8304 16.0387 26.8304 14.9059C26.8304 13.773 26.2832 12.7694 25.4409 12.1499C24.8843 11.7395 24.1976 11.4973 23.4552 11.4973C22.2673 11.4973 21.0754 11.4359 19.8892 11.4567C19.004 11.4724 18.195 11.4912 17.3115 11.4513C16.4522 11.4124 15.4025 11.295 14.577 11.0515C13.6617 10.7813 13.145 10.5776 12.3185 10.2836C12.3141 10.2822 12.1743 10.2348 12.1699 10.2331C11.3231 9.93155 10.526 9.64739 9.6617 9.33901C9.23849 9.18789 8.91155 9.0743 8.4012 8.89998C8.18639 8.82664 7.95976 8.73931 7.74832 8.65676C7.55851 8.58273 7.36531 8.49165 7.17245 8.42377C7.14273 8.41319 7.11301 8.40296 7.08329 8.39238C6.87658 8.31904 6.6665 8.24433 6.48952 8.11368C6.2872 7.96461 6.14062 7.75107 6.01835 7.53036C5.71032 6.97432 5.53502 6.34357 5.51172 5.70703C5.89608 6.43568 6.73844 6.76146 7.50514 7.04766C8.29515 7.34274 9.07806 7.65726 9.86368 7.96393C10.6523 8.27197 11.4974 8.57932 12.3012 8.84506C13.101 9.10943 14.0501 9.35846 14.6858 9.49627C15.1124 9.58872 15.5447 9.6566 15.9774 9.71255C17.0676 9.85377 18.1562 9.88209 19.2549 9.88379C20.332 9.88516 21.4125 9.82375 22.4903 9.79783H22.4933C23.4904 9.77327 24.5006 9.70948 25.4412 10.1072C27.2992 10.8922 28.6046 12.7458 28.6046 14.9065L28.6043 14.9059Z" fill="url(#paint3_linear_7514_24332)"/>
<path d="M16.5741 12.9103L15.0187 12.3866L13.5475 11.8801C13.5475 11.8801 13.5461 11.8794 13.5451 11.879L13.5414 11.877L12.6298 11.5434L11.1764 11.0143C11.1764 11.0143 7.08895 9.55393 6.85117 9.46387C6.70695 9.40929 6.62251 9.37279 6.52659 9.28546C6.50632 9.26704 6.21856 8.99004 6.20234 9.00028C6.18681 9.01017 6.20167 9.08658 6.20302 9.10057C6.20842 9.15481 6.21079 9.21348 6.227 9.26533C6.24659 9.32844 6.25166 9.39905 6.26348 9.46455C6.27597 9.53346 6.28915 9.60237 6.30435 9.67093C6.34082 9.83399 6.38912 9.99534 6.46208 10.1461C6.54618 10.3208 6.66169 10.4787 6.78902 10.6244C6.96736 10.8287 7.17136 11.0167 7.39529 11.1692C7.4419 11.2009 7.49594 11.2278 7.54525 11.2562C7.59727 11.2862 7.64996 11.3148 7.70332 11.3421C7.81512 11.3994 7.92928 11.4516 8.04445 11.5011C8.19644 11.5662 8.35012 11.6266 8.50447 11.686L14.5543 13.7617C14.1439 14.9956 13.589 16.1953 13.0081 17.3555C12.9122 17.5469 12.8051 17.7478 12.6203 17.8535C12.4569 17.947 12.2593 17.9504 12.0712 17.9508C10.8475 17.9528 9.62447 17.9061 8.40112 17.9061C8.31668 17.9047 8.22177 17.9064 8.18834 18.0265C8.17787 18.0647 8.17753 18.1053 8.18293 18.1449L8.94119 23.7636C8.94828 23.8151 8.95875 23.9515 9.00874 23.9635C9.06954 23.9778 9.08845 23.9778 9.13844 23.9778C9.34177 23.9778 9.53766 23.9778 9.74099 23.9778C9.79908 23.9778 9.82138 23.9778 9.86359 23.9778H12.6734C12.5913 23.6827 12.4565 23.4102 12.2799 23.1707C12.266 23.1519 12.2519 23.1339 12.2373 23.1154C11.878 22.5761 11.3642 22.2155 10.7647 21.884C10.6985 21.8475 10.63 21.8086 10.5861 21.7462C10.5259 21.6605 10.5242 21.5476 10.5253 21.4422C10.5286 21.0189 10.5317 20.5955 10.535 20.1719C10.5357 20.0811 10.5398 19.9815 10.6009 19.9153C10.6776 19.8321 10.8073 19.8382 10.9198 19.8474C11.4797 19.8942 12.0377 19.9559 12.5997 19.9392C13.0966 19.9245 13.5792 19.7349 13.9778 19.4394C14.0859 19.3593 14.1882 19.2709 14.2838 19.1751C14.7154 18.7422 15.0018 18.1858 15.2541 17.627C15.729 16.5771 16.0573 15.4824 16.416 14.3925C16.5325 14.038 16.6487 13.6833 16.7744 13.3319C16.8358 13.1596 16.7453 12.97 16.5738 12.911L16.5741 12.9103Z" fill="url(#paint4_linear_7514_24332)"/>
<path d="M25.0353 21.7823V15.1678C25.0353 15.0812 24.9667 15.0105 24.881 15.0085L24.197 14.9935L23.5992 14.9805C23.4678 14.9778 23.3594 15.0846 23.3594 15.2173V15.8316V16.8134V23.8815C23.3594 23.9474 23.4121 24.0006 23.4773 24.0006H27.1996C26.9028 22.937 26.0813 22.0968 25.035 21.7823H25.0353Z" fill="url(#paint5_linear_7514_24332)"/>
<path d="M19.6744 23.172C19.3539 22.7368 18.8989 22.4461 18.3713 22.2503C18.1481 22.1674 17.9269 22.0975 17.6266 22.047C17.4223 22.0125 16.9741 21.9798 16.7734 21.9968L17.0082 23.8577C17.0328 23.942 17.1095 23.9996 17.1963 23.9996H18.3713H18.4774H20.0777C19.9936 23.697 19.8551 23.4176 19.6741 23.1717L19.6744 23.172Z" fill="url(#paint6_linear_7514_24332)"/>
<path d="M13.3906 16.4961C13.3725 16.499 13.3712 16.4977 13.3594 16.5C13.3715 16.4984 13.3725 16.499 13.3906 16.4961Z" fill="url(#paint7_linear_7514_24332)"/>
<path d="M13.3572 16.5C12.576 16.6064 12.6624 16.6467 11.8984 16.8428C12.6621 16.6467 12.4301 16.6941 13.3572 16.5Z" fill="url(#paint8_linear_7514_24332)"/>
<path d="M14.5123 13.7431C14.4586 13.725 14.4049 13.7069 14.3509 13.6888C14.1357 13.6165 13.9047 13.536 13.6895 13.463C13.2596 13.3177 12.8475 13.1741 12.4182 13.0267C11.9889 12.8793 11.5583 12.7367 11.1294 12.5877C10.7751 12.4645 10.4245 12.3427 10.0685 12.2237C9.72836 12.1097 9.38825 11.9893 9.04914 11.8723C8.72456 11.7604 8.40133 11.6438 8.08485 11.5097C7.82377 11.3992 7.56302 11.2781 7.32693 11.1195C7.22358 11.0499 7.10503 10.9438 6.99762 10.8435C7.02701 11.4237 7.72954 12.3315 8.24968 12.7337C9.34197 13.5773 10.6602 14.0477 11.865 14.7173C11.9271 14.7518 11.9954 14.7961 12.0058 14.8667C12.0146 14.924 11.9805 14.98 11.9376 15.0185C11.8555 15.0926 11.7434 15.1209 11.636 15.1458C10.2168 15.4753 8.76475 15.6612 7.30903 15.7008C5.99281 15.7366 4.57762 15.6933 3.47755 14.8626C3.41473 14.8152 3.3536 14.7658 3.29415 14.7143C2.53218 14.0535 1.87187 13.1164 2.04278 12.0726C2.09276 11.7659 2.17078 11.5977 2.35621 11.3477C2.50246 11.1505 2.81961 10.8585 3.00098 10.6473C3.06617 10.5716 2.99794 10.3932 2.9716 10.2963C2.80306 9.67853 2.61662 9.06348 2.47611 8.43853C2.41262 8.15676 2.34101 7.8767 2.25826 7.5458C2.23394 7.44927 2.11235 7.42061 2.04818 7.496C1.36761 8.29492 0.639747 9.03824 0.034492 9.78155C-0.0600791 9.89754 0.0665786 10.1363 0.0966387 10.2598C0.154395 10.4976 0.221945 10.7323 0.280039 10.97C0.390484 11.4217 0.350629 11.9549 0.382378 12.4147C0.413789 12.8722 0.458373 13.2491 0.602256 13.684C0.887658 14.5468 1.38584 15.3361 2.0475 15.9542C3.35427 17.1745 5.15045 17.4596 6.86962 17.4671C8.56345 17.4747 10.258 17.2642 11.8994 16.8425C12.6631 16.6464 12.5766 16.6061 13.3582 16.4997C13.3704 16.497 13.3717 16.4987 13.3903 16.4956L13.4035 16.4936L13.4288 16.4902L13.4383 16.47C13.4487 16.4482 13.4565 16.4305 13.4683 16.4059C13.5186 16.3025 13.5987 16.1272 13.6129 16.0968C13.7122 15.885 13.7547 15.7936 13.855 15.566C13.956 15.3378 14.1111 14.9626 14.2063 14.7139C14.2239 14.6679 14.3374 14.3898 14.4258 14.1275C14.4586 14.0303 14.4944 13.9338 14.5272 13.8365C14.5332 13.8185 14.5441 13.7976 14.5464 13.7785C14.5474 13.7707 14.5474 13.7652 14.5464 13.7611C14.5441 13.7499 14.5336 13.7495 14.512 13.7424L14.5123 13.7431ZM1.36254 11.2279C1.33822 11.2515 1.29803 11.2423 1.28621 11.2105L0.911301 10.2073C0.851518 10.0473 0.890022 9.86683 1.00959 9.74573L1.84215 8.81377C1.86748 8.78819 1.91071 8.79945 1.92051 8.83424L2.23124 10.0681C2.27583 10.2011 2.29373 10.3304 2.19308 10.4273L1.36254 11.2283V11.2279Z" fill="url(#paint9_linear_7514_24332)"/>
<path d="M29.6505 9.72091C29.5853 9.61107 29.5161 9.50293 29.4431 9.39684C29.0037 8.7586 28.4613 8.20051 27.9053 7.66631C27.6483 7.41933 27.3862 7.1744 27.1714 6.88956C26.967 6.61905 26.7961 6.33693 26.7607 5.99103C26.7337 5.72768 26.7698 5.4616 26.8265 5.20303C26.9306 4.7275 27.1038 4.26697 27.3477 3.84671C27.499 3.58574 27.6794 3.33877 27.9067 3.14228C28.2029 2.88643 28.5602 2.7725 28.9372 2.70427C29.1233 2.6705 29.3121 2.65276 29.5009 2.64526C29.5725 2.64253 30.0622 2.5975 30.0838 2.63878C29.7346 1.97324 29.2334 1.39366 28.6514 0.922564C28.2519 0.599176 27.8195 0.325251 27.3217 0.1888C27.0694 0.119892 26.7857 0.0861207 26.5266 0.0584894C26.2365 0.0277879 25.945 0.0134606 25.6535 0.00629691C25.333 -0.00154901 25.0121 0.000156624 24.6916 0.000156624H17.5211C17.3867 0.000156624 17.388 -0.00154901 17.4532 0.130467C17.4971 0.219501 17.5464 0.305807 17.5994 0.389724C17.7062 0.558241 17.8281 0.716524 17.9548 0.870372C18.4475 1.47007 18.8954 2.02509 19.1727 2.76567C19.477 3.57824 19.554 4.43993 19.4885 5.30127C19.4513 5.78977 19.3588 6.27417 19.2098 6.74049C19.0693 7.18088 18.9292 7.46538 18.6563 7.86894C20.7878 7.80924 21.8065 7.7185 23.6554 7.84335C25.0574 7.93784 26.4016 8.32332 27.5395 9.10416C27.7797 9.26892 28.0414 9.47394 28.2586 9.67111C29.4708 10.7716 30.1909 12.3868 30.2716 14.0082C30.2628 13.8312 30.3611 13.6006 30.3865 13.4211C30.4152 13.2154 30.4327 13.0077 30.4388 12.7999C30.451 12.3841 30.4182 11.9672 30.3419 11.5586C30.2196 10.905 29.9862 10.2875 29.6502 9.72126L29.6505 9.72091ZM24.7713 4.41639C24.5997 5.18495 24.011 5.5885 23.1639 5.62159C21.5765 5.68333 21.465 5.56053 21.6467 3.95075C21.7518 3.02152 22.3368 2.45081 23.2632 2.41295C23.8344 2.38941 24.4075 2.40851 25.0459 2.40851C24.9459 3.17127 24.9078 3.80509 24.771 4.41639H24.7713Z" fill="url(#paint10_linear_7514_24332)"/>
</g>
<defs>
<linearGradient id="paint0_linear_7514_24332" x1="-3.26217" y1="2.40288" x2="40.2194" y2="22.6128" gradientUnits="userSpaceOnUse">
<stop offset="0.28" stop-color="#1A323C"/>
<stop offset="0.73" stop-color="#1A323C" stop-opacity="0"/>
</linearGradient>
<linearGradient id="paint1_linear_7514_24332" x1="34.601" y1="21.2606" x2="23.1441" y2="15.0518" gradientUnits="userSpaceOnUse">
<stop stop-color="#1A323C"/>
<stop offset="1" stop-color="#1A323C"/>
</linearGradient>
<linearGradient id="paint2_linear_7514_24332" x1="3.64158" y1="-2.62766" x2="35.5423" y2="22.3305" gradientUnits="userSpaceOnUse">
<stop offset="0.42" stop-color="#1A323C"/>
<stop offset="0.49" stop-color="#1A323C" stop-opacity="0.93"/>
<stop offset="0.58" stop-color="#1A323C" stop-opacity="0.7"/>
<stop offset="0.67" stop-color="#1A323C" stop-opacity="0.34"/>
<stop offset="0.73" stop-color="#1A323C" stop-opacity="0"/>
</linearGradient>
<linearGradient id="paint3_linear_7514_24332" x1="34.6285" y1="18.0708" x2="-12.3487" y2="2.18496" gradientUnits="userSpaceOnUse">
<stop offset="0.28" stop-color="#1A323C"/>
<stop offset="0.35" stop-color="#1A323C" stop-opacity="0.76"/>
<stop offset="0.6" stop-color="#1A323C" stop-opacity="0"/>
</linearGradient>
<linearGradient id="paint4_linear_7514_24332" x1="16.2975" y1="26.2211" x2="4.26341" y2="-0.332996" gradientUnits="userSpaceOnUse">
<stop offset="0.39" stop-color="#1A323C"/>
<stop offset="0.44" stop-color="#1A323C" stop-opacity="0.76"/>
<stop offset="0.62" stop-color="#1A323C" stop-opacity="0"/>
</linearGradient>
<linearGradient id="paint5_linear_7514_24332" x1="29.5811" y1="22.72" x2="11.9578" y2="12.4283" gradientUnits="userSpaceOnUse">
<stop offset="0.28" stop-color="#1A323C"/>
<stop offset="0.38" stop-color="#1A323C" stop-opacity="0.76"/>
<stop offset="0.73" stop-color="#1A323C" stop-opacity="0"/>
</linearGradient>
<linearGradient id="paint6_linear_7514_24332" x1="16.7741" y1="22.996" x2="20.078" y2="22.996" gradientUnits="userSpaceOnUse">
<stop stop-color="#1A323C"/>
<stop offset="1" stop-color="#1A323C"/>
</linearGradient>
<linearGradient id="paint7_linear_7514_24332" x1="-4.14754" y1="12.1105" x2="27.4325" y2="20.032" gradientUnits="userSpaceOnUse">
<stop offset="0.39" stop-color="#1A323C"/>
<stop offset="0.45" stop-color="#1A323C" stop-opacity="0.76"/>
<stop offset="0.67" stop-color="#1A323C" stop-opacity="0"/>
</linearGradient>
<linearGradient id="paint8_linear_7514_24332" x1="-4.73121" y1="12.2775" x2="27.7864" y2="20.3463" gradientUnits="userSpaceOnUse">
<stop offset="0.39" stop-color="#1A323C"/>
<stop offset="0.45" stop-color="#1A323C" stop-opacity="0.76"/>
<stop offset="0.67" stop-color="#1A323C" stop-opacity="0"/>
</linearGradient>
<linearGradient id="paint9_linear_7514_24332" x1="-4.26782" y1="10.4126" x2="28.2494" y2="18.4817" gradientUnits="userSpaceOnUse">
<stop offset="0.39" stop-color="#1A323C"/>
<stop offset="0.45" stop-color="#1A323C" stop-opacity="0.76"/>
<stop offset="0.67" stop-color="#1A323C" stop-opacity="0"/>
</linearGradient>
<linearGradient id="paint10_linear_7514_24332" x1="16.9381" y1="-2.9233" x2="38.8297" y2="20.3152" gradientUnits="userSpaceOnUse">
<stop offset="0.28" stop-color="#1A323C"/>
<stop offset="0.38" stop-color="#1A323C" stop-opacity="0.76"/>
<stop offset="0.73" stop-color="#1A323C" stop-opacity="0"/>
</linearGradient>
<clipPath id="clip0_7514_24332">
<rect width="129" height="24" fill="white"/>
</clipPath>
</defs>
</svg>
