<svg width="134" height="95" viewBox="0 0 134 95" fill="none" xmlns="http://www.w3.org/2000/svg">
<path d="M106.028 33.545C108.512 19.905 112.636 10.0842 115.964 4.03299C117.256 1.65219 114.623 -0.976608 112.288 0.362595C84.7147 16.433 72.5926 39.7946 71.1021 58.5929C69.8104 74.7625 80.8893 91.4777 97.6318 94.5033C114.374 97.5289 130.471 86.4185 133.502 69.7033C136.681 52.145 124.311 35.281 106.028 33.545Z" fill="#8AD5CE"/>
<path d="M35.0279 33.545C37.512 19.905 41.6355 10.0842 44.9642 4.03299C46.2559 1.65219 43.6228 -0.976608 41.2878 0.362587C13.7148 16.433 1.59257 39.7946 0.102135 58.5929C-1.18958 74.7625 9.88931 91.4777 26.6318 94.5033C43.424 97.5289 59.471 86.4185 62.5016 69.7033C65.6812 52.145 53.3106 35.281 35.0279 33.545Z" fill="#8AD5CE"/>
</svg>
