<svg width="130" height="130" viewBox="0 0 130 130" fill="none" xmlns="http://www.w3.org/2000/svg">
<rect width="130" height="130" rx="65" fill="#1A323C"/>
<path fill-rule="evenodd" clip-rule="evenodd" d="M85.0288 34.9667C85.0288 34.4124 85.4763 33.9911 86.0134 33.9911C86.5505 33.9911 86.9981 34.4346 86.9981 34.9667V43.3703L91.9661 47.1175C92.3913 47.4501 92.4808 48.071 92.1451 48.4922C91.8095 48.9135 91.1829 49.0022 90.7577 48.6696L85.454 44.6563C85.1854 44.4789 85.0064 44.1685 85.0064 43.8359V34.9446L85.0288 34.9667ZM83.3728 59.4678C81.3587 59.1353 79.4341 58.4257 77.711 57.3614H56.2052C55.6682 57.3614 55.2206 56.918 55.1982 56.3858C55.1982 55.8537 55.6234 55.4102 56.1829 55.388C56.1829 55.388 56.1829 55.388 56.2052 55.388H75.0927C73.9514 54.3459 72.9891 53.1486 72.2059 51.8182H56.2052C55.6682 51.8182 55.2206 51.3747 55.1982 50.8426C55.1982 50.3104 55.6234 49.867 56.1829 49.8448C56.1829 49.8448 56.1829 49.8448 56.2052 49.8448H71.2436C69.3638 45.2772 69.7442 40.0665 72.2954 35.8093H34.3414V43.6364H35.1918C38.2577 43.6364 39.8465 47.3392 37.6535 49.5122C37.0045 50.1552 36.1093 50.5322 35.1918 50.5322H34.3414V57.5166H35.1918C38.2577 57.5166 39.8465 61.2195 37.6535 63.3925C37.0045 64.0355 36.1093 64.4124 35.1918 64.4124H34.3414V71.3969H35.1918C38.2577 71.3969 39.8465 75.0998 37.6535 77.2727C37.0045 77.9157 36.1093 78.2927 35.1918 78.2927H34.3414V85.2772H35.1918C38.2577 85.2772 39.8465 88.98 37.6535 91.153C37.0045 91.796 36.1093 92.1729 35.1918 92.1729H34.3414V100H83.3951V86.541L80.5083 90.0222C80.3964 90.1996 80.2174 90.3104 80.016 90.3769L72.2954 92.9047C71.7807 93.0599 71.2212 92.7716 71.0422 92.2616C70.9974 92.1286 70.9751 91.9956 70.9974 91.8404L71.5345 87.7383H56.25C55.7129 87.7383 55.2653 87.2949 55.243 86.7627C55.243 86.2306 55.6682 85.7871 56.2276 85.765C56.2276 85.765 56.2276 85.765 56.25 85.765H71.7807L72.0269 83.8581C72.0492 83.6364 72.1611 83.4146 72.3178 83.2594L73.2129 82.1729H56.2276C55.6905 82.1729 55.243 81.7295 55.2206 81.1973C55.2206 80.6652 55.6458 80.2217 56.2052 80.1996C56.2052 80.1996 56.2052 80.1996 56.2276 80.1996H74.8242L83.3728 69.9335V59.4678ZM95.9047 34.0576C90.4444 28.6475 81.5825 28.6475 76.1221 34.0576C70.6618 39.4678 70.6618 48.2483 76.1221 53.6585C81.5825 59.0687 90.4444 59.0687 95.9047 53.6585C101.365 48.2483 101.365 39.4678 95.9047 34.0576ZM45.3069 84.0133L47.6566 85.8758C48.0147 86.1641 48.5518 86.1641 48.9098 85.8758L50.8792 84.2129V86.9845H44.7251V80.8869H50.8792V81.6408L48.2385 83.8359L46.5153 82.4834C46.0902 82.1508 45.4636 82.2173 45.1279 82.6386C44.7922 83.0599 44.8593 83.6807 45.2845 84.0133H45.3069ZM52.8932 80.0222C53.9226 79.49 54.8625 80.8869 53.9674 81.6408L52.8932 82.5499V87.9601C52.8932 88.5144 52.4457 88.9357 51.9086 88.9357H43.7852C43.2257 88.9357 42.8005 88.4922 42.8005 87.9601V79.9113C42.8005 79.357 43.2481 78.9357 43.7852 78.9357H51.9086C52.468 78.9357 52.8932 79.3792 52.8932 79.9113V80.0443V80.0222ZM85.1854 70.8204L86.0806 69.7339C86.7743 70.133 87.4233 70.5543 88.0723 71.02L76.4802 84.9224C75.8536 84.4568 75.1822 84.0133 74.5109 83.6142L85.0735 70.9534C85.0735 70.9534 85.1407 70.8647 85.1854 70.8204ZM89.594 72.2838C90.1758 72.816 90.7353 73.3703 91.25 73.969L79.6803 87.8492C79.1432 87.2727 78.5838 86.6962 78.0019 86.1863L89.594 72.2838ZM87.3561 68.204C89.2807 69.357 91.0262 70.7761 92.5256 72.439L93.3312 71.4634C91.8542 69.7783 90.1087 68.337 88.1618 67.2284L87.3338 68.2262L87.3561 68.204ZM89.4597 65.6763L90.5786 64.3237C91.0038 63.7916 91.5857 63.4368 92.2347 63.2594C92.7046 63.1486 93.1522 63.2151 93.4655 63.4368L96.039 65.5432C96.3523 65.8093 96.5089 66.2528 96.4866 66.7627C96.4418 67.4279 96.1733 68.0709 95.7481 68.5809L94.6068 69.9335C93.1074 68.2705 91.3619 66.8293 89.4373 65.6984L89.4597 65.6763ZM73.7724 85.4767C75.3389 86.4302 76.7487 87.6053 78.0019 88.9357L73.1234 90.5321L73.7724 85.4989V85.4767ZM45.3069 53.6807L47.6566 55.5432C48.0147 55.8315 48.5518 55.8315 48.9098 55.5432L50.8792 53.8803V56.6519H44.7251V50.5543H50.8792V51.3082L48.2385 53.5033L46.5153 52.1508C46.0902 51.8182 45.4636 51.8847 45.1279 52.306C44.7922 52.7273 44.8593 53.3481 45.2845 53.6807H45.3069ZM52.8932 49.6896C53.9226 49.1574 54.8625 50.5543 53.9674 51.3082L52.8932 52.2173V57.6275C52.8932 58.1818 52.4457 58.6031 51.9086 58.6031H43.7852C43.2257 58.6031 42.8005 58.1596 42.8005 57.6275V49.5787C42.8005 49.0244 43.2481 48.6031 43.7852 48.6031H51.9086C52.468 48.6031 52.8932 49.0466 52.8932 49.5787V49.7118V49.6896ZM35.1918 87.2284C36.0198 87.2284 36.6912 87.8936 36.6688 88.714C36.6688 89.5344 35.9974 90.1774 35.1918 90.1774H31.4994C30.6714 90.1774 30 89.5122 30.0224 88.6918C30.0224 87.8714 30.6937 87.2284 31.4994 87.2284H35.1918ZM35.1918 73.3481C36.0198 73.3481 36.6912 74.0133 36.6688 74.8337C36.6688 75.6541 35.9974 76.2971 35.1918 76.2971H31.4994C30.6714 76.2971 30 75.6319 30.0224 74.8115C30.0224 73.9911 30.6937 73.3481 31.4994 73.3481H35.1918ZM35.1918 59.4678C36.0198 59.4678 36.6912 60.133 36.6912 60.9534C36.6912 61.7738 36.0198 62.439 35.1918 62.439H31.4994C30.6714 62.439 30 61.7738 30 60.9534C30 60.133 30.6714 59.4678 31.4994 59.4678H35.1918ZM35.1918 45.5876C36.0198 45.5876 36.6912 46.2528 36.6912 47.0732C36.6912 47.8936 36.0198 48.5588 35.1918 48.5588H31.4994C30.6714 48.5588 30 47.8936 30 47.0732C30 46.2528 30.6714 45.5876 31.4994 45.5876H35.1918ZM45.3069 68.847L47.6566 70.7095C48.0147 70.9978 48.5518 70.9978 48.9098 70.7095L50.8792 69.0466V71.8182H44.7251V65.7206H50.8792V66.4745L48.2385 68.6696L46.5153 67.3171C46.0902 66.9845 45.4636 67.051 45.1279 67.4723C44.7922 67.8936 44.8593 68.5144 45.2845 68.847H45.3069ZM52.8932 64.8559C53.9226 64.3237 54.8625 65.7206 53.9674 66.4745L52.8932 67.3836V72.7938C52.8932 73.3481 52.4457 73.7694 51.9086 73.7694H43.7852C43.2257 73.7694 42.8005 73.3259 42.8005 72.7938V64.745C42.8005 64.1907 43.2481 63.7694 43.7852 63.7694H51.9086C52.468 63.7694 52.8932 64.2129 52.8932 64.745V64.878V64.8559ZM56.2052 66.9623C55.6682 66.9623 55.2206 66.5188 55.2206 65.9867C55.2206 65.4545 55.6682 65.0111 56.2052 65.0111H77.711C78.2481 65.0333 78.6956 65.4767 78.6956 66.0089C78.6956 66.541 78.2481 66.9623 77.711 66.9845H56.2052V66.9623ZM77.711 70.5765C78.2481 70.5765 78.6956 71.02 78.6956 71.5743C78.6956 72.1064 78.2481 72.5277 77.711 72.5499H56.2052C55.6682 72.5499 55.2206 72.1064 55.2206 71.5521C55.2206 71.02 55.6682 70.5765 56.2052 70.5765H77.711Z" fill="white"/>
</svg>
