<svg width="130" height="130" viewBox="0 0 130 130" fill="none" xmlns="http://www.w3.org/2000/svg">
<rect width="130" height="130" rx="65" fill="#1A323C"/>
<path d="M34.334 89.7449V100.001H62.9634V89.7449C62.9634 86.3564 60.2206 83.582 56.8204 83.582H40.4769C37.0995 83.582 34.334 86.3337 34.334 89.7449Z" fill="white"/>
<path d="M48.6342 83.6027C53.1536 83.6027 56.8173 79.9272 56.8173 75.3931C56.8173 70.8591 53.1536 67.1836 48.6342 67.1836C44.1149 67.1836 40.4512 70.8591 40.4512 75.3931C40.4512 79.9272 44.1149 83.6027 48.6342 83.6027Z" fill="white"/>
<path d="M67.0371 89.7449V100.001H95.6665V89.7449C95.6665 86.3564 92.9237 83.582 89.5235 83.582H73.1801C69.8026 83.582 67.0371 86.3337 67.0371 89.7449Z" fill="white"/>
<path d="M81.3481 83.6027C85.8675 83.6027 89.5312 79.9272 89.5312 75.3931C89.5312 70.8591 85.8675 67.1836 81.3481 67.1836C76.8287 67.1836 73.165 70.8591 73.165 75.3931C73.165 79.9272 76.8287 83.6027 81.3481 83.6027Z" fill="white"/>
<path d="M38.4111 42.303C38.4111 49.0798 43.9194 54.6059 50.6744 54.6059V63.8161L61.6456 54.6059H68.3326L79.3038 63.8161V54.6059C86.0588 54.6059 91.5671 49.0798 91.5671 42.303C91.5671 35.5261 86.0588 30 79.3038 30H50.6744C43.9194 30 38.4111 35.5261 38.4111 42.303ZM71.1207 40.2562H75.2009V44.3497H71.1207V40.2562ZM62.9603 40.2562H67.0405V44.3497H62.9603V40.2562ZM54.7773 40.2562H58.8575V44.3497H54.7773V40.2562Z" fill="white"/>
</svg>
