<svg width="130" height="130" viewBox="0 0 130 130" fill="none" xmlns="http://www.w3.org/2000/svg">
<rect width="130" height="130" rx="65" fill="#1A323C"/>
<path d="M50.1351 72.7666C50.1351 75.1042 49.0133 77.1821 47.3305 78.5457C47.8051 79.195 48.3229 79.801 48.8838 80.3854H49.5311C52.4005 80.3854 54.7952 82.4633 55.5288 85.2554C58.4629 86.6623 61.7422 87.4848 65.2157 87.4848C77.5995 87.4848 87.6317 77.4201 87.6317 64.9963C87.6317 52.5724 77.578 42.5078 65.2157 42.5078C52.832 42.5078 42.7998 52.5724 42.7998 64.9963C42.7998 65.1262 42.7998 65.256 42.7998 65.3859C46.8558 65.3859 50.1567 68.7191 50.1567 72.7883L50.1351 72.7666ZM62.6915 52.4859C62.6915 51.1006 63.8134 49.9968 65.1726 49.9968C66.5318 49.9968 67.6537 51.1223 67.6537 52.4859V63.6543L74.0182 67.9183C75.14 68.6758 75.4421 70.2126 74.7085 71.3597C73.9534 72.5069 72.4216 72.8315 71.2566 72.0956L63.7918 67.0958C63.1014 66.6413 62.6915 65.8621 62.6915 65.0179V52.5291V52.4859Z" fill="white"/>
<path d="M93.8076 44.9801C82.8046 29.1364 61.0574 25.2404 45.2649 36.279V35.002C45.2649 33.6168 44.143 32.5129 42.7838 32.5129C41.4246 32.5129 40.3027 33.6384 40.3027 35.002V42.491C40.3027 43.8762 41.4246 44.9801 42.7838 44.9801H50.2486C51.6294 44.9801 52.7297 43.8546 52.7297 42.491C52.7297 41.1274 51.6078 40.0019 50.2486 40.0019H48.6952C53.6142 36.7336 59.3746 35.002 65.286 35.002C81.8121 35.0237 95.2099 48.4864 95.1883 65.0877C95.1668 81.6889 81.7474 95.1084 65.1997 95.0867C61.8988 95.0867 58.7274 94.524 55.7501 93.5283V98.6581C58.749 99.5022 61.9204 100 65.1997 100C84.4658 100 100.086 84.3295 100.086 65.0011C100.086 57.8368 97.9067 50.8673 93.8292 44.9801H93.8076Z" fill="white"/>
<path d="M48.426 81.8672H35.7617C32.5471 81.8672 29.915 84.4862 29.915 87.7328V98.1654H34.1436L34.2299 91.0227C34.2299 90.3518 34.7693 89.8323 35.4381 89.8323C36.1069 89.8323 36.6247 90.3734 36.6247 91.0444L36.56 98.1654H47.6062L47.6925 91.0227C47.6925 90.3734 48.2318 89.8323 48.8791 89.8323C49.5479 89.8323 50.0656 90.3734 50.0656 91.0444L49.9794 98.1654H54.2727V87.7328C54.2727 84.5078 51.6622 81.8672 48.426 81.8672Z" fill="white"/>
<path d="M42.1055 79.6133C45.6006 79.6133 48.4269 76.7562 48.4269 73.2715C48.4269 69.7867 45.579 66.9297 42.1055 66.9297C38.632 66.9297 35.7842 69.7867 35.7842 73.2715C35.7842 76.7562 38.6104 79.6133 42.1055 79.6133Z" fill="white"/>
</svg>
