<svg width="130" height="130" viewBox="0 0 130 130" fill="none" xmlns="http://www.w3.org/2000/svg">
<rect width="130" height="130" rx="65" fill="#1A323C"/>
<path d="M65.0109 32.5C35.3628 33.2854 35.3628 76.7466 65.0109 77.5102C94.659 76.7248 94.659 33.2636 65.0109 32.5ZM70.0031 62.5213C68.4117 62.8268 64.3569 57.5251 63.2233 56.8051C62.0897 56.0851 62.7437 43.7362 62.5039 42.5362C62.5039 41.1617 63.6157 40.0272 65.0109 40.0272C66.4061 40.0272 67.5179 41.1399 67.5179 42.5362V54.0124L71.7907 58.2669C72.7717 59.2487 72.7717 60.8195 71.7907 61.8014C71.3111 62.2813 70.6789 62.5432 70.0031 62.5432V62.5213ZM97.493 92.5209C96.512 92.5863 95.5528 92.5863 94.5718 92.5209C93.1766 96.4263 88.882 98.4553 84.9798 97.059C82.8652 96.2953 81.2084 94.6372 80.4453 92.5209H72.0523C70.6353 96.4263 66.3407 98.4335 62.4385 97.0153C60.3457 96.2517 58.7107 94.6154 57.9477 92.5209H49.5547C48.1377 96.4263 43.843 98.4335 39.9408 97.0153C37.848 96.2517 36.213 94.6154 35.45 92.5209C33.4444 92.5209 30 92.979 30 90.0118C30 87.0446 33.4444 87.5028 35.45 87.5028C36.867 83.5974 41.1616 81.5901 45.0638 83.0083C47.1566 83.7719 48.7917 85.4083 49.5547 87.5028H57.9477C59.3647 83.5974 63.6593 81.5901 67.5615 83.0083C69.6543 83.7719 71.2893 85.4083 72.0523 87.5028H80.4453C81.8406 83.5974 86.1352 81.5683 90.0374 82.9647C92.152 83.7283 93.8088 85.3864 94.5718 87.5028C95.5528 87.4591 96.512 87.4591 97.493 87.5028C98.8664 87.5028 100 88.6155 100 90.0118C100 91.4082 98.8882 92.5209 97.493 92.5209Z" fill="white"/>
</svg>
