<svg width="458" height="685" viewBox="0 0 458 685" fill="none" xmlns="http://www.w3.org/2000/svg">
<g filter="url(#filter0_d_7514_17808)">
<g filter="url(#filter1_d_7514_17808)">
<path d="M444.998 674C444.998 677.355 442.375 680 439 680H146C142.625 680 140 677.355 140 674V636C140 632.645 142.625 630 146 630H439C442.375 630 444.998 632.645 444.998 636C444.998 636.653 445.431 637.715 446.031 638C446.031 638 453.007 641 453.004 642C453.001 642.905 446.599 645.716 445.998 646C445.397 646.284 444.998 647.332 444.998 648V674Z" fill="#FBF8BE"/>
</g>
<path d="M425 655H161" stroke="#666666" stroke-width="2" stroke-linecap="round"/>
<g filter="url(#filter2_d_7514_17808)">
<path d="M8.00586 612C8.00586 615.355 10.6288 618 14.0039 618H307.004C310.379 618 313.004 615.355 313.004 612V562C313.004 558.645 310.379 556 307.004 556H14.0039C10.6288 556 8.00586 558.645 8.00586 562C8.00586 562.653 7.57275 563.715 6.97266 564C6.97266 564 -0.00292751 567 0 568C0.00265187 568.905 6.4052 571.716 7.00586 572C7.60651 572.284 8.00586 573.332 8.00586 574V612Z" fill="#FBF8BE"/>
</g>
<path d="M285 581H21" stroke="#666666" stroke-width="2" stroke-linecap="round"/>
<path d="M285 593H21" stroke="#666666" stroke-width="2" stroke-linecap="round"/>
<g filter="url(#filter3_d_7514_17808)">
<path d="M444.998 538C444.998 541.355 442.375 544 439 544H146C142.625 544 140 541.355 140 538V500C140 496.645 142.625 494 146 494H439C442.375 494 444.998 496.645 444.998 500C444.998 500.653 445.431 501.715 446.031 502C446.031 502 453.007 505 453.004 506C453.001 506.905 446.599 509.716 445.998 510C445.397 510.284 444.998 511.332 444.998 512V538Z" fill="#6BC148"/>
</g>
<path d="M425 519H161" stroke="white" stroke-width="2" stroke-linecap="round"/>
<g filter="url(#filter4_d_7514_17808)">
<path d="M8.00586 476C8.00586 479.355 10.6288 482 14.0039 482H307.004C310.379 482 313.004 479.355 313.004 476V426C313.004 422.645 310.379 420 307.004 420H14.0039C10.6288 420 8.00586 422.645 8.00586 426C8.00586 426.653 7.57275 427.715 6.97266 428C6.97266 428 -0.00292751 431 0 432C0.00265187 432.905 6.4052 435.716 7.00586 436C7.60651 436.284 8.00586 437.332 8.00586 438V476Z" fill="#6BC148"/>
</g>
<path d="M285 445H21" stroke="white" stroke-width="2" stroke-linecap="round"/>
<path d="M285 457H21" stroke="white" stroke-width="2" stroke-linecap="round"/>
<g filter="url(#filter5_d_7514_17808)">
<path d="M444.998 402C444.998 405.355 442.375 408 439 408H146C142.625 408 140 405.355 140 402V364C140 360.645 142.625 358 146 358H439C442.375 358 444.998 360.645 444.998 364C444.998 364.653 445.431 365.715 446.031 366C446.031 366 453.007 369 453.004 370C453.001 370.905 446.599 373.716 445.998 374C445.397 374.284 444.998 375.332 444.998 376V402Z" fill="#FBF8BE"/>
</g>
<path d="M425 383H161" stroke="#666666" stroke-width="2" stroke-linecap="round"/>
<g filter="url(#filter6_d_7514_17808)">
<path d="M8.00586 340C8.00586 343.355 10.6288 346 14.0039 346H307.004C310.379 346 313.004 343.355 313.004 340V290C313.004 286.645 310.379 284 307.004 284H14.0039C10.6288 284 8.00586 286.645 8.00586 290C8.00586 290.653 7.57275 291.715 6.97266 292C6.97266 292 -0.00292751 295 0 296C0.00265187 296.905 6.4052 299.716 7.00586 300C7.60651 300.284 8.00586 301.332 8.00586 302V340Z" fill="#FBF8BE"/>
</g>
<path d="M285 309H21" stroke="#666666" stroke-width="2" stroke-linecap="round"/>
<path d="M285 321H21" stroke="#666666" stroke-width="2" stroke-linecap="round"/>
<g filter="url(#filter7_d_7514_17808)">
<path d="M444.998 266C444.998 269.355 442.375 272 439 272H226C222.625 272 220 269.355 220 266V228C220 224.645 222.625 222 226 222H439C442.375 222 444.998 224.645 444.998 228C444.998 228.653 445.431 229.715 446.031 230C446.031 230 453.007 233 453.004 234C453.001 234.905 446.599 237.716 445.998 238C445.397 238.284 444.998 239.332 444.998 240V266Z" fill="#FB8E91"/>
</g>
<path d="M425 247H241" stroke="white" stroke-width="2" stroke-linecap="round"/>
<g filter="url(#filter8_d_7514_17808)">
<path d="M8.00586 204C8.00586 207.355 10.6288 210 14.0039 210H307.004C310.379 210 313.004 207.355 313.004 204V166C313.004 162.645 310.379 160 307.004 160H14.0039C10.6288 160 8.00586 162.645 8.00586 166C8.00586 166.653 7.57275 167.715 6.97266 168C6.97266 168 -0.00292751 171 0 172C0.00265187 172.905 6.4052 175.716 7.00586 176C7.60651 176.284 8.00586 177.332 8.00586 178V204Z" fill="#FB8E91"/>
</g>
<path d="M28.0078 185H292.008" stroke="white" stroke-width="2" stroke-linecap="round"/>
<g filter="url(#filter9_d_7514_17808)">
<path d="M444.998 142C444.998 145.355 442.375 148 439 148H146C142.625 148 140 145.355 140 142V92C140 88.6454 142.625 86 146 86H439C442.375 86 444.998 88.6454 444.998 92C444.998 92.6535 445.431 93.715 446.031 94C446.031 94 453.007 97 453.004 98C453.001 98.9053 446.599 101.716 445.998 102C445.397 102.284 444.998 103.332 444.998 104V142Z" fill="#FBF8BE"/>
</g>
<path d="M168.008 111H432.008" stroke="#666666" stroke-width="2" stroke-linecap="round"/>
<path d="M168.008 123H432.008" stroke="#666666" stroke-width="2" stroke-linecap="round"/>
<g filter="url(#filter10_d_7514_17808)">
<path d="M8.00586 68C8.00586 71.3546 10.6288 74 14.0039 74H307.004C310.379 74 313.004 71.3546 313.004 68V6C313.004 2.64541 310.379 0 307.004 0H14.0039C10.6288 0 8.00586 2.64541 8.00586 6C8.00586 6.65349 7.57275 7.715 6.97266 8C6.97266 8 -0.00292587 11 2.56565e-06 12C0.00265351 12.9053 6.40521 15.7157 7.00586 16C7.60651 16.2843 8.00586 17.3319 8.00586 18V68Z" fill="#FBF8BE"/>
</g>
<path d="M28.0078 25H292.008" stroke="#666666" stroke-width="2" stroke-linecap="round"/>
<path d="M28.0078 37H292.008" stroke="#666666" stroke-width="2" stroke-linecap="round"/>
<path d="M28.0078 49H292.008" stroke="#666666" stroke-width="2" stroke-linecap="round"/>
</g>
<defs>
<filter id="filter0_d_7514_17808" x="0" y="0" width="458.144" height="684.644" filterUnits="userSpaceOnUse" color-interpolation-filters="sRGB">
<feFlood flood-opacity="0" result="BackgroundImageFix"/>
<feColorMatrix in="SourceAlpha" type="matrix" values="0 0 0 0 0 0 0 0 0 0 0 0 0 0 0 0 0 0 127 0" result="hardAlpha"/>
<feOffset dx="2.78633" dy="2.78633"/>
<feGaussianBlur stdDeviation="0.928776"/>
<feColorMatrix type="matrix" values="0 0 0 0 0.317647 0 0 0 0 0.317647 0 0 0 0 0.317647 0 0 0 0.3 0"/>
<feBlend mode="normal" in2="BackgroundImageFix" result="effect1_dropShadow_7514_17808"/>
<feBlend mode="normal" in="SourceGraphic" in2="effect1_dropShadow_7514_17808" result="shape"/>
</filter>
<filter id="filter1_d_7514_17808" x="140" y="630" width="317.648" height="54.6439" filterUnits="userSpaceOnUse" color-interpolation-filters="sRGB">
<feFlood flood-opacity="0" result="BackgroundImageFix"/>
<feColorMatrix in="SourceAlpha" type="matrix" values="0 0 0 0 0 0 0 0 0 0 0 0 0 0 0 0 0 0 127 0" result="hardAlpha"/>
<feOffset dx="2.78633" dy="2.78633"/>
<feGaussianBlur stdDeviation="0.928776"/>
<feColorMatrix type="matrix" values="0 0 0 0 0.317647 0 0 0 0 0.317647 0 0 0 0 0.317647 0 0 0 0.3 0"/>
<feBlend mode="normal" in2="BackgroundImageFix" result="effect1_dropShadow_7514_17808"/>
<feBlend mode="normal" in="SourceGraphic" in2="effect1_dropShadow_7514_17808" result="shape"/>
</filter>
<filter id="filter2_d_7514_17808" x="0" y="556" width="317.648" height="66.6439" filterUnits="userSpaceOnUse" color-interpolation-filters="sRGB">
<feFlood flood-opacity="0" result="BackgroundImageFix"/>
<feColorMatrix in="SourceAlpha" type="matrix" values="0 0 0 0 0 0 0 0 0 0 0 0 0 0 0 0 0 0 127 0" result="hardAlpha"/>
<feOffset dx="2.78633" dy="2.78633"/>
<feGaussianBlur stdDeviation="0.928776"/>
<feColorMatrix type="matrix" values="0 0 0 0 0.317647 0 0 0 0 0.317647 0 0 0 0 0.317647 0 0 0 0.3 0"/>
<feBlend mode="normal" in2="BackgroundImageFix" result="effect1_dropShadow_7514_17808"/>
<feBlend mode="normal" in="SourceGraphic" in2="effect1_dropShadow_7514_17808" result="shape"/>
</filter>
<filter id="filter3_d_7514_17808" x="140" y="494" width="317.648" height="54.6439" filterUnits="userSpaceOnUse" color-interpolation-filters="sRGB">
<feFlood flood-opacity="0" result="BackgroundImageFix"/>
<feColorMatrix in="SourceAlpha" type="matrix" values="0 0 0 0 0 0 0 0 0 0 0 0 0 0 0 0 0 0 127 0" result="hardAlpha"/>
<feOffset dx="2.78633" dy="2.78633"/>
<feGaussianBlur stdDeviation="0.928776"/>
<feColorMatrix type="matrix" values="0 0 0 0 0.317647 0 0 0 0 0.317647 0 0 0 0 0.317647 0 0 0 0.3 0"/>
<feBlend mode="normal" in2="BackgroundImageFix" result="effect1_dropShadow_7514_17808"/>
<feBlend mode="normal" in="SourceGraphic" in2="effect1_dropShadow_7514_17808" result="shape"/>
</filter>
<filter id="filter4_d_7514_17808" x="0" y="420" width="317.648" height="66.6439" filterUnits="userSpaceOnUse" color-interpolation-filters="sRGB">
<feFlood flood-opacity="0" result="BackgroundImageFix"/>
<feColorMatrix in="SourceAlpha" type="matrix" values="0 0 0 0 0 0 0 0 0 0 0 0 0 0 0 0 0 0 127 0" result="hardAlpha"/>
<feOffset dx="2.78633" dy="2.78633"/>
<feGaussianBlur stdDeviation="0.928776"/>
<feColorMatrix type="matrix" values="0 0 0 0 0.317647 0 0 0 0 0.317647 0 0 0 0 0.317647 0 0 0 0.3 0"/>
<feBlend mode="normal" in2="BackgroundImageFix" result="effect1_dropShadow_7514_17808"/>
<feBlend mode="normal" in="SourceGraphic" in2="effect1_dropShadow_7514_17808" result="shape"/>
</filter>
<filter id="filter5_d_7514_17808" x="140" y="358" width="317.648" height="54.6439" filterUnits="userSpaceOnUse" color-interpolation-filters="sRGB">
<feFlood flood-opacity="0" result="BackgroundImageFix"/>
<feColorMatrix in="SourceAlpha" type="matrix" values="0 0 0 0 0 0 0 0 0 0 0 0 0 0 0 0 0 0 127 0" result="hardAlpha"/>
<feOffset dx="2.78633" dy="2.78633"/>
<feGaussianBlur stdDeviation="0.928776"/>
<feColorMatrix type="matrix" values="0 0 0 0 0.317647 0 0 0 0 0.317647 0 0 0 0 0.317647 0 0 0 0.3 0"/>
<feBlend mode="normal" in2="BackgroundImageFix" result="effect1_dropShadow_7514_17808"/>
<feBlend mode="normal" in="SourceGraphic" in2="effect1_dropShadow_7514_17808" result="shape"/>
</filter>
<filter id="filter6_d_7514_17808" x="0" y="284" width="317.648" height="66.6439" filterUnits="userSpaceOnUse" color-interpolation-filters="sRGB">
<feFlood flood-opacity="0" result="BackgroundImageFix"/>
<feColorMatrix in="SourceAlpha" type="matrix" values="0 0 0 0 0 0 0 0 0 0 0 0 0 0 0 0 0 0 127 0" result="hardAlpha"/>
<feOffset dx="2.78633" dy="2.78633"/>
<feGaussianBlur stdDeviation="0.928776"/>
<feColorMatrix type="matrix" values="0 0 0 0 0.317647 0 0 0 0 0.317647 0 0 0 0 0.317647 0 0 0 0.3 0"/>
<feBlend mode="normal" in2="BackgroundImageFix" result="effect1_dropShadow_7514_17808"/>
<feBlend mode="normal" in="SourceGraphic" in2="effect1_dropShadow_7514_17808" result="shape"/>
</filter>
<filter id="filter7_d_7514_17808" x="220" y="222" width="237.648" height="54.6439" filterUnits="userSpaceOnUse" color-interpolation-filters="sRGB">
<feFlood flood-opacity="0" result="BackgroundImageFix"/>
<feColorMatrix in="SourceAlpha" type="matrix" values="0 0 0 0 0 0 0 0 0 0 0 0 0 0 0 0 0 0 127 0" result="hardAlpha"/>
<feOffset dx="2.78633" dy="2.78633"/>
<feGaussianBlur stdDeviation="0.928776"/>
<feColorMatrix type="matrix" values="0 0 0 0 0.317647 0 0 0 0 0.317647 0 0 0 0 0.317647 0 0 0 0.3 0"/>
<feBlend mode="normal" in2="BackgroundImageFix" result="effect1_dropShadow_7514_17808"/>
<feBlend mode="normal" in="SourceGraphic" in2="effect1_dropShadow_7514_17808" result="shape"/>
</filter>
<filter id="filter8_d_7514_17808" x="0" y="160" width="317.648" height="54.6439" filterUnits="userSpaceOnUse" color-interpolation-filters="sRGB">
<feFlood flood-opacity="0" result="BackgroundImageFix"/>
<feColorMatrix in="SourceAlpha" type="matrix" values="0 0 0 0 0 0 0 0 0 0 0 0 0 0 0 0 0 0 127 0" result="hardAlpha"/>
<feOffset dx="2.78633" dy="2.78633"/>
<feGaussianBlur stdDeviation="0.928776"/>
<feColorMatrix type="matrix" values="0 0 0 0 0.317647 0 0 0 0 0.317647 0 0 0 0 0.317647 0 0 0 0.3 0"/>
<feBlend mode="normal" in2="BackgroundImageFix" result="effect1_dropShadow_7514_17808"/>
<feBlend mode="normal" in="SourceGraphic" in2="effect1_dropShadow_7514_17808" result="shape"/>
</filter>
<filter id="filter9_d_7514_17808" x="140" y="86" width="317.648" height="66.6439" filterUnits="userSpaceOnUse" color-interpolation-filters="sRGB">
<feFlood flood-opacity="0" result="BackgroundImageFix"/>
<feColorMatrix in="SourceAlpha" type="matrix" values="0 0 0 0 0 0 0 0 0 0 0 0 0 0 0 0 0 0 127 0" result="hardAlpha"/>
<feOffset dx="2.78633" dy="2.78633"/>
<feGaussianBlur stdDeviation="0.928776"/>
<feColorMatrix type="matrix" values="0 0 0 0 0.317647 0 0 0 0 0.317647 0 0 0 0 0.317647 0 0 0 0.3 0"/>
<feBlend mode="normal" in2="BackgroundImageFix" result="effect1_dropShadow_7514_17808"/>
<feBlend mode="normal" in="SourceGraphic" in2="effect1_dropShadow_7514_17808" result="shape"/>
</filter>
<filter id="filter10_d_7514_17808" x="0" y="0" width="317.648" height="78.6439" filterUnits="userSpaceOnUse" color-interpolation-filters="sRGB">
<feFlood flood-opacity="0" result="BackgroundImageFix"/>
<feColorMatrix in="SourceAlpha" type="matrix" values="0 0 0 0 0 0 0 0 0 0 0 0 0 0 0 0 0 0 127 0" result="hardAlpha"/>
<feOffset dx="2.78633" dy="2.78633"/>
<feGaussianBlur stdDeviation="0.928776"/>
<feColorMatrix type="matrix" values="0 0 0 0 0.317647 0 0 0 0 0.317647 0 0 0 0 0.317647 0 0 0 0.3 0"/>
<feBlend mode="normal" in2="BackgroundImageFix" result="effect1_dropShadow_7514_17808"/>
<feBlend mode="normal" in="SourceGraphic" in2="effect1_dropShadow_7514_17808" result="shape"/>
</filter>
</defs>
</svg>
