<svg width="112" height="100" viewBox="0 0 112 100" fill="none" xmlns="http://www.w3.org/2000/svg">
<path d="M112 27.5747C112 22.0791 107.584 17.608 102.156 17.608L84.6562 17.608V10.4591C84.6562 4.69192 80.0223 0 74.3264 0L37.6738 0C31.9778 0 27.3438 4.69192 27.3438 10.4591L27.3437 17.608L9.84375 17.608C4.41591 17.608 0 22.0791 0 27.5747L0 43.2994C0 46.2297 0.942375 49.8839 4.375 53.4684L4.375 90.0332C4.375 95.5289 8.79091 100 14.2187 100L97.7812 100C103.209 100 107.625 95.5289 107.625 90.0332V53.4684C111.056 49.8859 112 46.2328 112 43.2994V27.5747ZM33.9062 10.4591C33.9062 8.3557 35.5963 6.64452 37.6738 6.64452L74.3267 6.64452C76.4039 6.64452 78.094 8.3557 78.094 10.4591V17.608L33.9062 17.608V10.4591ZM6.5625 27.5747C6.5625 25.7429 8.03447 24.2525 9.84375 24.2525L102.156 24.2525C103.966 24.2525 105.438 25.7429 105.438 27.5747V43.2994C105.437 51.474 89.9483 58.1448 67.375 59.8926V56.8106C67.375 54.9759 65.9059 53.4884 64.0937 53.4884H47.9062C46.0941 53.4884 44.625 54.9759 44.625 56.8106V59.8915C22.0721 58.1415 6.5625 51.4532 6.5625 43.2994L6.5625 27.5747ZM60.8125 60.1329V64.4518C60.8125 66.8332 58.8989 68.7708 56.5469 68.7708H55.4531C53.1011 68.7708 51.1875 66.8332 51.1875 64.4518V60.1329H60.8125ZM97.7812 93.3555L14.2187 93.3555C12.4095 93.3555 10.9375 91.8651 10.9375 90.0332L10.9375 58.3444C20.7078 63.4135 30.9754 65.3681 44.8298 66.5699C45.8073 71.6046 50.1983 75.4153 55.4531 75.4153H56.5469C61.8021 75.4153 66.1933 71.6042 67.1705 66.569C78.6148 65.7298 88.9462 63.6029 96.4898 60.5123C98.1862 59.8173 99.7036 59.0913 101.062 58.3437V90.0332C101.062 91.8651 99.5905 93.3555 97.7812 93.3555Z" fill="url(#paint0_linear_7923_8035)"/>
<defs>
<linearGradient id="paint0_linear_7923_8035" x1="4.20994e-07" y1="19" x2="112.988" y2="98.5976" gradientUnits="userSpaceOnUse">
<stop stop-color="#8BD6CE"/>
<stop offset="1" stop-color="#D9D9D9"/>
</linearGradient>
</defs>
</svg>
