<svg width="20" height="20" viewBox="0 0 20 20" fill="none" xmlns="http://www.w3.org/2000/svg">
<path d="M10 20C15.5228 20 20 15.5228 20 10C20 4.47715 15.5228 0 10 0C4.47715 0 0 4.47715 0 10C0 15.5228 4.47715 20 10 20Z" fill="#1A323C"/>
<path d="M19.8938 11.4684C19.3418 15.2184 16.7086 18.2902 13.2059 19.4762L4.2832 10.552L6.2168 8.61836L8.37109 10.773L13.7848 5.35938L19.8938 11.4684Z" fill="url(#paint0_linear_7037_10189)"/>
<path d="M15.7184 7.29258L10.3047 12.7066L10.0008 13.0105L8.37109 14.6398L6.4375 12.7066L4.2832 10.552L6.2168 8.61836L8.37109 10.773L10.0008 9.14336L13.7848 5.35938L15.7184 7.29258Z" fill="#FFF5F5"/>
<defs>
<linearGradient id="paint0_linear_7037_10189" x1="7.95664" y1="6.87852" x2="17.6102" y2="16.532" gradientUnits="userSpaceOnUse">
<stop/>
<stop offset="1" stop-opacity="0"/>
</linearGradient>
</defs>
</svg>
