<svg width="125" height="72" viewBox="0 0 125 72" fill="none" xmlns="http://www.w3.org/2000/svg">
<path d="M63.4395 65.4521L71.0713 69.9053L78.875 65.1201V56.7197C78.0267 56.3542 77.4327 55.5128 77.4326 54.5322C77.4326 53.2984 78.3726 52.284 79.5771 52.1621L79.8213 52.1494C81.1404 52.1494 82.2099 53.2165 82.21 54.5322C82.21 55.5468 81.5747 56.413 80.6787 56.7568V66.126L71.0938 72.0039L62.542 67.0137L53.9795 72.0039L44.4229 66.1875V56.9443C43.5269 56.6005 42.8916 55.7343 42.8916 54.7197C42.8917 53.4038 43.9612 52.3369 45.2803 52.3369C46.5993 52.337 47.6689 53.4038 47.6689 54.7197C47.6689 55.7001 47.0749 56.5426 46.2266 56.9082V65.1777L53.999 69.9082L61.5459 65.5098L61.5859 45.0469H63.4795L63.4395 65.4521ZM80.7285 45.1992L88.5342 50.0303L96.0059 45.376V45.0469H97.8096V46.374L89.4375 51.5889V61.1309L87.9873 62.5762C88.0714 62.8194 88.1182 63.0807 88.1182 63.3525C88.1181 64.6681 87.0484 65.7351 85.7295 65.7354C84.4104 65.7354 83.3399 64.6685 83.3398 63.3525C83.3398 62.0365 84.4103 60.9697 85.7295 60.9697C86.1131 60.9698 86.4758 61.0603 86.7969 61.2207L87.6338 60.3848V51.5908L79.8271 46.7578L72.0186 51.5908V60.7578C72.891 61.1129 73.5058 61.9663 73.5059 62.9639C73.5059 64.2799 72.4363 65.3467 71.1172 65.3467C69.7981 65.3466 68.7285 64.2798 68.7285 62.9639C68.7286 61.9663 69.3437 61.1129 70.2158 60.7578V50.5898L78.9248 45.1992V45.0469H80.7285V45.1992ZM29.1045 45.2129L36.5859 50.0293L44.6777 45.0469H45.9775L54.8955 50.5947V60.7061C55.7678 61.0613 56.3828 61.9156 56.3828 62.9131C56.3826 64.2284 55.3129 65.2947 53.9941 65.2949C52.6752 65.2949 51.6048 64.2286 51.6045 62.9131C51.6045 61.9156 52.2198 61.0613 53.0918 60.7061V51.5928L45.3262 46.7617L37.4766 51.5947V60.1211L39.0537 61.2373C39.4059 60.9679 39.8358 60.7933 40.3037 60.7539L40.5068 60.7461C41.8258 60.7463 42.8954 61.8133 42.8955 63.1289C42.8955 64.4445 41.8258 65.5115 40.5068 65.5117C39.1877 65.5117 38.1182 64.4446 38.1182 63.1289C38.1182 63.0165 38.1253 62.9053 38.1406 62.7969L35.6729 61.0498V51.584L27.3008 46.1934V45.0469H29.1045V45.2129ZM85.7295 62.1836C85.0826 62.1836 84.5577 62.7057 84.5576 63.3516C84.5576 63.9974 85.0825 64.5205 85.7295 64.5205C86.3765 64.5203 86.9004 63.9967 86.9004 63.3516C86.9003 62.7065 86.3762 62.1838 85.7295 62.1836ZM40.5068 61.96C39.8599 61.96 39.335 62.4836 39.335 63.1289C39.3352 63.774 39.86 64.2969 40.5068 64.2969C41.1539 64.2968 41.6785 63.7745 41.6787 63.1289C41.6787 62.4831 41.1538 61.96 40.5068 61.96ZM71.1172 61.7949C70.4699 61.7949 69.9453 62.318 69.9453 62.9639C69.9454 63.6097 70.47 64.1328 71.1172 64.1328C71.7643 64.1327 72.289 63.6096 72.2891 62.9639C72.2891 62.3186 71.7644 61.795 71.1172 61.7949ZM53.9941 61.7432C53.347 61.7432 52.8224 62.2669 52.8223 62.9121C52.8223 63.5574 53.3469 64.0811 53.9941 64.0811C54.6413 64.081 55.166 63.5579 55.166 62.9121C55.1659 62.2664 54.641 61.7433 53.9941 61.7432ZM45.2793 53.5508C44.6323 53.551 44.1084 54.0743 44.1084 54.7197C44.1085 55.3651 44.6323 55.8874 45.2793 55.8877C45.9265 55.8877 46.4511 55.3655 46.4512 54.7197C46.4512 54.0739 45.9265 53.5508 45.2793 53.5508ZM79.8213 53.3633C79.1743 53.3633 78.6494 53.8864 78.6494 54.5322C78.6495 55.178 79.1744 55.7012 79.8213 55.7012C80.4684 55.7011 80.993 55.1774 80.9932 54.5322C80.9932 53.887 80.4682 53.3633 79.8213 53.3633ZM39.3818 6.27148C40.7009 6.27158 41.7705 7.33865 41.7705 8.6543C41.7705 9.96997 40.7009 11.037 39.3818 11.0371C38.9982 11.0371 38.6356 10.9465 38.3145 10.7861L37.4766 11.6211V20.416L45.2842 25.248L53.0918 20.416V11.249C52.2195 10.8939 51.6047 10.0404 51.6045 9.04297C51.6045 7.72703 52.6741 6.66028 53.9932 6.66016C55.3123 6.66016 56.3818 7.72695 56.3818 9.04297C56.3817 10.0404 55.7666 10.8939 54.8945 11.249V21.417L46.1855 26.8076V26.8203H44.3818V26.8076L36.5762 21.9756L29.1045 26.6299V26.8203H27.3008V25.6328L35.6729 20.418V10.876L37.123 9.43066C37.0389 9.18741 36.9932 8.92609 36.9932 8.6543C36.9932 7.3386 38.0627 6.27148 39.3818 6.27148ZM80.6875 5.81641V15.0586C81.5834 15.4024 82.2197 16.2687 82.2197 17.2832C82.2197 18.5991 81.1501 19.6659 79.8311 19.666C78.5119 19.666 77.4424 18.5992 77.4424 17.2832C77.4424 16.3029 78.0364 15.4613 78.8848 15.0957V6.82617L71.1113 2.0957L63.5645 6.49316L63.5254 26.8174H61.6318L61.6719 6.55078L54.04 2.09766L46.2363 6.88379V15.2832C47.0846 15.6488 47.6787 16.4911 47.6787 17.4717C47.6786 18.7876 46.6082 19.8545 45.2891 19.8545C43.9701 19.8543 42.9005 18.7872 42.9004 17.4717C42.9004 16.4571 43.5367 15.5906 44.4326 15.2471V5.87793L54.0166 0L62.5693 4.99023L71.1318 0L80.6875 5.81641ZM84.6045 6.4873C85.9236 6.48732 86.9932 7.55439 86.9932 8.87012C86.9931 8.98264 86.9847 9.09315 86.9697 9.20117L89.4375 10.9482V20.415L97.8096 25.8057V26.8125H96.0059V26.7861L88.5254 21.9688L80.6602 26.8125H78.9092L70.2158 21.4043V11.293C69.3434 10.9378 68.7285 10.0835 68.7285 9.08594C68.7288 7.77045 69.7982 6.70416 71.1172 6.7041C72.4362 6.7041 73.5056 7.77042 73.5059 9.08594C73.5059 10.0835 72.8907 10.9378 72.0186 11.293V20.4062L79.7842 25.2373L87.6338 20.4043V11.8779L86.0566 10.7617C85.6543 11.0695 85.1506 11.2529 84.6045 11.2529C83.2855 11.2529 82.216 10.1857 82.2158 8.87012C82.2158 7.55438 83.2853 6.4873 84.6045 6.4873ZM45.29 16.3027C44.6428 16.3027 44.1182 16.8264 44.1182 17.4717C44.1182 18.1169 44.6428 18.6396 45.29 18.6396C45.9371 18.6395 46.4618 18.1174 46.4619 17.4717C46.4619 16.8259 45.9369 16.3029 45.29 16.3027ZM79.8311 16.1152C79.1843 16.1153 78.6594 16.6376 78.6592 17.2832C78.6592 17.929 79.1838 18.4521 79.8311 18.4521C80.4783 18.4521 81.0029 17.9288 81.0029 17.2832C81.0027 16.6378 80.4779 16.1152 79.8311 16.1152ZM71.1172 7.91797C70.4701 7.91797 69.9456 8.44029 69.9453 9.08594C69.9453 9.7318 70.4702 10.2549 71.1172 10.2549C71.7644 10.2548 72.2891 9.73117 72.2891 9.08594C72.2888 8.44092 71.7642 7.91807 71.1172 7.91797ZM53.9932 7.87305C53.3461 7.87317 52.8214 8.39634 52.8213 9.04199C52.8213 9.68749 53.346 10.2108 53.9932 10.2109C54.6404 10.2109 55.165 9.68785 55.165 9.04199C55.1649 8.39626 54.6403 7.87305 53.9932 7.87305ZM84.6045 7.70117C83.9575 7.70117 83.4326 8.22426 83.4326 8.87012C83.4327 9.51592 83.9573 10.0391 84.6045 10.0391C85.2516 10.0389 85.7763 9.51525 85.7764 8.87012C85.7764 8.22493 85.2513 7.70134 84.6045 7.70117ZM39.3818 7.48535C38.7346 7.48535 38.21 8.00903 38.21 8.6543C38.21 9.29959 38.7346 9.82324 39.3818 9.82324C40.029 9.82315 40.5537 9.3001 40.5537 8.6543C40.5537 8.00853 40.0287 7.48545 39.3818 7.48535Z" fill="white"/>
<path d="M10.6123 29.8965C10.8568 29.8965 11.0547 30.0944 11.0547 30.3379V33.4551C11.0547 33.6986 10.8565 33.8965 10.6123 33.8965H9.57617C9.332 33.8965 9.13379 33.6983 9.13379 33.4551V31.7666H5.83984C3.6756 31.7668 1.9209 33.5171 1.9209 35.6758V36.5732C1.9209 37.6098 2.33456 38.6038 3.06934 39.3369C3.80432 40.07 4.80068 40.4816 5.83984 40.4814H8.22656C8.34383 40.4814 8.45635 40.5285 8.53906 40.6113C8.62196 40.6941 8.66889 40.806 8.66895 40.9229V41.9111C8.66895 42.0278 8.62206 42.1411 8.53906 42.2236C8.45637 42.3063 8.34345 42.3525 8.22656 42.3525H5.83984C2.61479 42.3524 0 39.7441 0 36.5273V35.7217C0.000170695 32.5048 2.61489 29.8976 5.83984 29.8975L10.6123 29.8965ZM72.9238 29.8965C73.332 29.9846 73.1972 29.932 75.0439 33.0859C75.1813 33.3204 75.183 33.6108 75.0479 33.8467L73.7412 36.1299C74.0095 36.5924 74.4104 37.2969 75.0449 38.3789L75.0898 38.4688C75.1804 38.6845 75.1671 38.9322 75.0488 39.1387L73.4326 41.9629C73.2977 42.1986 73.0465 42.3446 72.7744 42.3457H71.8271L69.0596 42.3525H64.9043C64.6602 42.3525 64.462 42.1546 64.4619 41.9111V35.6299C64.4619 35.5132 64.5088 35.4009 64.5918 35.3184C64.6745 35.2356 64.787 35.1885 64.9043 35.1885H71.8809C72.0524 35.1628 72.1204 35.0944 72.2197 34.9209C72.9426 33.6577 73.0863 33.5464 72.9189 33.2588C72.1283 31.8989 72.1071 31.7766 71.7979 31.7783C71.6463 31.7792 71.375 31.7676 64.9043 31.7676C64.6601 31.7676 64.4619 31.5694 64.4619 31.3262V30.3379C64.4619 30.2209 64.5088 30.1091 64.5918 30.0264C64.6745 29.9436 64.787 29.8965 64.9043 29.8965H72.9238ZM123.349 29.8965C123.593 29.8965 123.791 30.0941 123.791 30.3379V31.3262C123.791 31.5697 123.593 31.7676 123.349 31.7676H118.151C117.204 31.7676 116.436 32.5335 116.436 33.4785C116.436 34.4235 117.204 35.1895 118.151 35.1895H121.004C123.431 35.1896 124.799 36.9631 124.798 38.7705L124.793 38.9551C124.697 40.8476 123.128 42.3525 121.207 42.3525H119.877C119.633 42.3524 119.436 42.1546 119.436 41.9111V40.9229C119.436 40.8061 119.482 40.6941 119.564 40.6113C119.647 40.5289 119.76 40.4815 119.877 40.4814H121.161C122.109 40.4814 122.877 39.7156 122.877 38.7705C122.877 37.8256 122.109 37.0596 121.161 37.0596H118.31C115.883 37.0596 114.515 35.2863 114.515 33.4785C114.515 31.5005 116.122 29.8965 118.105 29.8965H123.349ZM24.9941 35.1885C25.1112 35.1886 25.2238 35.2347 25.3066 35.3174C25.3893 35.3998 25.4357 35.5124 25.4355 35.6289V36.6191C25.4354 36.7359 25.3892 36.848 25.3066 36.9307C25.2238 37.0131 25.1112 37.0595 24.9941 37.0596H19.0557V40.4814H25.917C26.1607 40.4815 26.3589 40.6788 26.3594 40.9219V41.9102C26.3594 42.1536 26.1611 42.3515 25.917 42.3516H17.5732C17.3305 42.3516 17.1327 42.1561 17.1309 41.9141L17.1191 40.4805H17.1348V35.6289C17.135 35.3857 17.3323 35.1887 17.5762 35.1885H24.9941ZM57.0371 35.1885C57.1542 35.1886 57.2667 35.2347 57.3496 35.3174C57.4322 35.3998 57.4787 35.5124 57.4785 35.6289V36.6191C57.4784 36.7359 57.4322 36.848 57.3496 36.9307C57.2667 37.0131 57.1543 37.0595 57.0371 37.0596H51.0986V40.4814H57.96C58.2037 40.4814 58.4019 40.6788 58.4023 40.9219V41.9102C58.4023 42.1537 58.2041 42.3516 57.96 42.3516H49.6162C49.3735 42.3516 49.1756 42.1561 49.1738 41.9141L49.1621 40.4805H49.1777V35.6289C49.178 35.3857 49.3753 35.1887 49.6191 35.1885H57.0371ZM40.8809 29.8867C41.289 29.9749 41.1546 29.922 43.002 33.0771C43.1388 33.3115 43.1404 33.6009 43.0059 33.8369L41.3896 36.6611C41.2545 36.8969 41.0036 37.0425 40.7314 37.0439H39.7832L43.0244 41.6494H43.0254C43.1194 41.7844 43.1305 41.96 43.0547 42.1055C42.9788 42.2512 42.8279 42.3434 42.6631 42.3438C41.3459 42.3438 41.1947 42.4054 41.0186 42.1553L37.4248 37.0508H34.3398V41.9023C34.3396 42.146 34.1415 42.3438 33.8975 42.3438H32.8604C32.6165 42.3435 32.4192 42.1456 32.4189 41.9023V35.6211C32.4189 35.3777 32.6164 35.1799 32.8604 35.1797H38.7998V35.1855C39.9052 35.1856 39.972 35.2671 40.1768 34.9111C40.8993 33.6478 41.0441 33.5376 40.877 33.25C40.086 31.8897 40.0647 31.7669 39.7559 31.7686C39.6043 31.7694 39.337 31.7578 32.8613 31.7578C32.6173 31.7578 32.4194 31.5608 32.4189 31.3174V30.3281C32.4191 30.0845 32.6173 29.8867 32.8613 29.8867H40.8809ZM89.6582 29.8867C90.0664 29.9749 89.9319 29.9219 91.7793 33.0771C91.9162 33.3115 91.9178 33.6009 91.7832 33.8369L90.167 36.6611C90.0318 36.8969 89.7809 37.0425 89.5088 37.0439H88.5605L91.8027 41.6494L91.834 41.7021C91.8981 41.8281 91.8984 41.9782 91.832 42.1055C91.7561 42.2513 91.6053 42.3435 91.4404 42.3438C90.1232 42.3438 89.9721 42.4056 89.7959 42.1553L86.2021 37.0508H83.1172V41.9023C83.117 42.146 82.9188 42.3438 82.6748 42.3438H81.6387C81.3946 42.3438 81.1965 42.1457 81.1963 41.9023V35.6211C81.1963 35.3776 81.3945 35.1797 81.6387 35.1797H87.5771V35.1855C88.6828 35.1856 88.7493 35.2671 88.9541 34.9111C89.6767 33.6477 89.8214 33.5376 89.6543 33.25C88.8632 31.8894 88.8422 31.7669 88.5332 31.7686C88.3817 31.7694 88.1143 31.7578 81.6387 31.7578C81.3947 31.7577 81.1968 31.5607 81.1963 31.3174V30.3281C81.1965 30.0845 81.3947 29.8868 81.6387 29.8867H89.6582ZM99.4189 30.0059C99.6632 30.006 99.8613 30.2036 99.8613 30.4473V37.7266C99.8618 38.9796 100.699 40.079 101.91 40.4141C102.102 40.4672 102.235 40.6412 102.234 40.8398V41.8594C102.234 41.9922 102.174 42.1185 102.071 42.2021C101.968 42.2857 101.832 42.3188 101.702 42.292C99.511 41.8385 97.9396 39.913 97.9395 37.6807V30.4473C97.9395 30.2038 98.1377 30.0061 98.3818 30.0059H99.4189ZM108.009 29.9336C108.253 29.9337 108.451 30.1318 108.451 30.375V37.6797C108.451 39.9119 106.879 41.8378 104.688 42.291C104.557 42.318 104.422 42.2848 104.319 42.2012C104.216 42.1175 104.156 41.9909 104.156 41.8584V40.8389C104.156 40.6408 104.289 40.4669 104.48 40.4141C105.691 40.079 106.529 38.9796 106.529 37.7266V30.375C106.529 30.1316 106.727 29.9338 106.972 29.9336H108.009ZM66.3828 40.4814H70.8428V40.4873C71.9487 40.4873 72.0153 40.5684 72.2197 40.2129L72.6572 39.4609C72.9952 38.8832 73.0453 38.7673 72.9199 38.5518C72.1288 37.1912 72.1081 37.0686 71.7988 37.0703C71.6591 37.0709 71.4167 37.0613 66.3828 37.0596V40.4814ZM26.3584 31.7676H17.1191V29.8965H26.3584V31.7676ZM58.4023 31.7676H49.1621V29.8965H58.4023V31.7676Z" fill="white"/>
</svg>
