<svg xmlns="http://www.w3.org/2000/svg" width="120" height="70" viewBox="0 0 120 70" fill="none">
  <path d="M81.3438 10.9455C81.8694 10.9455 82.3536 10.7673 82.7408 10.4678L84.2573 11.5531V19.8427L76.7094 24.5423L69.2423 19.845V10.9847C70.0812 10.6393 70.6722 9.80891 70.6722 8.83897C70.6722 7.55974 69.6436 6.52263 68.3752 6.52263C67.1068 6.52263 66.0781 7.55974 66.0781 8.83897C66.0781 9.80891 66.6692 10.6393 67.508 10.9847V20.8156L75.8674 26.0737H77.5508L85.1142 21.3644L92.3077 26.0478V26.0737H94.042V25.0948L85.9919 19.8537V10.6497L83.6188 8.9511C83.6334 8.84589 83.6411 8.73808 83.6411 8.62884C83.6411 7.34961 82.6125 6.3125 81.3441 6.3125C80.0757 6.3125 79.047 7.34961 79.047 8.62884C79.047 9.90807 80.0757 10.9455 81.3441 10.9455H81.3438ZM68.3749 9.97552C67.7527 9.97552 67.2482 9.46705 67.2482 8.83926C67.2482 8.21146 67.7527 7.70299 68.3749 7.70299C68.9971 7.70299 69.5016 8.21175 69.5016 8.83926C69.5016 9.46677 68.9971 9.97552 68.3749 9.97552ZM81.3438 7.49258C81.966 7.49258 82.4705 8.00133 82.4705 8.62855C82.4705 9.25577 81.966 9.76481 81.3438 9.76481C80.7216 9.76481 80.2168 9.25635 80.2168 8.62855C80.2168 8.00075 80.7216 7.49258 81.3438 7.49258Z" fill="#1A323C"/>
  <path d="M76.7532 50.6951C75.4848 50.6951 74.4561 51.7322 74.4561 53.0115C74.4561 53.965 75.0272 54.7836 75.8432 55.139V63.3061L68.3392 67.9593L61.0008 63.6296L61.0394 43.7891H59.2188L59.1802 63.6855L51.9235 67.9613L44.4493 63.3618V55.3212C45.2652 54.9658 45.8363 54.1472 45.8363 53.1939C45.8363 51.9144 44.8077 50.8773 43.5392 50.8773C42.2708 50.8773 41.2422 51.9144 41.2422 53.1939C41.2422 54.1803 41.8532 55.0223 42.715 55.3566V64.3435L51.9043 69.9983L60.1379 65.1466L68.3612 69.9983L77.5772 64.2833V55.1739C78.4386 54.8395 79.0499 53.9976 79.0499 53.0112C79.0499 51.7319 78.0213 50.6948 76.7529 50.6948L76.7532 50.6951ZM43.5392 54.3302C42.917 54.3302 42.4126 53.8217 42.4126 53.1942C42.4126 52.5667 42.917 52.058 43.5392 52.058C44.1614 52.058 44.6659 52.5664 44.6659 53.1942C44.6659 53.822 44.1614 54.3302 43.5392 54.3302ZM76.7532 54.148C76.131 54.148 75.6265 53.6396 75.6265 53.0118C75.6265 52.384 76.1313 51.8755 76.7532 51.8755C77.3751 51.8755 77.8798 52.3842 77.8798 53.0118C77.8798 53.6393 77.3754 54.148 76.7532 54.148Z" fill="#1A323C"/>
  <path d="M92.3077 43.7891V44.1099L85.123 48.6348L77.6171 43.9372V43.7891H75.8828V43.9372L67.508 49.1784V59.0646C66.6692 59.4099 66.0781 60.2401 66.0781 61.21C66.0781 62.4896 67.1068 63.5267 68.3752 63.5267C69.6436 63.5267 70.6722 62.4896 70.6722 61.21C70.6722 60.2401 70.0812 59.4099 69.2423 59.0646V50.1518L76.75 45.4534L84.2573 50.1518V58.7023L83.4519 59.5146C83.1432 59.3586 82.7943 59.2707 82.4256 59.2707C81.1572 59.2707 80.1285 60.3078 80.1285 61.5871C80.1285 62.8663 81.1572 63.9037 82.4256 63.9037C83.694 63.9037 84.7226 62.8666 84.7226 61.5871C84.7226 61.3227 84.6786 61.0691 84.5977 60.8324L85.9919 59.4264V50.1498L94.042 45.0795V43.7891H92.3077ZM69.5018 61.2097C69.5018 61.8375 68.9974 62.346 68.3752 62.346C67.753 62.346 67.2485 61.8375 67.2485 61.2097C67.2485 60.5819 67.753 60.0735 68.3752 60.0735C68.9974 60.0735 69.5018 60.5822 69.5018 61.2097ZM82.4256 62.7233C81.8034 62.7233 81.2986 62.2149 81.2986 61.5871C81.2986 60.9593 81.8034 60.4508 82.4256 60.4508C83.0478 60.4508 83.5522 60.9595 83.5522 61.5871C83.5522 62.2146 83.0478 62.7233 82.4256 62.7233Z" fill="#1A323C"/>
  <path d="M43.5392 19.3035C44.8077 19.3035 45.8363 18.2664 45.8363 16.9872C45.8363 16.0336 45.2652 15.215 44.4493 14.8596V6.69277L51.9532 2.03962L59.2916 6.36935L59.2533 26.0738H61.0739L61.1122 6.31315L68.3689 2.03732L75.8432 6.63685V14.6774C75.0272 15.0329 74.4561 15.8515 74.4561 16.8047C74.4561 18.0842 75.4845 19.1213 76.7532 19.1213C78.0219 19.1213 79.0502 18.0842 79.0502 16.8047C79.0502 15.8183 78.4389 14.9764 77.5774 14.642V5.65508L68.3881 0L60.1545 4.85174L51.9309 0L42.715 5.71504V14.8245C41.8535 15.1585 41.2422 16.0008 41.2422 16.9872C41.2422 18.2664 42.2708 19.3035 43.5392 19.3035ZM76.7532 15.6684C77.3754 15.6684 77.8798 16.1769 77.8798 16.8044C77.8798 17.4319 77.3754 17.9407 76.7532 17.9407C76.131 17.9407 75.6265 17.4322 75.6265 16.8044C75.6265 16.1766 76.1312 15.6684 76.7532 15.6684ZM43.5392 15.8509C44.1614 15.8509 44.6659 16.3594 44.6659 16.9872C44.6659 17.615 44.1614 18.1234 43.5392 18.1234C42.917 18.1234 42.4126 17.6147 42.4126 16.9872C42.4126 16.3596 42.917 15.8509 43.5392 15.8509Z" fill="#1A323C"/>
  <path d="M38.9401 59.0534C38.4145 59.0534 37.9301 59.2315 37.5431 59.531L36.0266 58.4458V50.1561L43.5745 45.4566L51.0416 50.1538V59.0142C50.2027 59.3595 49.6117 60.1896 49.6117 61.1599C49.6117 62.4391 50.6403 63.4762 51.9087 63.4762C53.1772 63.4762 54.2058 62.4391 54.2058 61.1599C54.2058 60.1899 53.6147 59.3595 52.7759 59.0142V49.1833L44.2007 43.7891H42.9515L35.17 48.6342L27.9765 43.9508V43.7891H26.2422V44.9037L34.2926 50.1449V59.3488L36.6654 61.0475C36.6508 61.153 36.6431 61.2605 36.6431 61.37C36.6431 62.6492 37.6717 63.6863 38.9401 63.6863C40.2086 63.6863 41.2372 62.6492 41.2372 61.37C41.2372 60.0908 40.2086 59.0534 38.9401 59.0534ZM51.909 60.0233C52.5312 60.0233 53.0357 60.5318 53.0357 61.1596C53.0357 61.7874 52.5312 62.2959 51.909 62.2959C51.2868 62.2959 50.7824 61.7871 50.7824 61.1596C50.7824 60.5321 51.2868 60.0233 51.909 60.0233ZM38.9401 62.506C38.3179 62.506 37.8132 61.9972 37.8132 61.37C37.8132 60.7428 38.3179 60.2337 38.9401 60.2337C39.5623 60.2337 40.0668 60.7422 40.0668 61.37C40.0668 61.9978 39.5623 62.506 38.9401 62.506Z" fill="#1A323C"/>
  <path d="M27.9762 26.0729V25.8878L35.1609 21.363L42.6668 26.0605V26.0729H44.4011V26.0605L52.7759 20.8193V10.9331C53.6147 10.5878 54.2058 9.75764 54.2058 8.78769C54.2058 7.50817 53.1772 6.47106 51.9087 6.47106C50.6403 6.47106 49.6117 7.50817 49.6117 8.78769C49.6117 9.75764 50.2027 10.5878 51.0416 10.9331V19.8459L43.534 24.5443L36.0266 19.8459V11.2954L36.832 10.4831C37.1407 10.6391 37.4897 10.7267 37.8586 10.7267C39.1271 10.7267 40.1557 9.68961 40.1557 8.41038C40.1557 7.13114 39.1271 6.09375 37.8586 6.09375C36.5902 6.09375 35.5616 7.13086 35.5616 8.41038C35.5616 8.6747 35.6056 8.92835 35.6865 9.165L34.2926 10.5708V19.8474L26.2422 24.9176V26.0723H27.9765L27.9762 26.0729ZM50.7821 8.78798C50.7821 8.16018 51.2865 7.65172 51.9087 7.65172C52.531 7.65172 53.0354 8.16018 53.0354 8.78798C53.0354 9.41578 52.531 9.92395 51.9087 9.92395C51.2865 9.92395 50.7821 9.41549 50.7821 8.78798ZM37.8583 7.2744C38.4806 7.2744 38.985 7.78287 38.985 8.41067C38.985 9.03846 38.4806 9.54693 37.8583 9.54693C37.2361 9.54693 36.7314 9.03818 36.7314 8.41067C36.7314 7.78316 37.2359 7.2744 37.8583 7.2744Z" fill="#1A323C"/>
  <path d="M72.1531 37.3098C72.2851 37.5378 72.2866 37.8194 72.1565 38.0485L70.6026 40.7941C70.4728 41.0232 70.2316 41.1653 69.9701 41.1668H69.0586L66.3975 41.1731H62.4021C62.1672 41.1731 61.9768 40.9812 61.9768 40.7442V34.6372C61.9768 34.5236 62.0214 34.4144 62.1012 34.3339C62.1809 34.2535 62.289 34.2083 62.4019 34.2083H69.1104C69.2756 34.1835 69.3407 34.1163 69.4362 33.9471C70.1313 32.7189 70.2699 32.6117 70.109 32.3321C69.3485 31.0093 69.3282 30.8903 69.0309 30.8917C68.8854 30.8926 68.6282 30.8813 62.4016 30.8813C62.1666 30.8813 61.9766 30.6894 61.9766 30.4527V29.4914C61.9766 29.3776 62.0212 29.2686 62.1009 29.1882C62.1806 29.1078 62.2887 29.0625 62.4016 29.0625H70.1133C70.506 29.1484 70.3759 29.0962 72.1525 32.1637C72.2846 32.3917 72.286 32.6736 72.156 32.9028L70.8995 35.1231C71.1576 35.5728 71.5426 36.2577 72.1528 37.3095L72.1531 37.3098ZM69.4362 39.0931C70.1313 37.8649 70.2705 37.7577 70.1098 37.4781C69.349 36.1551 69.329 36.0363 69.0318 36.0377C68.8974 36.0383 68.6665 36.0288 63.824 36.0274V39.354H68.1123V39.3598C69.1761 39.3598 69.2401 39.4388 69.4368 39.0931H69.4362Z" fill="#1A323C"/>
  <path d="M5.6153 29.0628H10.2043C10.4392 29.0628 10.6295 29.2548 10.6295 29.4917V32.5232C10.6295 32.7601 10.4389 32.9518 10.2043 32.9518H9.20736C8.97242 32.9518 8.78236 32.7598 8.78236 32.5232V30.8816H5.6153C3.53432 30.8816 1.84719 32.5831 1.84719 34.6818V35.5546C1.84719 36.5626 2.24418 37.5291 2.95098 38.2417C3.65779 38.9545 4.61611 39.3549 5.61559 39.3546H7.91035C8.02296 39.3546 8.13128 39.3998 8.21102 39.4803C8.29077 39.5607 8.33535 39.6696 8.33535 39.7835V40.7445C8.33535 40.8581 8.29077 40.9673 8.21102 41.0477C8.13128 41.1282 8.02325 41.1734 7.91035 41.1734H5.61559C2.51427 41.1734 0 38.6377 0 35.51V34.7265C0 31.5988 2.51427 29.0631 5.61559 29.0631V29.0625L5.6153 29.0628Z" fill="#1A323C"/>
  <path d="M16.4531 30.881V29.0625H25.3381V30.881H16.4531ZM25.3381 39.7818V40.7428C25.3381 40.9797 25.1477 41.1717 24.9128 41.1717H16.8896C16.6563 41.1717 16.4666 40.9817 16.4646 40.7465L16.4531 39.3529H16.468V34.636C16.468 34.3991 16.6583 34.2071 16.8933 34.2071H24.0254C24.1383 34.2071 24.2463 34.2524 24.326 34.3328C24.4058 34.4132 24.4504 34.5222 24.4504 34.636V35.5979C24.4504 35.7117 24.4058 35.8207 24.326 35.9011C24.2463 35.9815 24.138 36.0265 24.0254 36.0265H18.3155V39.3534H24.9131C25.1477 39.3534 25.3378 39.5451 25.3384 39.7818H25.3381Z" fill="#1A323C"/>
  <path d="M47.2734 30.881V29.0625H56.1584V30.881H47.2734ZM56.1584 39.7818V40.7428C56.1584 40.9797 55.9681 41.1717 55.7331 41.1717H47.7099C47.4766 41.1717 47.2869 40.9817 47.2849 40.7465L47.2734 39.3529H47.2883V34.636C47.2883 34.3991 47.4786 34.2071 47.7136 34.2071H54.8457C54.9586 34.2071 55.0666 34.2524 55.1463 34.3328C55.2261 34.4132 55.2707 34.5222 55.2707 34.636V35.5979C55.2707 35.7117 55.2261 35.8207 55.1463 35.9011C55.0666 35.9815 54.9583 36.0265 54.8457 36.0265H49.1358V39.3534H55.7334C55.9681 39.3534 56.1581 39.5451 56.1587 39.7818H56.1584Z" fill="#1A323C"/>
  <path d="M88.2772 40.4981C88.3676 40.6292 88.3787 40.7998 88.3055 40.9417C88.2326 41.0832 88.0875 41.1723 87.9291 41.1728C86.6624 41.1728 86.5169 41.2334 86.3474 40.9901L82.8923 36.0268H79.9256V40.7436C79.9256 40.9806 79.7352 41.1725 79.5003 41.1725H78.5034C78.2685 41.1725 78.0781 40.9803 78.0781 40.7436V34.6369C78.0781 34.3999 78.2685 34.208 78.5034 34.208H84.2139V34.2137C85.2774 34.2137 85.3417 34.293 85.5386 33.9471C86.2334 32.7186 86.3723 32.6114 86.2114 32.3321C85.4509 31.009 85.4306 30.8903 85.1333 30.8917C84.9879 30.8926 84.7306 30.8813 78.504 30.8813C78.269 30.8813 78.079 30.6894 78.0787 30.4524V29.4914C78.0787 29.2545 78.269 29.0625 78.504 29.0625H86.2151C86.6075 29.1484 86.4781 29.0959 88.2544 32.1637C88.3864 32.3917 88.3878 32.6733 88.2581 32.9028L86.7041 35.6483C86.5744 35.8775 86.3332 36.0196 86.0716 36.021H85.1599L88.2769 40.4983L88.2772 40.4981Z" fill="#1A323C"/>
  <path d="M41.3632 40.4981C41.4535 40.6292 41.4646 40.7998 41.3915 40.9417C41.3186 41.0832 41.1734 41.1723 41.0151 41.1728C39.7484 41.1728 39.6029 41.2334 39.4334 40.9901L35.9782 36.0268H33.0115V40.7436C33.0115 40.9806 32.8212 41.1725 32.5863 41.1725H31.5893C31.3544 41.1725 31.1641 40.9803 31.1641 40.7436V34.6369C31.1641 34.3999 31.3544 34.208 31.5893 34.208H37.2998V34.2137C38.3633 34.2137 38.4276 34.293 38.6245 33.9471C39.3194 32.7186 39.4583 32.6114 39.2973 32.3321C38.5368 31.009 38.5165 30.8903 38.2193 30.8917C38.0738 30.8926 37.8166 30.8813 31.5899 30.8813C31.355 30.8813 31.1649 30.6894 31.1646 30.4524V29.4914C31.1646 29.2545 31.355 29.0625 31.5899 29.0625H39.3011C39.6935 29.1484 39.564 29.0959 41.3403 32.1637C41.4724 32.3917 41.4738 32.6733 41.344 32.9028L39.7901 35.6483C39.6603 35.8775 39.4191 36.0196 39.1576 36.021H38.2459L41.3629 40.4983L41.3632 40.4981Z" fill="#1A323C"/>
  <path d="M119.997 37.6905C119.997 39.614 118.451 41.1728 116.544 41.1728H115.266C115.031 41.1728 114.841 40.9809 114.841 40.7439V39.7826C114.841 39.6688 114.885 39.5598 114.965 39.4794C115.045 39.399 115.153 39.354 115.266 39.354H116.501C117.412 39.354 118.15 38.6092 118.15 37.6905C118.15 36.7719 117.412 36.0271 116.501 36.0271H113.758C111.424 36.0271 110.109 34.3025 110.109 32.5448C110.109 30.6216 111.655 29.0625 113.562 29.0625H118.604C118.839 29.0625 119.029 29.2545 119.029 29.4914V30.4524C119.029 30.6894 118.839 30.8813 118.604 30.8813H113.606C112.695 30.8813 111.957 31.6262 111.957 32.5448C111.957 33.4634 112.695 34.2083 113.606 34.2083H116.349C118.682 34.2083 119.998 35.9328 119.997 37.6903V37.6905Z" fill="#1A323C"/>
  <path d="M98.313 39.7136V40.7055C98.313 40.8346 98.2552 40.9565 98.1561 41.0378C98.0569 41.1191 97.9266 41.1514 97.8017 41.1255C95.6944 40.6844 94.1836 38.8123 94.1836 36.6418V29.6095C94.1836 29.3725 94.3739 29.1806 94.6086 29.1803H95.6058C95.8407 29.1803 96.0311 29.3723 96.0311 29.6095V36.6865C96.0314 37.9052 96.8373 38.9737 98.0017 39.2994C98.1861 39.351 98.3135 39.5205 98.313 39.7136ZM104.29 29.5383V36.6406C104.29 38.8111 102.78 40.6833 100.672 41.124C100.547 41.1502 100.417 41.1182 100.317 41.0367C100.218 40.9554 100.16 40.8329 100.16 40.704V39.7119C100.16 39.5194 100.288 39.3504 100.472 39.2988C101.637 38.9731 102.443 37.9043 102.443 36.6856V29.5383C102.443 29.3013 102.633 29.1094 102.868 29.1094H103.865C104.099 29.1094 104.29 29.3011 104.29 29.5377L104.29 29.5383Z" fill="#1A323C"/>
</svg>